<?xml version="1.0" standalone="no"?>
<!DOCTYPE svg PUBLIC "-//W3C//DTD SVG 1.1//EN" "http://www.w3.org/Graphics/SVG/1.1/DTD/svg11.dtd" >
<svg xmlns="http://www.w3.org/2000/svg" xmlns:xlink="http://www.w3.org/1999/xlink" version="1.1">
<metadata>
Created by FontForge 20201107 at Wed Feb 14 20:18:32 2024
 By 
(c) 2013 Klim Type Foundry. All Rights Reserved.
</metadata>
<defs>
<font id="DomaineDispNar-RegularItalic" horiz-adv-x="1112" >
  <font-face 
    font-family="Domaine Disp Nar"
    font-weight="400"
    font-style="italic"
    font-stretch="normal"
    units-per-em="2048"
    panose-1="2 10 5 6 8 5 5 13 2 3"
    ascent="1597"
    descent="-451"
    x-height="995"
    cap-height="1434"
    bbox="-424 -489 2036 1939"
    underline-thickness="77"
    underline-position="-191"
    slope="-14"
    unicode-range="U+0020-FB04"
  />
<missing-glyph horiz-adv-x="1024" 
 />
    <glyph glyph-name="ff" unicode="ff" horiz-adv-x="1058" 
d="M434 995h352l31 117q4 12 8 25.5t9 29t8 23.5q-29 4 -52.5 17t-33.5 28q53 3 83.5 39t30.5 90q0 53 -30 86t-90 33q-111 0 -182.5 -98.5t-114.5 -303.5zM182 -45q-51 -217 -139.5 -322.5t-245.5 -115.5v4q32 18 59.5 47t51 75.5t41 88t37.5 113.5t32 121t33 138l191 838
h-138l5 14l145 43l20 72q58 215 183.5 328.5t302.5 113.5q156 0 221 -83q107 110 248 110q94 0 152.5 -40t58.5 -109q0 -63 -43 -102.5t-105 -39.5q-35 0 -62 15.5t-38 38.5q50 6 78 38t28 82q0 84 -81 84q-82 0 -134.5 -82t-83.5 -249l-32 -181h217l-25 -53h-203l-231 -946
q-53 -218 -141 -323.5t-244 -114.5v4q38 20 70.5 61.5t56 90t47.5 125t40 141t38 165.5l182 797h-350z" />
    <glyph glyph-name="fi" unicode="fi" horiz-adv-x="1007" 
d="M780 942h-356l-242 -987q-51 -217 -139.5 -322.5t-245.5 -115.5v4q32 18 59.5 47t51 75.5t41 88t37.5 113.5t32 121t33 138l191 838h-138l5 14l147 43l27 97q134 444 481 444q126 0 195 -54t69 -130q0 -67 -46 -106.5t-108 -39.5q-36 0 -66.5 14t-43.5 33q53 4 83 40
t30 89t-31.5 87t-91.5 34q-220 0 -299 -399l-21 -113h531l-207 -827q-4 -24 -4 -35q0 -33 19 -52.5t52 -19.5q41 0 95 31l2 -4q-87 -108 -197 -108q-65 0 -104 37t-39 102q0 30 8 61z" />
    <glyph glyph-name="fl" unicode="fl" horiz-adv-x="1001" 
d="M723 1540q143 0 213 -98q65 24 158 98h6l-340 -1372q-4 -24 -4 -35q0 -33 19 -52.5t52 -19.5q41 0 95 31l2 -4q-87 -108 -197 -108q-65 0 -104 37t-39 102q0 30 8 61l276 1100q9 38 9 70q0 72 -41 114.5t-113 42.5q-100 0 -163.5 -89.5t-102.5 -299.5l-23 -123h217
l-24 -53h-203l-240 -985q-53 -219 -141.5 -324.5t-245.5 -115.5v4q39 21 72 63t56.5 90t47.5 125t40 141t38 164l191 838h-138l5 14l147 43l31 125q54 203 167 309.5t269 106.5z" />
    <glyph glyph-name="ffi" unicode="ffi" horiz-adv-x="1540" 
d="M434 995h352l29 101q14 46 33 92q-31 4 -57 17.5t-35 29.5q53 3 83.5 39t30.5 90q0 53 -30 86t-90 33q-111 0 -182.5 -98.5t-114.5 -303.5zM182 -45q-51 -217 -139.5 -322.5t-245.5 -115.5v4q32 18 59.5 47t51 75.5t41 88t37.5 113.5t32 121t33 138l191 838h-138l5 14
l145 43l20 72q58 215 183.5 328.5t302.5 113.5q86 0 144.5 -27t86.5 -71q125 125 305 125q126 0 195.5 -54t69.5 -130q0 -67 -46 -106.5t-108 -39.5q-36 0 -67 14t-44 33q53 4 83 40t30 89t-31.5 87t-91.5 34q-220 0 -299 -399l-20 -113h530l-205 -827q-6 -18 -6 -35
q0 -34 20 -53t54 -19q37 0 94 31l2 -4q-87 -108 -199 -108q-64 0 -102.5 37t-38.5 102q0 30 8 61l191 762h-359l-231 -946q-53 -218 -141 -323.5t-244 -114.5v4q38 20 70.5 61.5t56 90t47.5 125t40 141t38 165.5l182 797h-350z" />
    <glyph glyph-name="ffl" unicode="ffl" horiz-adv-x="1531" 
d="M434 995h352l33 127q8 31 21 68q-60 9 -84 45q53 3 83.5 39t30.5 90q0 53 -30 86t-90 33q-111 0 -182.5 -98.5t-114.5 -303.5zM182 -45q-51 -217 -139.5 -322.5t-245.5 -115.5v4q32 18 59.5 47t51 75.5t41 88t37.5 113.5t32 121t33 138l191 838h-138l5 14l145 43l20 72
q58 215 183.5 328.5t302.5 113.5q156 0 221 -83q116 110 274 110q141 0 211 -98q65 24 158 98h6l-340 -1372q-4 -24 -4 -35q0 -33 19.5 -52.5t52.5 -19.5q40 0 94 31l2 -4q-87 -108 -197 -108q-65 0 -104 37t-39 102q0 30 8 61l277 1100q8 33 8 70q0 73 -40.5 115t-113.5 42
q-99 0 -163 -90t-103 -299l-22 -123h217l-25 -53h-203l-229 -946q-53 -220 -140.5 -324.5t-244.5 -113.5v4q38 20 70.5 61.5t56 90t47.5 125t40 141t38 165.5l182 797h-350z" />
    <glyph glyph-name="f_b" unicode="fb" horiz-adv-x="1540" 
d="M1100 1540l-195 -772q136 248 336 248q124 0 194 -91.5t70 -250.5q0 -171 -67.5 -331t-185 -261.5t-251.5 -101.5q-102 0 -169 62.5t-80 154.5q-28 -68 -91.5 -126.5t-136.5 -90.5q60 173 115 407l225 893q10 45 10 72q0 71 -40.5 113t-110.5 42q-100 0 -163.5 -89.5
t-102.5 -299.5l-23 -123h217l-24 -53h-203l-240 -985q-53 -219 -141.5 -324.5t-245.5 -115.5v4q39 21 72 63t56.5 90t47.5 125t40 141t38 164l191 838h-138l5 14l147 43l31 125q54 203 167 309.5t269 106.5q143 0 213 -98q69 26 156 98h8zM1329 702q0 109 -37.5 172.5
t-117.5 63.5q-94 0 -186.5 -99.5t-129.5 -256.5l-47 -191q-18 -77 -18 -137q0 -98 47.5 -150.5t120.5 -52.5q100 0 186.5 99t134 248.5t47.5 303.5z" />
    <glyph glyph-name="f_f_b" unicode="ffb" horiz-adv-x="2070" 
d="M434 995h352l33 127q8 31 21 68q-60 9 -84 45q53 3 83.5 39t30.5 90q0 53 -30 86t-90 33q-111 0 -182.5 -98.5t-114.5 -303.5zM182 -45q-51 -217 -139.5 -322.5t-245.5 -115.5v4q32 18 59.5 47t51 75.5t41 88t37.5 113.5t32 121t33 138l191 838h-138l5 14l145 43l20 72
q58 215 183.5 328.5t302.5 113.5q156 0 221 -83q116 110 274 110q141 0 211 -98q70 25 158 98h6l-192 -772q136 248 334 248q124 0 194 -91.5t70 -250.5q0 -171 -67.5 -331t-185 -261.5t-251.5 -101.5q-102 0 -169.5 62.5t-78.5 154.5q-28 -67 -91.5 -125.5t-135.5 -91.5
q43 124 114 407l224 893q10 34 10 72q0 71 -40.5 113t-111.5 42q-99 0 -163 -90t-103 -299l-22 -123h217l-25 -53h-203l-229 -946q-53 -220 -140.5 -324.5t-244.5 -113.5v4q38 20 70.5 61.5t56 90t47.5 125t40 141t38 165.5l182 797h-350zM1862 702q0 108 -39 172t-119 64
q-93 0 -184.5 -99.5t-128.5 -256.5l-48 -191q-18 -77 -18 -137q0 -98 47 -150.5t119 -52.5q76 0 146.5 58.5t118.5 151.5t77 209.5t29 231.5z" />
    <glyph glyph-name="f_f_h" unicode="ffh" horiz-adv-x="2060" 
d="M434 995h352l33 127q8 31 21 68q-60 9 -84 45q53 3 83.5 39t30.5 90q0 53 -30 86t-90 33q-111 0 -182.5 -98.5t-114.5 -303.5zM182 -45q-51 -217 -139.5 -322.5t-245.5 -115.5v4q32 18 59.5 47t51 75.5t41 88t37.5 113.5t32 121t33 138l191 838h-138l5 14l145 43l20 72
q58 215 183.5 328.5t302.5 113.5q156 0 221 -83q116 110 274 110q141 0 211 -98q70 25 158 98h8l-202 -805q68 128 161 204.5t201 76.5q88 0 136 -54.5t48 -144.5q0 -42 -12 -94l-139 -555q-4 -24 -4 -35q0 -33 19.5 -52.5t51.5 -19.5q41 0 95 31l2 -4q-87 -108 -197 -108
q-65 0 -104 37t-39 102q0 30 8 61l135 535q12 53 12 96q0 100 -98 100q-44 0 -89 -21.5t-90.5 -65t-85 -119t-63.5 -173.5l-133 -532h-170l320 1280q10 34 10 72q0 71 -40.5 113t-111.5 42q-99 0 -163 -90t-103 -299l-22 -123h217l-25 -53h-203l-229 -946
q-53 -220 -140.5 -324.5t-244.5 -113.5v4q38 20 70.5 61.5t56 90t47.5 125t40 141t38 165.5l182 797h-350z" />
    <glyph glyph-name="f_f_j" unicode="ffj" horiz-adv-x="1505" 
d="M434 995h352l29 101q14 46 33 92q-31 4 -57 17.5t-35 29.5q53 3 83.5 39t30.5 90q0 53 -30 86t-90 33q-111 0 -182.5 -98.5t-114.5 -303.5zM801 -389q103 0 164 98t116 314l232 919h-357l-231 -946q-5 -20 -14.5 -53.5t-10.5 -36.5q33 -3 60.5 -17t38.5 -30
q-53 -4 -84 -40.5t-31 -88.5t30 -85.5t87 -33.5zM182 -45q-51 -217 -139.5 -322.5t-245.5 -115.5v4q32 18 59.5 47t51 75.5t41 88t37.5 113.5t32 121t33 138l191 838h-138l5 14l145 43l20 72q58 215 183.5 328.5t302.5 113.5q86 0 144.5 -27t86.5 -71q125 125 305 125
q126 0 195.5 -54t69.5 -130q0 -67 -46 -106.5t-108 -39.5q-36 0 -67 14t-44 33q53 4 83 40t30 89t-31.5 87t-91.5 34q-220 0 -299 -399l-20 -113h530l-231 -932q-64 -253 -177.5 -369t-291.5 -116q-75 0 -132.5 23.5t-89.5 62.5q-87 -97 -235 -106v4q38 20 70.5 61.5t56 90
t47.5 125t40 141t38 165.5l182 797h-350z" />
    <glyph glyph-name="f_f_k" unicode="ffk" horiz-adv-x="2027" 
d="M434 995h352l33 127q8 31 21 68q-60 9 -84 45q53 3 83.5 39t30.5 90q0 53 -30 86t-90 33q-111 0 -182.5 -98.5t-114.5 -303.5zM182 -45q-51 -217 -139.5 -322.5t-245.5 -115.5v4q32 18 59.5 47t51 75.5t41 88t37.5 113.5t32 121t33 138l191 838h-138l5 14l145 43l20 72
q58 215 183.5 328.5t302.5 113.5q156 0 221 -83q116 110 274 110q141 0 211 -98q70 25 158 98h8l-219 -866q79 155 186 248.5t226 93.5q86 0 137 -51.5t51 -135.5q0 -142 -107 -233.5t-280 -122.5l113 -313q38 -97 116 -97q44 0 97 35l2 -4q-78 -114 -203 -114
q-64 0 -104 34t-64 103l-135 393q40 -18 94 -18q120 0 215.5 92t95.5 223q0 57 -26.5 89t-77.5 32q-45 0 -100 -33.5t-110.5 -93t-105 -155t-77.5 -206.5l-109 -440h-172l320 1280q10 34 10 72q0 71 -40.5 113t-111.5 42q-99 0 -163 -90t-103 -299l-22 -123h217l-25 -53
h-203l-229 -946q-53 -220 -140.5 -324.5t-244.5 -113.5v4q38 20 70.5 61.5t56 90t47.5 125t40 141t38 165.5l182 797h-350z" />
    <glyph glyph-name="f_h" unicode="fh" horiz-adv-x="1527" 
d="M287 1124q54 203 167 309.5t269 106.5q143 0 213 -98q65 24 158 98h6l-203 -805q68 128 161.5 204.5t201.5 76.5q89 0 137.5 -54.5t48.5 -144.5q0 -42 -12 -94l-140 -555q-6 -18 -6 -35q0 -34 20 -53t54 -19q37 0 94 31l2 -4q-87 -108 -198 -108q-64 0 -103 37t-39 102
q0 30 8 61l134 535q14 61 14 96q0 100 -98 100q-95 0 -188 -95t-140 -284l-133 -532h-170l319 1280q10 45 10 72q0 71 -40.5 113t-110.5 42q-100 0 -163.5 -89.5t-102.5 -299.5l-23 -123h217l-24 -53h-203l-240 -985q-53 -219 -141.5 -324.5t-245.5 -115.5v4q39 21 72 63
t56.5 90t47.5 125t40 141t38 164l191 838h-138l5 14l147 43z" />
    <glyph glyph-name="f_j" unicode="fj" horiz-adv-x="970" 
d="M262 -410q103 0 164.5 98t116.5 314l237 940h-356l-242 -987q-3 -12 -18 -70q32 -3 59 -17t37 -30q-53 -4 -84 -40.5t-31 -88.5t30 -85.5t87 -33.5zM258 -442q-143 0 -213 77q-93 -109 -248 -118v4q32 18 59.5 47t51 75.5t41 88t37.5 113.5t32 121t33 138l191 838h-138
l5 14l147 43l27 97q134 444 481 444q126 0 195 -54t69 -130q0 -67 -46 -106.5t-108 -39.5q-36 0 -66.5 14t-43.5 33q53 4 83 40t30 89t-31.5 87t-91.5 34q-220 0 -299 -399l-21 -113h531l-238 -952q-64 -253 -177.5 -369t-291.5 -116z" />
    <glyph glyph-name="f_k" unicode="fk" horiz-adv-x="1497" 
d="M874 1352q0 71 -40.5 113t-110.5 42q-100 0 -163.5 -89.5t-102.5 -299.5l-23 -123h217l-24 -53h-203l-240 -985q-53 -219 -141.5 -324.5t-245.5 -115.5v4q39 21 72 63t56.5 90t47.5 125t40 141t38 164l191 838h-138l5 14l147 43l31 125q54 203 167 309.5t269 106.5
q144 0 211 -98q67 24 160 98h6l-217 -866q78 155 184.5 248.5t226.5 93.5q86 0 136.5 -51.5t50.5 -135.5q0 -142 -107 -233.5t-280 -122.5l112 -313q38 -97 117 -97q45 0 98 35v-4q-78 -114 -200 -114q-123 0 -168 137l-135 393q40 -18 92 -18q120 0 215.5 92t95.5 223
q0 57 -26 89t-76 32q-99 0 -220 -135.5t-176 -352.5l-108 -440h-170l319 1280q10 45 10 72z" />
    <glyph glyph-name="f_idieresis" unicode="f&#xef;" horiz-adv-x="1005" 
d="M1100 1417q49 0 78.5 -29.5t29.5 -74.5q0 -51 -35.5 -87t-87.5 -36q-47 0 -76.5 29.5t-29.5 72.5q0 53 35 89t86 36zM434 995h531l-207 -827q-4 -24 -4 -35q0 -33 19 -52.5t52 -19.5q41 0 95 31l2 -4q-87 -108 -197 -108q-65 0 -104 37t-39 102q0 30 8 61l190 762h-356
l-242 -987q-51 -217 -139.5 -322.5t-245.5 -115.5v4q32 18 59.5 47t51 75.5t41 88t37.5 113.5t32 121t33 138l191 838h-138l5 14l147 43l29 113q55 205 155.5 316.5t243.5 111.5q101 0 160 -52.5t59 -125.5q0 -69 -45 -115.5t-108 -46.5q-40 0 -67.5 16t-39.5 39q51 3 84 43
t33 97q0 51 -18 81.5t-68 30.5q-76 0 -124.5 -77.5t-82.5 -253.5z" />
    <glyph glyph-name="f_f_idieresis" unicode="ff&#xef;" horiz-adv-x="1540" 
d="M434 995h352l31 117q4 20 23 78q-28 4 -51 17.5t-33 27.5q53 3 83.5 39t30.5 90q0 53 -30 86t-90 33q-111 0 -182.5 -98.5t-114.5 -303.5zM1630 1417q49 -1 79 -30.5t32 -73.5q-2 -53 -37 -88.5t-86 -34.5q-49 -1 -79 28t-30 74q0 51 35 87.5t86 37.5zM182 -45
q-51 -217 -139.5 -322.5t-245.5 -115.5v4q32 18 59.5 47t51 75.5t41 88t37.5 113.5t32 121t33 138l191 838h-138l5 14l145 43l20 72q58 215 183.5 328.5t302.5 113.5q149 0 217 -79q103 106 240 106q99 -1 158 -53.5t61 -124.5q-1 -71 -47 -117.5t-109 -44.5q-40 -1 -67 15
t-37 40q49 1 81.5 41t32.5 99q0 50 -18 80.5t-68 31.5q-75 -2 -124 -79.5t-81 -251.5l-34 -181h532l-205 -827q-6 -18 -6 -35q0 -34 20 -53t54 -19q37 0 94 31l2 -4q-87 -108 -199 -108q-64 0 -102.5 37t-38.5 102q0 30 8 61l191 762h-359l-231 -946q-53 -218 -141 -323.5
t-244 -114.5v4q38 20 70.5 61.5t56 90t47.5 125t40 141t38 165.5l182 797h-350z" />
    <glyph glyph-name=".notdef" horiz-adv-x="1024" 
 />
    <glyph glyph-name=".null" horiz-adv-x="0" 
 />
    <glyph glyph-name="nonmarkingreturn" horiz-adv-x="682" 
 />
    <glyph glyph-name="space" unicode=" " horiz-adv-x="337" 
 />
    <glyph glyph-name="exclam" unicode="!" horiz-adv-x="483" 
d="M602 1434l-375 -1018h-10l141 1018h244zM285 117q0 -55 -38.5 -94t-94.5 -39t-95 39t-39 94q0 57 39 96t95 39t94.5 -39t38.5 -96z" />
    <glyph glyph-name="quotedbl" unicode="&#x22;" horiz-adv-x="679" 
d="M295 885h-4q2 14 4.5 38t8 91.5t8.5 127t2.5 128.5t-7.5 112q52 72 125 72q34 0 61 -21t35 -51q-45 -68 -103.5 -192.5t-94.5 -214.5zM578 885h-5q2 14 4.5 38t9 91.5t9.5 127t2.5 128.5t-8.5 112q52 72 125 72q35 0 62 -20.5t36 -51.5q-46 -68 -105 -192.5t-94 -214.5z
" />
    <glyph glyph-name="numbersign" unicode="#" horiz-adv-x="1146" 
d="M682 498l174 438h-283l-172 -438h281zM487 0l181 457h-283l-178 -457h-43l180 457h-293l17 41h290l174 438h-321l16 41h320l180 457h41l-178 -457h280l181 457h43l-181 -457h289l-16 -41h-287l-174 -438h322l-19 -41h-317l-181 -457h-43z" />
    <glyph glyph-name="dollar" unicode="$" horiz-adv-x="1011" 
d="M696 1409h-20l-139 -553q69 -40 98 -55l147 598q-45 10 -86 10zM381 1087q0 -122 131 -213l131 531q-117 -18 -189.5 -108.5t-72.5 -209.5zM418 20h22l150 605q-18 11 -96 53l-162 -647q50 -11 86 -11zM774 377q0 76 -41 129.5t-117 101.5l-145 -583q136 19 219.5 117
t83.5 235zM418 -23q-41 0 -99 7l-53 -217h-30l55 223q-134 27 -214.5 101t-80.5 165q0 88 54.5 141.5t127.5 53.5q74 0 109 -58q-58 0 -97.5 -44t-39.5 -118q0 -66 42 -116t111 -76l164 655q-56 32 -93.5 59t-76 66t-57.5 89t-19 110q0 175 124 296.5t310 135.5l52 209h30
l-51 -207h10q58 0 99 -8l53 215h31l-56 -221q113 -24 180.5 -87.5t67.5 -140.5q0 -76 -47.5 -123t-110.5 -47q-35 0 -63 15t-41 37q48 0 86.5 39t38.5 104q0 53 -33 93t-90 61l-149 -605q50 -28 82 -47.5t72 -52t63 -63.5t39 -75.5t16 -94.5q0 -130 -68 -236.5t-174.5 -166
t-230.5 -68.5l-53 -213h-31l53 210h-12z" />
    <glyph glyph-name="percent" unicode="%" horiz-adv-x="1173" 
d="M88 0h-78l1118 1370q-48 -35 -116 -59.5t-133 -24.5q-102 0 -185 49q38 -72 29 -168q-12 -124 -101.5 -216.5t-205.5 -92.5q-101 0 -161 86.5t-48 202.5q12 124 101.5 215.5t205.5 91.5q52 0 98.5 -20t77.5 -43.5t81.5 -43.5t109.5 -20q92 0 169.5 35.5t172.5 110.5
l20 -19zM412 893q44 0 84 47.5t64.5 118t31.5 145.5q6 61 5 108.5t-21 77t-58 29.5q-44 0 -84 -47t-64.5 -117.5t-31.5 -146.5q-29 -215 74 -215zM770 -10q-94 0 -154.5 73.5t-60.5 178.5q0 135 94 239.5t217 104.5q93 0 154 -73.5t61 -176.5q0 -135 -94 -240.5t-217 -105.5
zM764 25q47 0 91.5 55t71.5 145t27 185q0 141 -82 141q-47 0 -91.5 -55t-71.5 -144.5t-27 -183.5q-3 -143 82 -143z" />
    <glyph glyph-name="ampersand" unicode="&#x26;" horiz-adv-x="1400" 
d="M1008 -20q-92 0 -163.5 50.5t-148.5 168.5q-83 -104 -169 -161.5t-191 -57.5q-127 0 -216 84t-89 229q0 155 101 273t278 190q-43 128 -43 245q0 103 30 189t81.5 143.5t120 89t144.5 31.5q132 0 202.5 -65.5t70.5 -169.5q0 -64 -27 -124t-71 -106t-102.5 -84.5
t-118.5 -64.5t-122 -43q36 -95 111 -244q54 -109 90 -168q19 29 53 84t54 86.5t52.5 79.5t55.5 76t55 62t59.5 52t59.5 30.5t64 12.5q67 0 103 -35.5t36 -91.5q0 -58 -41 -99t-104 -42q22 29 22 76q0 34 -19 57t-59 23q-29 0 -56.5 -11t-55 -36t-50 -49.5t-52.5 -68.5
t-49 -74.5t-52.5 -85.5t-52.5 -85q81 -132 153.5 -190t151.5 -58q52 0 93 17t83 57l2 -6q-97 -186 -274 -186zM514 1100q0 -134 57 -287q131 63 215 170t84 250q0 80 -33.5 131t-97.5 51q-96 0 -160.5 -89t-64.5 -226zM414 66q123 0 258 170q-59 100 -131 235
q-76 130 -125 266q-106 -71 -158.5 -166.5t-52.5 -230.5q0 -123 58.5 -198.5t150.5 -75.5z" />
    <glyph glyph-name="quotesingle" unicode="'" horiz-adv-x="397" 
d="M295 885h-4q2 14 4.5 38t8 91.5t8.5 127t2.5 128.5t-7.5 112q52 72 125 72q34 0 61 -21t35 -51q-45 -68 -103.5 -192.5t-94.5 -214.5z" />
    <glyph glyph-name="parenleft" unicode="(" horiz-adv-x="598" 
d="M94 348q0 188 58 371t158 334t226 273.5t269 207.5h26q-115 -93 -219.5 -233.5t-185 -306t-128.5 -357t-48 -373.5q0 -345 135 -516h-27q-122 101 -193 254.5t-71 345.5z" />
    <glyph glyph-name="parenright" unicode=")" horiz-adv-x="598" 
d="M575 934q0 -188 -58 -371t-157.5 -334t-225.5 -273.5t-269 -207.5h-27q115 93 219.5 233.5t185.5 306t129 357t48 373.5q0 345 -135 516h26q122 -101 193 -254.5t71 -345.5z" />
    <glyph glyph-name="asterisk" unicode="*" horiz-adv-x="784" 
d="M561 1548l176 -47q-29 -15 -72.5 -92.5t-68.5 -155.5q84 11 166 40t104 57l13 -183q-26 23 -112 40.5t-169 17.5q36 -77 88.5 -147t85.5 -83l-170 -69q15 33 5 120t-36 166q-62 -58 -112 -129.5t-51 -107.5l-119 143q35 -3 115 33t149 86q-76 40 -160 65.5t-117 16.5
l99 156q6 -35 64.5 -99.5t127.5 -115.5q15 81 13.5 170t-19.5 118z" />
    <glyph glyph-name="plus" unicode="+" horiz-adv-x="899" 
d="M844 633h-336l-84 -332h-53l84 332h-332l12 53h332l84 334h53l-84 -334h336z" />
    <glyph glyph-name="comma" unicode="," horiz-adv-x="423" 
d="M166 31q-38 -23 -74 -23q-48 0 -75 30t-27 73q0 56 39.5 92.5t97.5 36.5q62 0 96.5 -43.5t34.5 -110.5q0 -146 -115.5 -238.5t-279.5 -97.5l6 31q129 12 210.5 81.5t86.5 168.5z" />
    <glyph glyph-name="hyphen" unicode="-" horiz-adv-x="534" 
d="M76 539l14 57h402l-15 -57h-401z" />
    <glyph glyph-name="period" unicode="." horiz-adv-x="423" 
d="M250 117q0 -55 -39.5 -94t-93.5 -39q-55 0 -94 39t-39 94q0 57 38.5 96t94.5 39q55 0 94 -39t39 -96z" />
    <glyph glyph-name="slash" unicode="/" horiz-adv-x="702" 
d="M-180 -252l1046 1786h60l-1045 -1786h-61z" />
    <glyph glyph-name="zero" unicode="0" horiz-adv-x="1157" 
d="M481 -20q-94 0 -167.5 39t-119 107.5t-69 157.5t-23.5 193q0 128 31 265t92 263.5t142 227t190 161t227 60.5q124 0 210.5 -68.5t126.5 -178.5t40 -251q0 -128 -31 -265t-92 -263t-141.5 -226.5t-189 -161t-226.5 -60.5zM483 25q101 0 188 92t149 240.5t112 355.5
q53 215 53 381q0 152 -46 233.5t-159 81.5q-282 0 -446 -688q-53 -211 -53 -379q0 -74 9.5 -128.5t31.5 -99t62.5 -67t98.5 -22.5z" />
    <glyph glyph-name="one" unicode="1" horiz-adv-x="653" 
d="M489 0h-567v8q138 45 167 61q45 25 63 75q4 12 8 28l270 1081q6 27 6 47q0 35 -26.5 54t-111.5 55q-24 10 -38 16v9h391l-315 -1262q-8 -36 -8 -47q0 -25 16.5 -43t35 -27t76.5 -33q21 -9 33 -14v-8z" />
    <glyph glyph-name="two" unicode="2" horiz-adv-x="978" 
d="M670 1419q-131 0 -214 -91.5t-83 -227.5q0 -67 32.5 -107.5t96.5 -40.5q56 0 94 23h4q-75 -119 -211 -119q-84 0 -133 56t-49 143q0 167 137 283t326 116q170 0 271 -79.5t101 -223.5q0 -54 -11 -103.5t-40.5 -103t-63 -100t-96 -108.5t-120.5 -115t-156.5 -133
t-184 -147.5t-220.5 -172.5q-9 -7 -13 -10h287q65 0 102 1.5t80.5 8t71.5 19t62 35t65 54.5t69 80h7l-136 -356h-851v4q238 193 403.5 342t276.5 268.5t173 222t87.5 189t25.5 182.5q0 98 -48 154.5t-142 56.5z" />
    <glyph glyph-name="three" unicode="3" horiz-adv-x="962" 
d="M346 18q109 0 193.5 64.5t128 167.5t43.5 223q0 281 -295 293l2 16q102 2 181.5 37.5t128.5 96t74 137t25 164.5q0 91 -43.5 144.5t-136.5 53.5q-96 0 -161.5 -59t-65.5 -154q0 -47 22.5 -74.5t63.5 -27.5q36 0 63 12h4q-37 -55 -75 -78.5t-90 -23.5q-62 0 -101 38
t-39 105q0 131 111.5 216t275.5 85q162 0 259.5 -77.5t97.5 -205.5q0 -156 -127 -264.5t-314 -132.5q148 -11 238 -94.5t90 -214.5q0 -146 -78 -258.5t-203 -169.5t-272 -57q-64 0 -126.5 17t-116 50t-86.5 88t-33 123q0 99 56.5 162t149.5 63q61 0 100 -32t44 -86h-4
q-20 20 -64 20q-57 0 -93 -43.5t-36 -114.5q0 -96 55.5 -152.5t153.5 -56.5z" />
    <glyph glyph-name="four" unicode="4" horiz-adv-x="1105" 
d="M612 446l193 773l-699 -773h506zM563 252l35 139h-606v4l958 1059h88l-252 -1008h70q84 0 124 29.5t99 126.5h4l-90 -366h-4q-11 97 -37 126t-110 29h-70l-35 -139q-22 -77 -22 -127q0 -86 78 -121v-4h-408v4q77 29 113.5 83.5t64.5 164.5z" />
    <glyph glyph-name="five" unicode="5" horiz-adv-x="1003" 
d="M360 18q81 0 148 33t112 87t76.5 125t45.5 145.5t14 150.5q0 279 -221 279q-82 0 -166 -47.5t-146 -110.5h-2l236 764q191 -37 356 -37q117 0 179.5 16.5t125.5 81.5h4q-69 -280 -354 -280q-152 0 -317 47l-146 -479q133 116 309 116q151 0 241.5 -94t90.5 -246
q0 -121 -46.5 -230t-125 -187.5t-187 -125t-227.5 -46.5q-86 0 -166 29.5t-137 95.5t-57 155q0 99 56.5 161t148.5 62q63 0 102.5 -32t42.5 -86h-4q-20 20 -61 20q-59 0 -95 -43t-36 -115q0 -96 54.5 -152.5t151.5 -56.5z" />
    <glyph glyph-name="six" unicode="6" horiz-adv-x="1064" 
d="M856 1094q57 0 98 45.5t41 124.5q0 68 -44 109.5t-126 41.5q-71 0 -138.5 -37t-122 -100t-102 -143t-82 -169t-58 -175.5t-33.5 -165.5q64 121 163.5 192.5t229.5 71.5q142 0 233 -92.5t91 -245.5q0 -150 -69 -280.5t-193 -210.5t-273 -80q-119 0 -206 65.5t-129 172
t-42 239.5q0 113 25.5 232t71 229t113 208t146.5 170.5t177 115t200 42.5q140 0 224 -67t84 -173q0 -100 -58 -157.5t-141 -57.5q-61 0 -102 30t-50 83h4q23 -18 68 -18zM471 23q78 0 146.5 52t112.5 134t69.5 180.5t25.5 194.5q0 114 -48 182t-148 68q-77 0 -145.5 -50.5
t-114.5 -130t-72.5 -177t-26.5 -193.5q0 -117 50 -188.5t151 -71.5z" />
    <glyph glyph-name="seven" unicode="7" horiz-adv-x="919" 
d="M440 1434h717l-2 -4l-242 -279q-220 -257 -352.5 -523.5t-222.5 -613.5l-207 -20q59 173 138.5 331t181 305.5t198.5 268.5t230 270l96 107h-438q-125 0 -193.5 -36t-148.5 -150h-5l123 364q39 -20 127 -20z" />
    <glyph glyph-name="eight" unicode="8" horiz-adv-x="1044" 
d="M1067 1163q0 -79 -30 -146t-81.5 -114.5t-115 -79t-135.5 -45.5q130 -75 196 -156.5t66 -189.5q0 -101 -45 -188.5t-117 -143.5t-160.5 -88t-177.5 -32q-84 0 -159 21.5t-135.5 62.5t-96 109t-35.5 153q0 86 35.5 158.5t95 122t130.5 82t149 46.5q-170 127 -170 293
q0 122 64 221t165 152t213 53q88 0 164.5 -31.5t128 -99.5t51.5 -160zM920 1198q0 99 -50.5 159t-144.5 60q-120 0 -201.5 -93.5t-81.5 -231.5q0 -146 140 -232l108 -67q99 47 164.5 157.5t65.5 247.5zM643 614l-176 111q-112 -46 -186 -160t-74 -264q0 -131 71.5 -206
t188.5 -75q84 0 159.5 39.5t126 118.5t50.5 180q0 158 -160 256z" />
    <glyph glyph-name="nine" unicode="9" horiz-adv-x="1064" 
d="M702 1411q-78 0 -146.5 -52t-112.5 -134t-69.5 -180.5t-25.5 -194.5q0 -114 48.5 -182t148.5 -68q102 0 186 85.5t128 211t44 254.5q0 117 -50 188.5t-151 71.5zM317 340q-57 0 -98 -45.5t-41 -124.5q0 -68 44 -110t126 -42q84 0 164 53t140.5 137t110 190t79.5 211
t43 200q-64 -121 -163.5 -192.5t-229.5 -71.5q-142 0 -233 92.5t-91 245.5q0 150 68.5 280.5t192.5 210.5t273 80q119 0 206 -65.5t129 -172t42 -239.5q0 -113 -25.5 -232t-71 -229t-113 -208t-146.5 -170.5t-177 -115t-200 -42.5q-140 0 -223.5 66.5t-83.5 172.5
q0 100 58 157.5t141 57.5q61 0 101.5 -29.5t49.5 -82.5h-4q-23 18 -68 18z" />
    <glyph glyph-name="colon" unicode=":" horiz-adv-x="423" 
d="M412 766q0 -55 -39.5 -94t-93.5 -39q-56 0 -95 39t-39 94q0 57 39 96t95 39q55 0 94 -39.5t39 -95.5zM250 117q0 -55 -39.5 -94t-93.5 -39q-55 0 -94 39t-39 94q0 57 38.5 96t94.5 39q55 0 94 -39t39 -96z" />
    <glyph glyph-name="semicolon" unicode=";" horiz-adv-x="423" 
d="M412 766q0 -55 -39.5 -94t-93.5 -39q-56 0 -95 39t-39 94q0 57 39 96t95 39q55 0 94 -39.5t39 -95.5zM166 31q-38 -23 -74 -23q-48 0 -75 30t-27 73q0 56 39.5 92.5t97.5 36.5q62 0 96.5 -43.5t34.5 -110.5q0 -146 -115.5 -238.5t-279.5 -97.5l6 31q129 12 210.5 81.5
t86.5 168.5z" />
    <glyph glyph-name="less" unicode="&#x3c;" horiz-adv-x="636" 
d="M82 641l6 29l600 305l-14 -68l-514 -256l383 -256l-13 -57z" />
    <glyph glyph-name="equal" unicode="=" horiz-adv-x="909" 
d="M158 756l12 53h723l-12 -53h-723zM98 516l13 53h723l-13 -53h-723z" />
    <glyph glyph-name="greater" unicode="&#x3e;" horiz-adv-x="636" 
d="M635 670l-6 -29l-600 -303l16 65l512 256l-385 256l14 60z" />
    <glyph glyph-name="question" unicode="?" horiz-adv-x="892" 
d="M590 1413q-107 0 -172.5 -68.5t-65.5 -181.5q0 -50 24.5 -81t63.5 -31q45 0 76 22h2q-60 -117 -168 -117q-65 0 -109 49.5t-44 120.5q0 102 59.5 178.5t147.5 113t186 36.5q172 0 273.5 -99t101.5 -247q0 -198 -142.5 -331t-369.5 -171l-50 -196h-45l93 362
q78 11 144 38.5t120 72.5t85 115.5t31 160.5q0 124 -64.5 189t-176.5 65zM309 252q56 0 94.5 -39t38.5 -96q0 -55 -39 -94t-94 -39q-54 0 -92.5 39t-38.5 94q0 57 38.5 96t92.5 39z" />
    <glyph glyph-name="at" unicode="@" horiz-adv-x="1601" 
d="M1262 936l-189 -598q-20 -59 -20 -102q0 -84 88 -84q41 0 88.5 29.5t93.5 88t83 135.5t60 181t23 215q0 245 -137.5 381.5t-366.5 136.5q-121 0 -241 -52t-219.5 -146t-176.5 -215.5t-120.5 -270t-43.5 -299.5q0 -286 156.5 -450.5t417.5 -164.5q172 0 308 47t271 158
l6 -10q-240 -252 -602 -252q-203 0 -357.5 78t-241.5 230.5t-87 359.5q0 200 77 391t203.5 332t299 227t354.5 86q268 0 430 -149.5t162 -423.5q0 -130 -30 -246t-78.5 -197.5t-109.5 -141.5t-123 -89t-118 -29q-89 0 -135.5 53.5t-46.5 155.5q-107 -209 -268 -209
q-100 0 -161.5 70t-61.5 192q0 107 39 214t101 188t145 131.5t167 50.5q82 0 131 -48.5t55 -117.5q29 47 82 97t93 67zM971 463l47 158q26 79 26 139q0 65 -31 98t-81 33q-63 0 -125 -52.5t-107 -132.5t-73 -176t-29 -182q0 -86 32.5 -137t92.5 -51q81 0 143.5 80.5
t104.5 222.5z" />
    <glyph glyph-name="A" unicode="A" horiz-adv-x="1243" 
d="M815 535l-70 608l-389 -608h459zM197 4v-4h-322v4q72 39 118.5 91.5t115.5 160.5l763 1198h9l141 -1223q13 -107 28.5 -147.5t67.5 -79.5v-4h-399v4q77 32 105 68t28 100q0 15 -4 51l-29 260h-495l-129 -204q-64 -99 -64 -168q0 -72 66 -107z" />
    <glyph glyph-name="B" unicode="B" horiz-adv-x="1136" 
d="M446 0h-505v4q79 29 116 84t64 164l233 930q19 81 19 127q0 84 -76 121v4h453q190 0 296.5 -68.5t106.5 -210.5q0 -91 -36 -167t-98 -128t-142.5 -83.5t-171.5 -41.5q92 -6 167.5 -36.5t127 -94t51.5 -151.5q0 -207 -169 -330t-436 -123zM420 754h135q178 0 296 112
t118 293q0 107 -65.5 166t-188.5 59h-140zM244 49h182q196 0 317 115t121 309q0 232 -293 232h-163z" />
    <glyph glyph-name="C" unicode="C" horiz-adv-x="1107" 
d="M838 1407q-91 0 -176.5 -55t-151.5 -148t-116 -210t-76.5 -247t-26.5 -253q0 -195 83.5 -305.5t225.5 -110.5q137 0 244.5 76t202.5 254l12 -2q-75 -199 -211 -314t-311 -115q-200 0 -320.5 144.5t-120.5 374.5q0 140 37.5 281t107 261t160 214.5t203.5 148t230 53.5
q63 0 117 -18.5t93.5 -37t67.5 -18.5q32 0 63 19t52 43l-88 -461h-6q-12 93 -34 167t-57 134t-87 92.5t-117 32.5z" />
    <glyph glyph-name="D" unicode="D" horiz-adv-x="1267" 
d="M-59 0v4q79 29 116 84t64 164l233 930q21 89 21 127q0 83 -78 121v4h416q259 0 411 -142t152 -377q0 -190 -64.5 -358.5t-177.5 -291t-275 -194t-349 -71.5h-469zM244 51h164q124 0 233 48t189 131.5t137.5 195t86.5 241.5t29 267q0 217 -96.5 332.5t-290.5 115.5h-118z
" />
    <glyph glyph-name="E" unicode="E" horiz-adv-x="1114" 
d="M297 1434h778q75 0 107 14l-27 -350h-4q-21 78 -45.5 128t-65 87.5t-99.5 54t-144 16.5h-222l-155 -630h155q125 0 190.5 42.5t154.5 184.5h4l-117 -471h-4q-6 48 -14 80t-23 54.5t-29.5 34.5t-43.5 18.5t-55.5 8t-74.5 1.5h-155l-164 -658h229q119 0 213 38.5t168 108
t160 187.5h4l-148 -383h-929v4q79 29 116 84t64 164l233 930q19 81 19 127q0 84 -76 121v4z" />
    <glyph glyph-name="F" unicode="F" horiz-adv-x="1038" 
d="M406 692l-115 -452q-17 -70 -17 -103q0 -46 26.5 -76.5t90.5 -56.5v-4h-450v4q79 29 116 84t64 164l233 930q19 81 19 127q0 84 -76 121v4h766q75 0 104 14l-28 -365h-4q-16 66 -34 110.5t-45 83t-64.5 61t-90.5 34.5t-125 12h-198l-162 -645h149q125 0 190 43t154 185h4
l-116 -471h-4q-6 48 -14 80t-23 54.5t-29.5 34.5t-44 18t-55.5 7.5t-74 1.5h-147z" />
    <glyph glyph-name="G" unicode="G" horiz-adv-x="1234" 
d="M907 350l21 72q20 82 20 123q0 82 -76 125v4h381v-4q-64 -29 -96.5 -84t-60.5 -164l-115 -442h-4l-90 223q-60 -105 -152 -164t-207 -59q-196 0 -315 137t-119 362q0 186 64 366t168 313t241.5 214.5t278.5 81.5q65 0 122.5 -19t99.5 -38t69 -19q58 0 114 60l-88 -461h-6
q-12 93 -35.5 168t-60 135.5t-91 93.5t-122.5 33q-92 0 -180 -58t-156 -156t-120 -221t-79.5 -260t-27.5 -266q0 -183 72 -286t204 -103q123 0 216.5 75.5t129.5 217.5z" />
    <glyph glyph-name="H" unicode="H" horiz-adv-x="1347" 
d="M352 4v-4h-411v4q79 29 116 84t64 164l233 930q19 81 19 127q0 84 -76 121v4h412v-4q-79 -29 -117 -84.5t-64 -163.5l-106 -426h633l106 426q19 81 19 127q0 84 -76 121v4h412v-4q-79 -29 -117 -84.5t-64 -163.5l-233 -930q-21 -86 -21 -125q0 -45 18 -74t60 -49v-4h-411
v4q79 29 116 84t64 164l112 450h-632l-113 -450q-21 -86 -21 -125q0 -45 18 -74t60 -49z" />
    <glyph glyph-name="I" unicode="I" horiz-adv-x="540" 
d="M297 1434h412v-4q-79 -29 -117 -84.5t-64 -163.5l-233 -930q-21 -86 -21 -125q0 -85 78 -123v-4h-411v4q79 29 116 84t64 164l233 930q21 89 21 127q0 83 -78 121v4z" />
    <glyph glyph-name="J" unicode="J" horiz-adv-x="958" 
d="M594 360l205 822q20 82 20 125q0 85 -78 123v4h412v-4q-78 -29 -115 -84t-65 -164l-199 -797q-50 -195 -168 -300t-291 -105q-148 0 -239.5 71t-91.5 185q0 105 65.5 166t153.5 61q46 0 80.5 -17.5t50.5 -44.5q-84 -3 -134 -58.5t-50 -139.5q0 -80 45 -132.5t124 -52.5
q57 0 101 24t76 72.5t54.5 106.5t43.5 139z" />
    <glyph glyph-name="K" unicode="K" horiz-adv-x="1230" 
d="M352 4v-4h-411v4q79 29 116 84t64 164l233 930q21 89 21 127q0 83 -78 121v4h412v-4q-79 -29 -117 -84.5t-64 -163.5l-131 -523l645 588q58 55 58 101q0 55 -68 82v4h400v-4q-105 -34 -184 -85t-163 -128l-426 -381l285 -613q45 -96 83 -144.5t97 -74.5v-4h-403v4
q74 38 74 94q0 25 -25 80l-246 537l-147 -135l-82 -328q-21 -86 -21 -125q0 -85 78 -123z" />
    <glyph glyph-name="L" unicode="L" horiz-adv-x="1064" 
d="M528 1182l-282 -1131h227q90 0 159.5 20.5t133 69.5t116 109.5t124.5 161.5h4l-152 -412h-917v4q79 29 116 84t64 164l233 930q21 89 21 127q0 83 -78 121v4h412v-4q-79 -29 -117 -84.5t-64 -163.5z" />
    <glyph glyph-name="M" unicode="M" horiz-adv-x="1540" 
d="M440 1292l-254 -1011q-14 -60 -14 -111q0 -122 100 -166v-4h-368v4q86 32 141 98.5t84 180.5l225 905q19 71 19 112q0 92 -84 130v4h309l133 -1133l676 1133h301v-4q-79 -29 -116.5 -84t-65.5 -164l-232 -926q-16 -72 -16 -115q0 -50 20.5 -82.5t65.5 -54.5v-4h-430v4
q81 30 123.5 88.5t68.5 163.5l263 1049l-785 -1328h-6z" />
    <glyph glyph-name="N" unicode="N" horiz-adv-x="1282" 
d="M1006 346l202 809q15 62 15 109q0 120 -101 166v4h369l-2 -4q-85 -32 -140 -98t-85 -181l-291 -1169h-6l-531 1302l-250 -1003q-14 -60 -14 -111q0 -122 100 -166v-4h-368v4q86 32 141 98.5t84 180.5l225 905q19 71 19 112q0 92 -84 130v4h276z" />
    <glyph glyph-name="O" unicode="O" horiz-adv-x="1263" 
d="M98 504q0 178 59 351t156.5 305t233.5 213t282 81q204 0 324.5 -144t120.5 -378q0 -178 -59 -351.5t-156.5 -305.5t-233.5 -213.5t-282 -81.5q-204 0 -324.5 144.5t-120.5 379.5zM283 397q0 -163 66.5 -266.5t193.5 -103.5q103 0 194.5 75.5t158 197.5t118.5 288
q76 239 76 448q0 165 -67 268t-194 103q-103 0 -194.5 -75.5t-158 -197.5t-118.5 -288q-75 -236 -75 -449z" />
    <glyph glyph-name="P" unicode="P" horiz-adv-x="1118" 
d="M-59 0v4q79 29 116 84t64 164l233 930q19 81 19 127q0 84 -76 121v4h489q199 0 313.5 -86t114.5 -244q0 -123 -51.5 -221t-139.5 -159.5t-199.5 -93.5t-235.5 -32h-207l-90 -358q-17 -70 -17 -103q0 -46 26.5 -76.5t90.5 -56.5v-4h-450zM395 649h172q204 0 329.5 127.5
t125.5 329.5q0 276 -283 276h-161z" />
    <glyph glyph-name="Q" unicode="Q" horiz-adv-x="1263" 
d="M954 -248q-40 0 -73 15.5t-55 37.5t-42.5 60t-33 69t-27.5 78q-91 -32 -180 -32q-204 0 -324.5 144.5t-120.5 379.5q0 178 59 351t156.5 305t233.5 213t282 81q204 0 324.5 -144t120.5 -378q0 -264 -120.5 -502.5t-311.5 -359.5q41 -84 83 -128t107 -44q96 0 139 94h7
q-15 -116 -72.5 -178t-151.5 -62zM283 397q0 -164 63 -264q19 91 81.5 147t145.5 56q80 0 131 -46.5t93 -129.5q126 140 217 428q76 239 76 448q0 165 -67 268t-194 103q-103 0 -194.5 -75.5t-158 -197.5t-118.5 -288q-75 -236 -75 -449zM543 27q86 0 159 49
q-34 97 -70 147.5t-97 50.5q-63 0 -110.5 -44t-57.5 -124q69 -79 176 -79z" />
    <glyph glyph-name="R" unicode="R" horiz-adv-x="1212" 
d="M578 1382l-164 -657h176q191 0 313.5 104.5t122.5 298.5q0 254 -274 254h-174zM399 674l-104 -422q-21 -86 -21 -125q0 -45 18 -74t60 -49v-4h-411v4q79 29 116 84t64 164l233 930q21 89 21 127q0 83 -78 121v4h491q195 0 313 -79t118 -231q0 -82 -30 -152.5t-80.5 -120
t-117.5 -85.5t-141 -54.5t-152 -21.5q244 -34 256 -258q2 -25 4.5 -96.5t4.5 -93.5q6 -101 40 -152.5t115 -85.5v-4h-291q-35 78 -41 203q-2 19 -2 111.5t-2 117.5q-8 120 -56 181t-163 61h-164z" />
    <glyph glyph-name="S" unicode="S" horiz-adv-x="1013" 
d="M995 1018q-13 85 -34.5 150.5t-57 123t-92 88.5t-131.5 31q-135 0 -210 -86.5t-75 -212.5q0 -69 28.5 -124.5t74 -93.5t100.5 -72t110 -69t100.5 -75.5t74 -100.5t28.5 -135q0 -137 -66 -244t-174.5 -162.5t-238.5 -55.5q-74 0 -142.5 17t-117 34.5t-74.5 17.5
q-54 0 -118 -55l81 467h5q31 -206 124.5 -321t241.5 -115q78 0 139 28t98.5 76t56.5 107.5t19 125.5q0 68 -28 122t-73 90.5t-99.5 69.5t-108.5 68t-99 75.5t-73 101.5t-28 137q0 190 126.5 309t317.5 119q73 0 136 -16t106.5 -31.5t68.5 -15.5q52 0 105 49l-97 -422h-4z
" />
    <glyph glyph-name="T" unicode="T" horiz-adv-x="1263" 
d="M410 1434h905q71 0 100 14l-53 -420h-4q-13 68 -24.5 113t-29 89.5t-39.5 71t-54.5 48t-76 30.5t-100.5 9h-96l-289 -1153q-16 -69 -16 -107q0 -47 21 -75.5t67 -49.5v-4h-428v4q81 30 120 80t64 152l287 1153h-92q-66 0 -121 -15t-99 -40t-93 -74t-89 -99t-100 -133h-4
l149 420q23 -14 95 -14z" />
    <glyph glyph-name="U" unicode="U" horiz-adv-x="1228" 
d="M1241 1167l-170 -682q-123 -505 -528 -505q-192 0 -302 100.5t-110 269.5q0 61 19 142l174 690q20 82 20 125q0 45 -19 74t-61 49v4h412v-4q-78 -29 -115 -84t-65 -164l-170 -682q-21 -80 -21 -148q0 -132 73.5 -207t205.5 -75q169 0 273.5 106.5t156.5 317.5l170 675
q14 60 14 111q0 110 -94 150v4h346v-4q-83 -31 -132 -92.5t-77 -170.5z" />
    <glyph glyph-name="V" unicode="V" horiz-adv-x="1239" 
d="M457 -20l-123 1222q-14 111 -28 151t-66 77v4h389v-4q-78 -32 -105.5 -70.5t-27.5 -110.5q0 -23 2 -37l90 -929l565 872q66 105 66 172q0 66 -66 103v4h317v-4q-73 -39 -120.5 -91.5t-116.5 -160.5l-768 -1198h-8z" />
    <glyph glyph-name="W" unicode="W" horiz-adv-x="1685" 
d="M983 -20l-20 1040l-570 -1040h-10l-51 1228q-3 100 -19 141.5t-69 80.5v4h391v-4q-77 -27 -104 -65t-29 -116v-39l35 -852l424 762l-3 88q-1 97 -18 139.5t-70 82.5v4h385v-4q-76 -27 -102 -64t-31 -117v-41l13 -870l481 829q57 96 57 160q0 68 -69 103v4h325v-4
q-76 -40 -126 -92.5t-109 -153.5l-699 -1204h-12z" />
    <glyph glyph-name="X" unicode="X" horiz-adv-x="1247" 
d="M213 4v-4h-330v4q82 37 146 88t141 137l442 504l-176 477q-31 88 -60 137t-79 83v4h371v-4q-74 -43 -74 -121q0 -37 14 -78l144 -389l311 368q65 77 65 136q0 47 -45 84v4h330v-4q-84 -38 -148 -89t-137 -137l-358 -413l209 -568q33 -90 61.5 -138t77.5 -81v-4h-373v4
q78 44 78 123q0 33 -16 76l-176 479l-393 -457q-66 -85 -66 -139q0 -44 41 -82z" />
    <glyph glyph-name="Y" unicode="Y" horiz-adv-x="1159" 
d="M1393 1434v-4q-66 -37 -108 -78.5t-107 -124.5l-490 -629l-90 -362q-18 -64 -18 -107q0 -47 21 -75.5t67 -49.5v-4h-420v4q81 30 120 80t64 152l90 362l-176 629q-27 86 -47.5 125.5t-65.5 77.5v4h365v-4q-48 -23 -72 -54.5t-24 -79.5q0 -30 8 -61l160 -576l430 553
q53 71 53 125q0 58 -66 93v4h306z" />
    <glyph glyph-name="Z" unicode="Z" horiz-adv-x="1134" 
d="M872 0h-950v4l1131 1382h-260q-48 0 -89.5 -4.5t-79 -17t-67 -25t-62 -37.5t-56 -45t-57.5 -58.5t-57 -66t-63 -77.5h-4l141 393q21 -14 93 -14h800v-4l-1126 -1381h246q92 0 162.5 13t126.5 37t110.5 71.5t101 102t111.5 143.5h4z" />
    <glyph glyph-name="bracketleft" unicode="[" horiz-adv-x="561" 
d="M-29 -252l447 1786h377v-8l-252 -60l-412 -1648l221 -62v-8h-381z" />
    <glyph glyph-name="backslash" unicode="\" horiz-adv-x="702" 
d="M352 1534l156 -1786h-51l-156 1786h51z" />
    <glyph glyph-name="bracketright" unicode="]" horiz-adv-x="561" 
d="M659 1534l-446 -1786h-377v8l252 60l412 1648l-221 62v8h380z" />
    <glyph glyph-name="asciicircum" unicode="^" horiz-adv-x="815" 
d="M641 1454h8l168 -610h-63l-136 489l-378 -489h-72z" />
    <glyph glyph-name="underscore" unicode="_" horiz-adv-x="577" 
d="M-109 -199l15 58h446l-16 -58h-445z" />
    <glyph glyph-name="grave" unicode="`" horiz-adv-x="1024" 
d="M774 1505q-25 -204 33 -372h-6q-89 89 -138.5 178.5t-62.5 193.5h174z" />
    <glyph glyph-name="a" unicode="a" horiz-adv-x="1001" 
d="M887 657l-119 -489q-19 -75 32.5 -99t129.5 23l2 -4q-87 -108 -197 -108q-63 0 -102 38t-39 109q0 38 16 94q-129 -241 -315 -241q-122 0 -192 90.5t-70 246.5q0 170 68.5 332t186 264.5t249.5 102.5q101 0 157 -61t66 -158q33 77 95.5 135.5t135.5 83.5
q-67 -194 -104 -359zM358 59q88 0 175 101t126 258l48 190q20 79 20 144q0 94 -44 143t-112 49q-73 0 -141.5 -60t-116 -154t-76 -210.5t-28.5 -228.5q0 -110 37 -171t112 -61z" />
    <glyph glyph-name="b" unicode="b" horiz-adv-x="1007" 
d="M571 1534l-190 -762q137 244 330 244q123 0 192.5 -91.5t69.5 -250.5q0 -171 -66.5 -331t-183 -261.5t-250.5 -101.5q-100 0 -167.5 63.5t-78.5 153.5q-28 -67 -91 -125.5t-134 -91.5q46 135 115 407l233 940q12 49 12 80q0 43 -21.5 69.5t-68.5 53.5v4h299zM797 702
q0 109 -37.5 172.5t-116.5 63.5q-92 0 -183 -101t-128 -259l-45 -189q-19 -69 -19 -135q0 -99 46.5 -150t119.5 -51q99 0 184.5 98.5t132 247.5t46.5 303z" />
    <glyph glyph-name="c" unicode="c" horiz-adv-x="790" 
d="M578 1016q106 0 169.5 -55.5t63.5 -143.5q0 -78 -51 -128t-125 -50q-46 0 -80 26.5t-37 69.5q24 -14 51 -14q54 0 85.5 35t31.5 100q0 57 -28 88t-80 31q-93 0 -179.5 -97.5t-136 -240.5t-49.5 -279q0 -146 53.5 -221.5t151.5 -75.5q85 0 152 50.5t126 146.5h11
q-48 -134 -143.5 -206t-211.5 -72q-140 0 -227.5 100.5t-87.5 269.5q0 96 27.5 193.5t78 181.5t116.5 149.5t149 103.5t170 38z" />
    <glyph glyph-name="d" unicode="d" horiz-adv-x="1021" 
d="M303 -20q-124 0 -197 91t-73 246q0 171 68.5 332.5t186.5 264t251 102.5q100 0 157.5 -65.5t67.5 -168.5l133 545q10 52 10 80q0 42 -21.5 69.5t-68.5 53.5v4h301l-336 -1366q-6 -18 -6 -35q0 -34 20 -53t54 -19q37 0 94 31l2 -4q-87 -108 -198 -108q-64 0 -102 38.5
t-38 106.5q0 30 19 98q-133 -243 -324 -243zM209 291q0 -232 162 -232q91 0 175.5 98t125.5 257l49 190q18 74 18 133q0 98 -48.5 152.5t-119.5 54.5q-74 0 -142.5 -60.5t-116 -154.5t-75.5 -210.5t-28 -227.5z" />
    <glyph glyph-name="e" unicode="e" horiz-adv-x="815" 
d="M360 -20q-147 0 -235 98.5t-88 269.5q0 160 74 314t204 254t277 100q109 0 173 -55t64 -144q0 -83 -47 -147.5t-131 -106.5t-191 -66t-237 -32q-12 -67 -12 -131q0 -140 55.5 -208.5t159.5 -68.5q168 0 299 193h10q-54 -131 -154.5 -200.5t-220.5 -69.5zM590 975
q-77 0 -153 -71t-130 -180t-80 -232q97 13 177.5 41.5t143.5 73t98.5 110t35.5 145.5q0 53 -23 83t-69 30z" />
    <glyph glyph-name="f" unicode="f" horiz-adv-x="526" 
d="M467 1176l-33 -181h217l-24 -53h-203l-242 -987q-51 -217 -139.5 -322.5t-245.5 -115.5v4q32 18 59.5 47t51 75.5t41 88t37.5 113.5t32 121t33 138l191 838h-138l5 14l145 43l31 113q57 203 162 315.5t249 112.5q94 0 152.5 -40t58.5 -109q0 -63 -42.5 -102.5
t-104.5 -39.5q-35 0 -62.5 15.5t-38.5 38.5q51 6 79 38t28 82q0 84 -82 84q-81 0 -133 -82t-84 -249z" />
    <glyph glyph-name="g" unicode="g" horiz-adv-x="944" 
d="M670 823q0 158 -113 158q-84 0 -146 -88t-89 -213q-17 -80 -17 -133q0 -158 113 -158q85 0 147.5 87.5t89.5 213.5q15 84 15 133zM799 -68q0 -117 -77 -212t-202 -146t-270 -51q-76 0 -146.5 15.5t-129 45t-93.5 79t-35 112.5q0 101 91.5 166.5t228.5 74.5
q-61 11 -101 52.5t-40 107.5q0 83 63 144.5t150 85.5q-103 76 -103 212q0 75 30 146t83.5 127.5t135 90.5t177.5 34q134 0 211 -84q38 70 91.5 114t113.5 44q55 0 84 -28t29 -71q0 -64 -43.5 -100t-106.5 -43v4q27 24 27 63q0 26 -17.5 42t-48.5 16q-63 0 -113 -60
q54 -69 54 -161q0 -76 -30 -147.5t-83.5 -128t-134.5 -90.5t-176 -34q-92 0 -156 39q-48 -19 -79 -53t-31 -80q0 -44 30 -68t84 -26l240 -4q136 -2 214.5 -60t78.5 -168zM436 2l-157 4q-121 0 -196 -64t-75 -175q0 -97 69 -150t187 -53q162 0 269.5 82.5t107.5 210.5
q0 76 -50 109.5t-155 35.5z" />
    <glyph glyph-name="h" unicode="h" horiz-adv-x="999" 
d="M319 530l-133 -530h-168l330 1327q10 52 10 80q0 42 -21.5 69.5t-68.5 53.5v4h301l-200 -799q68 128 162 204.5t202 76.5q88 0 136.5 -54t48.5 -143q0 -39 -13 -96l-139 -555q-4 -24 -4 -35q0 -33 19.5 -52.5t52.5 -19.5q40 0 94 31l2 -4q-87 -108 -197 -108
q-65 0 -104 37t-39 102q0 30 8 61l135 535q12 53 12 96q0 100 -98 100q-94 0 -187.5 -95.5t-140.5 -285.5z" />
    <glyph glyph-name="i" unicode="i" horiz-adv-x="481" 
d="M289 1321q0 54 36.5 91.5t90.5 37.5q52 0 83 -31.5t31 -79.5q0 -55 -36 -92t-91 -37q-52 0 -83 31.5t-31 79.5zM438 995l-207 -827q-4 -24 -4 -35q0 -33 19.5 -52.5t52.5 -19.5q40 0 94 31l2 -4q-87 -108 -196 -108q-65 0 -104.5 37t-39.5 102q0 30 8 61l152 608
q12 44 12 74q0 79 -84 129v4h295z" />
    <glyph glyph-name="j" unicode="j" horiz-adv-x="446" 
d="M293 1321q0 54 36.5 91.5t90.5 37.5q52 0 83.5 -31.5t31.5 -79.5q0 -55 -36 -92t-91 -37q-52 0 -83.5 31.5t-31.5 79.5zM440 995l-233 -925q-75 -303 -167.5 -427t-240.5 -124q-99 0 -161 44t-62 120q0 68 47 109.5t119 41.5q59 0 88 -29q-53 -13 -81 -52.5t-28 -96.5
q0 -46 22.5 -73t63.5 -27q65 0 103 77t88 277l219 878q12 44 12 74q0 79 -84 129v4h295z" />
    <glyph glyph-name="k" unicode="k" horiz-adv-x="972" 
d="M575 1534l-217 -860q79 155 186 248.5t226 93.5q86 0 137 -51.5t51 -135.5q0 -142 -107 -233.5t-280 -122.5l113 -313q38 -97 117 -97q43 0 96 35l2 -4q-78 -114 -203 -114q-64 0 -104 34t-64 103l-135 393q40 -18 94 -18q120 0 216 92t96 223q0 57 -27 89t-78 32
q-45 0 -100 -33.5t-110.5 -93t-105 -155t-77.5 -206.5l-108 -440h-173l332 1327q10 39 10 80q0 42 -21 69t-67 54v4h301z" />
    <glyph glyph-name="l" unicode="l" horiz-adv-x="466" 
d="M57 180l285 1147q12 62 12 80q0 42 -22 69t-70 54v4h301l-338 -1366q-4 -24 -4 -35q0 -33 19.5 -52.5t52.5 -19.5q40 0 94 31l2 -4q-87 -108 -196 -108q-65 0 -104.5 37t-39.5 102q0 30 8 61z" />
    <glyph glyph-name="m" unicode="m" horiz-adv-x="1517" 
d="M1421 723l-137 -555q-6 -18 -6 -35q0 -34 20 -53t54 -19q37 0 94 31l2 -4q-87 -108 -199 -108q-64 0 -102.5 37t-38.5 102q0 30 8 61l133 539q17 63 17 100q0 92 -92 92q-94 0 -184 -93.5t-138 -280.5l-133 -537h-168l180 719q14 61 14 94q0 98 -96 98q-43 0 -87.5 -21.5
t-88.5 -65t-82.5 -119t-62.5 -173.5l-131 -532h-172l196 788q10 36 10 74q0 43 -19.5 73.5t-61.5 55.5v4h292l-65 -262q69 130 160 206.5t198 76.5q86 0 132 -51.5t46 -137.5q0 -46 -14 -92q69 128 161 204.5t197 76.5q87 0 133 -52t46 -139q0 -47 -15 -102z" />
    <glyph glyph-name="n" unicode="n" horiz-adv-x="1009" 
d="M328 532l-131 -532h-172l196 788q10 36 10 74q0 43 -19.5 73.5t-61.5 55.5v4h292l-63 -260q68 128 161 204.5t201 76.5q88 0 136.5 -54t48.5 -143q0 -51 -13 -96l-139 -555q-4 -24 -4 -35q0 -33 19.5 -52.5t52.5 -19.5q40 0 94 31l2 -4q-87 -108 -197 -108q-65 0 -104 37
t-39 102q0 30 8 61l135 535q13 57 13 96q0 100 -99 100q-44 0 -89 -21.5t-90 -65t-84.5 -119t-63.5 -173.5z" />
    <glyph glyph-name="o" unicode="o" horiz-adv-x="927" 
d="M39 350q0 120 40.5 240t108.5 214t166 153t205 59q148 0 239 -100t91 -271q0 -120 -40.5 -239.5t-109 -213.5t-167 -153t-205.5 -59q-148 0 -238 100t-90 270zM711 702q0 131 -35.5 202t-118.5 71q-64 0 -126 -63t-107.5 -159t-73.5 -210q-33 -139 -33 -248
q0 -275 154 -275q94 0 177 127t128 306q35 131 35 249z" />
    <glyph glyph-name="p" unicode="p" horiz-adv-x="1009" 
d="M799 702q0 109 -38 172.5t-116 63.5q-92 0 -182 -101t-129 -259l-47 -187q-17 -69 -17 -129q0 -100 49 -153.5t121 -53.5q97 0 181 98t131 246.5t47 302.5zM246 215l-168 -676h-168l311 1249q10 48 10 74q0 79 -81 129v4h290l-59 -223q61 110 144.5 177t187.5 67
q122 0 191 -91.5t69 -250.5q0 -171 -66.5 -331t-182 -261.5t-247.5 -101.5q-102 0 -162.5 66t-68.5 169z" />
    <glyph glyph-name="q" unicode="q" horiz-adv-x="989" 
d="M539 1016q101 0 162.5 -62.5t70.5 -158.5q33 77 97 136.5t137 84.5q-56 -161 -105 -359l-283 -1118h-167l176 684q-133 -243 -324 -243q-123 0 -196.5 91t-73.5 246q0 171 68.5 332.5t186.5 264t251 102.5zM209 291q0 -232 162 -232q90 0 176 99.5t127 257.5l47 190
q18 77 18 133q0 99 -47.5 152t-118.5 53q-99 0 -184.5 -101t-132.5 -250.5t-47 -301.5z" />
    <glyph glyph-name="r" unicode="r" horiz-adv-x="778" 
d="M604 729q39 5 64.5 33.5t25.5 71.5q0 67 -71 67q-54 0 -115.5 -61.5t-110.5 -153t-78 -190.5l-122 -496h-172l196 788q10 36 10 74q0 43 -19.5 73.5t-61.5 55.5v4h292l-77 -317q37 74 67 125t72 104.5t91 81t103 27.5q65 0 105.5 -38t40.5 -101q0 -78 -48.5 -126.5
t-119.5 -48.5q-45 0 -72 27z" />
    <glyph glyph-name="s" unicode="s" horiz-adv-x="778" 
d="M147 707q0 130 102 219.5t247 89.5q117 0 194.5 -49.5t77.5 -130.5q0 -59 -35 -96.5t-88 -37.5q-64 0 -92 41q34 3 57 34.5t23 80.5q0 58 -37.5 89.5t-108.5 31.5q-88 0 -144 -55t-56 -136q0 -59 32.5 -100.5t122.5 -105.5q62 -44 95.5 -70.5t67 -61.5t47.5 -70.5
t14 -78.5q0 -139 -110 -230t-267 -91q-131 0 -219 57.5t-88 148.5q0 64 39 104t96 40q56 0 92 -39q-38 -3 -62 -36t-24 -81q0 -73 46.5 -115.5t127.5 -42.5q96 0 158.5 60t62.5 151q0 56 -38.5 101.5t-129.5 105.5q-104 69 -153.5 127.5t-49.5 145.5z" />
    <glyph glyph-name="t" unicode="t" horiz-adv-x="587" 
d="M426 942l-184 -737q-4 -32 -4 -41q0 -45 26 -69.5t68 -24.5q43 0 92 25.5t92 74.5l4 -4q-118 -186 -295 -186q-78 0 -122 42.5t-44 114.5q0 27 7 62l186 743h-125l2 12q141 39 227.5 133t159.5 261h14l-92 -353h250l-22 -53h-240z" />
    <glyph glyph-name="u" unicode="u" horiz-adv-x="995" 
d="M920 88q-87 -108 -199 -108q-64 0 -101.5 38.5t-37.5 106.5q0 41 26 137q-71 -133 -155 -207.5t-191 -74.5q-90 0 -142 57.5t-52 150.5q0 42 12 91l129 509q10 48 10 76q0 76 -82 127v4h293l-182 -719q-12 -44 -12 -79q0 -113 106 -113q42 0 86 23t87 67.5t80.5 119.5
t61.5 171l134 530h170l-205 -827q-6 -18 -6 -35q0 -34 19.5 -53t53.5 -19q38 0 95 31z" />
    <glyph glyph-name="v" unicode="v" horiz-adv-x="911" 
d="M246 313q0 -114 44 -175.5t130 -61.5q73 0 141.5 55.5t116 140.5t76 187t28.5 196q0 103 -36.5 154t-102.5 51q-74 0 -108 -61v16q0 86 45.5 143.5t119.5 57.5q87 0 133 -69t46 -189q0 -100 -26.5 -209t-77 -209.5t-116.5 -181.5t-152 -129.5t-177 -48.5
q-122 0 -188 73.5t-66 196.5q0 64 22.5 132.5t74.5 155t94 146t124 170.5l-59 -4q-115 -8 -165 -29t-85 -86v10q0 108 43.5 181t116.5 73q33 0 88.5 -28t93.5 -35l43 72h41q-139 -261 -200.5 -414t-61.5 -281z" />
    <glyph glyph-name="w" unicode="w" horiz-adv-x="1368" 
d="M936 995l-164 -592q-29 -110 -29 -170q0 -82 36.5 -123.5t103.5 -41.5q95 0 179 94t130.5 233t46.5 277q0 92 -33.5 140t-95.5 48q-70 0 -106 -61v26q0 84 41.5 137.5t111.5 53.5q87 0 131.5 -69t44.5 -189q0 -127 -40.5 -265t-107 -251.5t-162 -187.5t-194.5 -74
q-107 0 -175.5 70t-71.5 179q-35 -106 -114.5 -177.5t-170.5 -71.5q-110 0 -172 74t-62 186q0 44 15 95.5t33 92t59 105t64.5 99t80 113t78.5 109.5l-61 -4q-117 -10 -166 -30t-84 -85v15q0 106 43 177.5t115 71.5q33 0 92.5 -28.5t95.5 -34.5l41 72h41
q-146 -270 -211.5 -423.5t-65.5 -277.5q0 -102 40.5 -155.5t109.5 -53.5q141 0 211 244l125 446q12 43 12 76q0 75 -84 127v4h289z" />
    <glyph glyph-name="x" unicode="x" horiz-adv-x="907" 
d="M608 -20q-140 0 -172 192l-39 252l-47 -94q-90 -186 -156.5 -268t-154.5 -82q-53 0 -86 35.5t-33 86.5q0 55 35 91t86 36q32 0 51 -14q-20 -5 -33.5 -21t-13.5 -40q0 -62 57 -62q50 0 102.5 69t123.5 204l59 116l-47 305q-11 68 -38.5 106t-68.5 38q-42 0 -100 -43v4
q36 56 90 91.5t115 35.5q135 0 162 -195l28 -182l19 37q44 90 75 144t69 102.5t77.5 70t85.5 21.5q52 0 85.5 -32.5t33.5 -80.5q0 -54 -35.5 -90.5t-87.5 -36.5q-26 0 -51 15q20 3 34.5 18.5t14.5 38.5q0 61 -57 61q-50 0 -104 -69t-120 -197l-30 -57l59 -369
q10 -76 40.5 -115t74.5 -39q46 0 104 43v-4q-82 -122 -207 -122z" />
    <glyph glyph-name="y" unicode="y" horiz-adv-x="968" 
d="M967 995l-234 -929q-33 -135 -77 -233t-106 -170t-145 -108t-188 -36q-134 0 -219.5 59t-85.5 156q0 68 43.5 109.5t107.5 41.5q52 0 99 -35q-40 -5 -67 -39.5t-27 -97.5q0 -72 41.5 -114.5t111.5 -42.5q55 0 100.5 24t79 64.5t64 109.5t53 142.5t49.5 181.5l45 184
q-35 -63 -69 -109.5t-77 -88t-94.5 -63t-109.5 -21.5q-90 0 -142 57.5t-52 150.5q0 42 12 91l129 509q10 48 10 76q0 76 -82 127v4h293l-182 -719q-12 -44 -12 -79q0 -113 102 -113q45 0 91 23t90 67.5t82.5 119.5t62.5 171l131 530h172z" />
    <glyph glyph-name="z" unicode="z" horiz-adv-x="870" 
d="M510 -27q-39 0 -77 18t-68 44.5t-62.5 57.5t-60 57.5t-62 44.5t-67.5 18q-32 0 -51 -18.5t-19 -55.5q0 -51 38.5 -69.5t94.5 4.5q-13 -39 -40.5 -64.5t-65.5 -25.5q-40 0 -69.5 31t-29.5 81q0 55 21.5 105t55 88.5t91.5 79.5t112 71.5t136 71.5q15 8 54.5 27t57 28
t53 27.5t54 29t48 27.5t47.5 30t38.5 28.5t35.5 30.5t26 30q-38 -20 -70 -20q-49 0 -112 23t-134 46t-141 23q-131 0 -192 -137h-7q23 145 93 228t163 83q46 0 87.5 -23t73.5 -56t62 -66.5t66 -56.5t74 -23q26 0 42.5 15t16.5 46q0 44 -37 65.5t-92 6.5q13 35 43 56t66 21
q38 0 64 -30t26 -78q0 -43 -15 -82.5t-45.5 -74t-66.5 -64t-89.5 -60.5t-102 -56.5t-115.5 -59.5l-58 -29q-142 -71 -222.5 -123.5t-115.5 -112.5q38 23 74 23q52 0 125 -27t153 -54.5t148 -27.5q60 0 113.5 35t79.5 105h8q-23 -154 -93.5 -233t-160.5 -79z" />
    <glyph glyph-name="braceleft" unicode="{" horiz-adv-x="653" 
d="M59 635l2 12q100 3 179 73.5t116 223.5q11 42 20 135t23 148q34 133 145.5 220t256.5 87q47 0 86 -8l-2 -8q-115 0 -206.5 -79t-125.5 -218q-10 -37 -20.5 -140t-22.5 -149q-18 -74 -59.5 -131.5t-91.5 -89.5t-93 -49t-80 -21q29 -3 59 -16t60.5 -36t50 -64t19.5 -93
q0 -48 -19.5 -112t-43 -117t-43 -120.5t-19.5 -123.5q0 -93 53.5 -144t145.5 -51l-3 -8q-39 -8 -90 -8q-122 0 -190 61.5t-68 163.5q0 56 19.5 122.5t43 118.5t43 119.5t19.5 125.5q0 169 -164 176z" />
    <glyph glyph-name="bar" unicode="|" horiz-adv-x="382" 
d="M-25 -252l447 1786h53l-444 -1786h-56z" />
    <glyph glyph-name="braceright" unicode="}" horiz-adv-x="653" 
d="M664 647l-2 -12q-100 -3 -179 -73.5t-116 -223.5q-11 -42 -20 -135t-23 -148q-34 -133 -145.5 -220t-256.5 -87q-47 0 -86 8l2 8q115 0 206.5 79t125.5 218q10 37 20.5 140t22.5 149q18 74 59.5 131.5t91.5 89.5t93 49t80 21q-29 3 -59 16t-60.5 36t-50 64t-19.5 93
q0 60 31 143.5t62.5 171.5t31.5 158q0 93 -53.5 144t-145.5 51l2 8q39 8 91 8q122 0 190 -61.5t68 -163.5q0 -56 -19.5 -122.5t-43 -118.5t-43 -119.5t-19.5 -125.5q0 -169 164 -176z" />
    <glyph glyph-name="asciitilde" unicode="~" horiz-adv-x="878" 
d="M88 504h-6q60 122 134 184t151 62q37 0 74.5 -16.5t63.5 -37t63 -37t73 -16.5q119 0 213 117h6q-62 -121 -134.5 -183.5t-147.5 -62.5q-38 0 -76 16t-64.5 36t-63.5 36t-73 16q-124 0 -213 -114z" />
    <glyph glyph-name="uni00A0" unicode="&#xa0;" horiz-adv-x="337" 
 />
    <glyph glyph-name="exclamdown" unicode="&#xa1;" horiz-adv-x="483" 
d="M229 1012q0 56 38.5 94.5t94.5 38.5t95 -39t39 -94q0 -57 -39 -96t-95 -39t-94.5 39t-38.5 96zM-88 -305l375 1018h10l-141 -1018h-244z" />
    <glyph glyph-name="cent" unicode="&#xa2;" horiz-adv-x="876" 
d="M227 369q0 -103 36 -175.5t99 -105.5l218 887q-95 -12 -178 -108.5t-129 -231t-46 -266.5zM397 -20h-24l-51 -213h-37l53 217q-128 22 -208.5 123.5t-80.5 252.5q0 118 41.5 234.5t112.5 208.5t173 150.5t214 62.5l49 205h37l-49 -205q116 -6 184 -65.5t68 -139.5
q0 -74 -46 -120t-110 -46q-45 0 -77.5 23.5t-35.5 62.5q28 -12 49 -12q45 0 73 33t28 92t-39.5 96t-104.5 37l-219 -903q42 -11 72 -11q90 0 162 49.5t137 145.5h10q-53 -134 -155 -206t-226 -72z" />
    <glyph glyph-name="sterling" unicode="&#xa3;" horiz-adv-x="1128" 
d="M754 -45q-54 0 -103 11t-96 36t-75 42.5t-78.5 55.5t-67.5 50q-126 -170 -266 -170q-66 0 -106 34.5t-40 94.5q0 73 55.5 117t137.5 44q71 0 161 -34q33 79 58 188q25 92 51 276h-186l10 37h180q26 197 45 271q52 202 193 324t338 122q130 0 205 -58.5t75 -148.5
q0 -98 -59.5 -151.5t-136.5 -53.5q-52 0 -90 21.5t-46 48.5q78 -8 132.5 39.5t54.5 138.5q0 60 -37.5 95.5t-99.5 35.5q-115 0 -192.5 -94.5t-119.5 -263.5l-82 -326h310l-9 -37h-309l-6 -24q-74 -295 -188 -477q61 -27 100 -41.5t102 -28.5t123 -14q108 0 175 52t67 136
q0 32 -19 59q49 -19 79 -57t30 -96q0 -117 -76.5 -185.5t-193.5 -68.5zM66 20q113 0 194 175q-74 41 -149 41q-63 0 -104.5 -35t-41.5 -95q0 -39 28 -62.5t73 -23.5z" />
    <glyph glyph-name="yen" unicode="&#xa5;" horiz-adv-x="1159" 
d="M668 4v-4h-418v4q81 30 120 80t64 152l74 290h-332l10 37h332l8 35l-28 104h-275l8 37h258l-131 488q-22 83 -43 123.5t-67 79.5v4h360v-4q-48 -23 -72 -54.5t-24 -79.5q0 -15 8 -61l150 -576l417 547q60 75 60 133q0 56 -62 91v4h297v-4q-66 -37 -108 -78.5t-107 -124.5
l-370 -488h254l-11 -37h-272l-80 -104l-8 -35h326l-11 -37h-325l-72 -290q-18 -68 -18 -109q0 -46 20.5 -74t67.5 -49z" />
    <glyph glyph-name="section" unicode="&#xa7;" horiz-adv-x="989" 
d="M311 530l256 -313q63 -77 82 -141q38 42 65.5 106t26.5 123q0 82 -63 156l-256 313q-59 69 -82 141q-38 -40 -65.5 -104t-26.5 -125q0 -79 63 -156zM240 -463q-128 0 -208.5 59.5t-80.5 149.5q0 81 50 127.5t122 46.5q66 0 98 -45q-54 -10 -90.5 -54t-36.5 -118
q0 -62 39.5 -97.5t110.5 -35.5q118 0 199 96.5t81 229.5q0 63 -23.5 111t-72.5 108l-223 264q-82 95 -82 209q0 103 60 196t151 150q-17 56 -17 106q0 111 60.5 207t160.5 151.5t212 55.5q128 0 208 -59.5t80 -149.5q0 -81 -50 -127.5t-122 -46.5q-66 0 -98 45
q54 10 90.5 54t36.5 118q0 62 -39.5 97.5t-110.5 35.5q-118 0 -199 -96t-81 -229q0 -63 24 -111t72 -106l223 -265q82 -98 82 -208q0 -104 -59.5 -197t-151.5 -152q17 -56 17 -106q0 -111 -60.5 -207t-160 -151.5t-211.5 -55.5z" />
    <glyph glyph-name="dieresis" unicode="&#xa8;" horiz-adv-x="1024" 
d="M877 1417q49 0 78.5 -29.5t29.5 -74.5q0 -51 -35.5 -87t-87.5 -36q-47 0 -76.5 29.5t-29.5 72.5q0 53 35 89t86 36zM559 1417q49 0 80 -29.5t31 -74.5q0 -51 -36 -87t-87 -36q-47 0 -78 29.5t-31 72.5q0 52 35.5 88.5t85.5 36.5z" />
    <glyph glyph-name="copyright" unicode="&#xa9;" horiz-adv-x="1452" 
d="M684 -20q-120 0 -224.5 44.5t-179.5 123.5t-118 192.5t-43 245.5q0 141 40.5 274t113.5 239t167 187t207.5 124.5t229.5 43.5q246 0 406.5 -169.5t160.5 -436.5q0 -175 -63.5 -337t-168 -277.5t-243.5 -184.5t-285 -69zM686 23q138 0 269.5 66t229 176t157 263t59.5 318
q0 249 -148.5 408t-375.5 159q-138 0 -269.5 -66t-229 -176t-157 -263.5t-59.5 -319.5q0 -248 148.5 -406.5t375.5 -158.5zM897 1130q-83 0 -155.5 -82t-113 -205.5t-40.5 -248.5q0 -114 51 -181t139 -67q78 0 140.5 42t117.5 140h6q-45 -121 -131.5 -190.5t-197.5 -69.5
q-129 0 -206 88.5t-79 229.5q0 145 60.5 276.5t168.5 214t234 82.5q48 0 99.5 -21.5t70.5 -21.5q42 0 74 41l-52 -289h-4q-17 117 -61.5 189.5t-120.5 72.5z" />
    <glyph glyph-name="ordfeminine" unicode="&#xaa;" horiz-adv-x="749" 
d="M788 1208l-79 -313q-2 -6 -2 -23q0 -21 12 -33t33 -12q26 0 63 21l2 -8q-66 -72 -139 -72q-46 0 -75.5 31t-29.5 82q0 15 9 49q-88 -162 -213 -162q-82 0 -130.5 61t-48.5 164q0 111 46.5 217t127.5 174t171 68q66 0 106.5 -40t48.5 -103q42 97 168 143
q-47 -126 -70 -244zM326 977q0 -141 96 -141q56 0 110.5 64.5t77.5 158.5l33 129q10 55 10 86q0 58 -26.5 91.5t-67.5 33.5q-62 0 -117.5 -69t-85.5 -166t-30 -187zM154 592l10 41h514l-10 -41h-514z" />
    <glyph glyph-name="guillemotleft" unicode="&#xab;" horiz-adv-x="808" 
d="M342 498v4q306 160 512 366h10q-132 -214 -303 -381q91 -171 121 -356h-12q-102 208 -328 367zM37 502q308 161 510 366h12q-142 -225 -305 -381q93 -167 121 -356h-10q-105 208 -328 367v4z" />
    <glyph glyph-name="registered" unicode="&#xae;" horiz-adv-x="927" 
d="M645 1454q152 0 247 -99t95 -259q0 -122 -61 -225t-159 -160.5t-208 -57.5q-151 0 -246.5 99t-95.5 260q0 122 61 225t159 160t208 57zM643 1423q-76 0 -148 -31.5t-126.5 -85t-87.5 -131t-33 -163.5q0 -146 86.5 -237t224.5 -91q159 0 278 119.5t119 292.5
q0 147 -86.5 237t-226.5 90zM598 1262l-51 -199h37q58 0 96.5 32.5t38.5 92.5q0 34 -22.5 54t-63.5 20h-35zM465 1284h213q64 0 101.5 -24.5t37.5 -75.5q0 -62 -51 -98.5t-119 -36.5v-5q42 -4 62 -24t22 -57l4 -54q1 -35 11.5 -48.5t41.5 -24.5v-9h-129q-13 31 -16 72l-2 74
q-2 37 -18.5 53t-57.5 16h-22l-33 -137q-7 -33 -2 -44.5t27 -24.5v-9h-179v9q29 12 40 25t20 44l76 301q7 35 1.5 47t-28.5 25v6z" />
    <glyph glyph-name="macron" unicode="&#xaf;" horiz-adv-x="1024" 
d="M938 1208h-500l19 72h497z" />
    <glyph glyph-name="degree" unicode="&#xb0;" horiz-adv-x="493" 
d="M225 1241q0 83 68 147t156 64q83 0 137.5 -55.5t54.5 -141.5q0 -84 -67 -148.5t-156 -64.5q-82 0 -137.5 56.5t-55.5 142.5zM274 1241q0 -64 42 -107.5t104 -43.5q68 0 120 49.5t52 113.5q0 66 -41.5 109t-104.5 43q-68 0 -120 -50t-52 -114z" />
    <glyph glyph-name="plusminus" unicode="&#xb1;" horiz-adv-x="899" 
d="M868 733h-336l-63 -254h-53l63 254h-332l13 51h332l63 252h53l-63 -252h336zM41 309l12 51h721l-12 -51h-721z" />
    <glyph glyph-name="twosuperior" unicode="&#xb2;" horiz-adv-x="548" 
d="M469 1409q-55 0 -89 -30.5t-34 -84.5q0 -61 51 -61q25 0 43 12h2q-39 -65 -108 -65q-38 0 -62 25t-24 63q0 80 68 127t155 47q86 0 141.5 -36.5t55.5 -105.5q0 -28 -8.5 -53.5t-20 -46t-37 -45t-44.5 -40.5t-59 -41.5t-64.5 -40t-76 -44.5t-79.5 -47h137q76 0 111 13
t79 63h10l-69 -178h-428v6q42 34 100 80.5t86.5 69t69 56.5t58.5 51.5t43 43.5t34.5 43t21 40.5t14.5 45t3 47.5q0 39 -21 62.5t-59 23.5z" />
    <glyph glyph-name="threesuperior" unicode="&#xb3;" horiz-adv-x="548" 
d="M334 1030q-28 0 -45 -23.5t-17 -54.5q0 -42 21.5 -67t60.5 -25q61 0 99.5 59t38.5 130q0 51 -27 74t-82 26v16q76 1 118 53.5t42 120.5q0 74 -64 74q-42 0 -69 -27t-27 -67q0 -43 35 -47q13 0 22 6l2 2q-25 -41 -82 -41q-34 0 -55.5 19t-21.5 51q0 62 58.5 97.5
t137.5 35.5q78 0 133.5 -34.5t55.5 -94.5q0 -66 -58 -107t-141 -49q65 -8 108.5 -43t43.5 -88q0 -49 -23.5 -87.5t-62 -61t-85 -34.5t-96.5 -12q-39 0 -79 11t-73.5 43t-33.5 78q0 48 32 78t79 30q30 0 52.5 -13t28.5 -38h-2q-7 10 -24 10z" />
    <glyph glyph-name="acute" unicode="&#xb4;" horiz-adv-x="1024" 
d="M700 1505h199q-65 -105 -155 -194.5t-218 -177.5h-8q121 151 182 372z" />
    <glyph glyph-name="paragraph" unicode="&#xb6;" horiz-adv-x="950" 
d="M948 1217l-332 -1334q-39 -159 -136.5 -261.5t-231.5 -102.5q-106 0 -177 51.5t-71 146.5q0 84 52.5 135.5t123.5 51.5q39 0 68 -21.5t32 -60.5h-2q-21 14 -49 14q-43 0 -70.5 -40.5t-27.5 -100.5q0 -57 39.5 -93t105.5 -36q103 0 184 92t113 225l375 1503h-80
l-280 -1122h-45l84 336q-120 0 -220 39.5t-162.5 119.5t-62.5 187q0 145 87 257t235 171.5t331 59.5h295l-2 -4q-60 -29 -88 -50t-49 -58t-39 -105z" />
    <glyph glyph-name="periodcentered" unicode="&#xb7;" horiz-adv-x="405" 
d="M348 549q0 -55 -39.5 -94t-93.5 -39q-55 0 -94 39t-39 94q0 57 38.5 96t94.5 39q55 0 94 -39t39 -96z" />
    <glyph glyph-name="cedilla" unicode="&#xb8;" horiz-adv-x="1024" 
d="M84 -346l16 12q39 -72 125 -72q62 0 99.5 41.5t37.5 108.5q0 48 -30 69.5t-92 24.5l125 178h36l-104 -149q80 3 136 -34.5t56 -102.5q0 -84 -68.5 -135.5t-158.5 -51.5q-69 0 -116.5 31t-61.5 80z" />
    <glyph glyph-name="onesuperior" unicode="&#xb9;" horiz-adv-x="399" 
d="M350 1346q9 36 -8 50t-80 25l2 13h238l-127 -506q-9 -37 7 -51.5t77 -24.5l-2 -12h-338l2 12q68 11 92 25t33 51z" />
    <glyph glyph-name="ordmasculine" unicode="&#xba;" horiz-adv-x="679" 
d="M555 1454q103 0 168 -68t65 -184q0 -107 -48 -208t-133 -165.5t-183 -64.5q-102 0 -165.5 67.5t-63.5 182.5q0 108 47 209t131 166t182 65zM426 799q59 0 111 77t86 199q26 107 26 176q0 166 -96 166q-59 0 -111 -76.5t-84 -197.5q-24 -99 -24 -176q-4 -168 92 -168z
M117 592l10 41h514l-10 -41h-514z" />
    <glyph glyph-name="guillemotright" unicode="&#xbb;" horiz-adv-x="808" 
d="M772 498q-310 -162 -512 -367h-10q128 210 303 381q-90 170 -121 356h12q52 -105 138.5 -199.5t189.5 -166.5v-4zM465 498q-311 -163 -510 -367h-12q137 220 305 381q-92 167 -121 356h10q53 -104 139.5 -198.5t188.5 -167.5v-4z" />
    <glyph glyph-name="onequarter" unicode="&#xbc;" horiz-adv-x="788" 
d="M430 928l105 418q9 36 -9 50t-82 25l2 13h238l-127 -506q-9 -37 7 -51.5t77 -24.5l-2 -12h-338l2 12q69 11 93.5 25t33.5 51zM805 733l-8 -33h-707l8 33h707zM293 188l80 318l-316 -318h236zM270 104l15 52h-291v4l434 440h94l-102 -412h26q37 0 55.5 11t43.5 47h8
l-37 -148h-8q-8 36 -20.5 47t-49.5 11h-26l-13 -52q-11 -41 -7 -60t28 -36v-8h-221v8q32 17 46.5 36t24.5 60z" />
    <glyph glyph-name="onehalf" unicode="&#xbd;" horiz-adv-x="788" 
d="M535 1346q9 36 -9 50t-82 25l2 13h238l-127 -506q-9 -37 7 -51.5t77 -24.5l-2 -12h-338l2 12q69 11 93.5 25t33.5 51zM805 733l-8 -33h-707l8 33h707zM195 102h137q76 0 111 13t79 63h10l-69 -178h-428l2 6q40 33 99.5 80.5t87 69.5t68.5 56.5t58.5 51t42.5 43t34.5 43.5
t20.5 40.5t14 45t3 47.5q0 39 -21 62.5t-59 23.5q-55 0 -89 -30t-34 -84q0 -62 51 -62q23 0 43 13h2q-40 -66 -108 -66q-38 0 -62 25t-24 63q0 80 68 127t155 47t142 -36t55 -105q0 -25 -5 -47t-18.5 -44t-26.5 -39t-39 -38t-44.5 -35.5t-55.5 -37.5t-59.5 -36t-69 -40
t-71.5 -42z" />
    <glyph glyph-name="threequarters" unicode="&#xbe;" horiz-adv-x="788" 
d="M446 1030q-28 0 -44.5 -23.5t-16.5 -54.5q0 -42 22 -67t62 -25q61 0 99 58.5t38 130.5q0 51 -27 74t-83 26v16q78 1 119.5 53.5t41.5 120.5q0 74 -65 74q-42 0 -69 -27t-27 -67q0 -44 34 -47q14 0 23 6l2 2q-25 -41 -80 -41q-34 0 -56 19t-22 51q0 62 58.5 97.5
t136.5 35.5t133 -34.5t55 -94.5q0 -67 -57.5 -107.5t-140.5 -48.5q65 -8 108 -43t43 -88q0 -94 -79 -144.5t-185 -50.5q-39 0 -79 11t-73.5 43t-33.5 78q0 48 31 78t77 30q30 0 53 -13t29 -38h-2q-7 10 -25 10zM805 733l-8 -33h-707l8 33h707zM57 188h236l80 318zM199 8
q32 17 46.5 36t24.5 60l15 52h-291v4l434 440h94l-102 -412h26q37 0 55.5 11t43.5 47h8l-37 -148h-8q-8 36 -20.5 47t-49.5 11h-26l-13 -52q-11 -41 -7 -60t28 -36v-8h-221v8z" />
    <glyph glyph-name="questiondown" unicode="&#xbf;" horiz-adv-x="892" 
d="M614 877q-56 0 -94.5 39t-38.5 96q0 56 38.5 94.5t94.5 38.5q54 0 92.5 -39t38.5 -94q0 -57 -38.5 -96t-92.5 -39zM334 -285q107 0 172 68.5t65 181.5q0 51 -24.5 82t-63.5 31q-43 0 -75 -23h-2q60 117 167 117q66 0 110 -49.5t44 -120.5q0 -102 -59.5 -178.5
t-147.5 -113t-186 -36.5q-172 0 -273.5 99t-101.5 247q0 198 142.5 331t369.5 171l49 197h45l-92 -363q-78 -11 -144 -38.5t-120.5 -72.5t-85.5 -115.5t-31 -160.5q0 -124 65 -189t177 -65z" />
    <glyph glyph-name="Agrave" unicode="&#xc0;" horiz-adv-x="1243" 
d="M928 1829q-7 -78 8.5 -147t54.5 -160h-6q-209 136 -250 307h193zM815 535l-70 608l-389 -608h459zM197 4v-4h-322v4q72 39 118.5 91.5t115.5 160.5l763 1198h9l141 -1223q13 -107 28.5 -147.5t67.5 -79.5v-4h-399v4q77 32 105 68t28 100q0 15 -4 51l-29 260h-495
l-129 -204q-64 -99 -64 -168q0 -72 66 -107z" />
    <glyph glyph-name="Aacute" unicode="&#xc1;" horiz-adv-x="1243" 
d="M950 1829h217q-126 -180 -389 -307h-8q70 79 110.5 149.5t69.5 157.5zM815 535l-70 608l-389 -608h459zM197 4v-4h-322v4q72 39 118.5 91.5t115.5 160.5l763 1198h9l141 -1223q13 -107 28.5 -147.5t67.5 -79.5v-4h-399v4q77 32 105 68t28 100q0 15 -4 51l-29 260h-495
l-129 -204q-64 -99 -64 -168q0 -72 66 -107z" />
    <glyph glyph-name="Acircumflex" unicode="&#xc2;" horiz-adv-x="1243" 
d="M1133 1507q-66 24 -124 61.5t-87 76.5q-105 -78 -306 -138h-14q244 169 363 351h10q25 -189 174 -351h-16zM815 535l-70 608l-389 -608h459zM197 4v-4h-322v4q72 39 118.5 91.5t115.5 160.5l763 1198h9l141 -1223q13 -107 28.5 -147.5t67.5 -79.5v-4h-399v4q77 32 105 68
t28 100q0 15 -4 51l-29 260h-495l-129 -204q-64 -99 -64 -168q0 -72 66 -107z" />
    <glyph glyph-name="Atilde" unicode="&#xc3;" horiz-adv-x="1243" 
d="M1255 1823q-50 -132 -110.5 -202.5t-126.5 -70.5q-32 0 -65.5 22t-57.5 49t-55 49t-60 22q-92 0 -176 -150h-18q50 132 110.5 202.5t126.5 70.5q32 0 65.5 -22t57.5 -48t55 -48t60 -22q93 0 176 148h18zM815 535l-70 608l-389 -608h459zM197 4v-4h-322v4
q72 39 118.5 91.5t115.5 160.5l763 1198h9l141 -1223q13 -107 28.5 -147.5t67.5 -79.5v-4h-399v4q77 32 105 68t28 100q0 15 -4 51l-29 260h-495l-129 -204q-64 -99 -64 -168q0 -72 66 -107z" />
    <glyph glyph-name="Adieresis" unicode="&#xc4;" horiz-adv-x="1243" 
d="M1079 1778q49 0 80 -30t31 -75q0 -51 -36 -87t-87 -36q-47 0 -78 30t-31 73q0 52 35.5 88.5t85.5 36.5zM764 1778q49 0 78.5 -30t29.5 -75q0 -51 -35 -87t-87 -36q-47 0 -77 30t-30 73q0 53 35 89t86 36zM815 535l-70 608l-389 -608h459zM197 4v-4h-322v4
q72 39 118.5 91.5t115.5 160.5l763 1198h9l141 -1223q13 -107 28.5 -147.5t67.5 -79.5v-4h-399v4q77 32 105 68t28 100q0 15 -4 51l-29 260h-495l-129 -204q-64 -99 -64 -168q0 -72 66 -107z" />
    <glyph glyph-name="Aring" unicode="&#xc5;" horiz-adv-x="1243" 
d="M743 1686q0 71 59 126.5t134 55.5q71 0 118.5 -47.5t47.5 -120.5q0 -72 -59 -128t-134 -56q-71 0 -118.5 48.5t-47.5 121.5zM1055 1700q0 54 -34 88.5t-87 34.5q-57 0 -100 -41.5t-43 -95.5q0 -55 33.5 -90t86.5 -35q57 0 100.5 42.5t43.5 96.5zM815 535l-70 608
l-389 -608h459zM197 4v-4h-322v4q72 39 118.5 91.5t115.5 160.5l763 1198h9l141 -1223q13 -107 28.5 -147.5t67.5 -79.5v-4h-399v4q77 32 105 68t28 100q0 15 -4 51l-29 260h-495l-129 -204q-64 -99 -64 -168q0 -72 66 -107z" />
    <glyph glyph-name="AE" unicode="&#xc6;" horiz-adv-x="1808" 
d="M1073 1286l-590 -711h412zM186 4v-4h-311v4q70 43 128.5 99t137.5 151l848 1026q37 37 37 70q0 47 -80 80v4h823q75 0 107 14l-27 -350h-4q-21 78 -45.5 128t-65 87.5t-99.5 54t-144 16.5h-221l-156 -630h156q125 0 190 42.5t154 184.5h4l-117 -471h-4q-6 48 -14 80
t-23 54.5t-29.5 34.5t-43.5 18.5t-55.5 8t-74.5 1.5h-155l-164 -658h229q119 0 213 38.5t168 108t160 187.5h4l-147 -383h-930v4q79 29 116 84t64 164l68 272h-443l-233 -280q-84 -105 -84 -158q0 -50 63 -82z" />
    <glyph glyph-name="Ccedilla" unicode="&#xc7;" horiz-adv-x="1107" 
d="M369 -457q-69 0 -117 31t-62 80l17 12q39 -72 125 -72q62 0 99.5 41.5t37.5 108.5q0 48 -30.5 69.5t-92.5 24.5l103 148q-163 31 -258 169.5t-95 340.5q0 140 37.5 281t107 261t160 214.5t203.5 148t230 53.5q63 0 117 -18.5t93.5 -37t67.5 -18.5q32 0 63 19t52 43
l-88 -461h-6q-12 93 -34 167t-57 134t-87 92.5t-117 32.5q-91 0 -176.5 -55t-151.5 -148t-116 -210t-76.5 -247t-26.5 -253q0 -195 83.5 -305.5t225.5 -110.5q137 0 244.5 76t202.5 254l12 -2q-75 -199 -211 -314t-311 -115q-30 0 -54 3l-80 -113q80 3 136.5 -34.5
t56.5 -102.5q0 -84 -68.5 -135.5t-158.5 -51.5z" />
    <glyph glyph-name="Egrave" unicode="&#xc8;" 
d="M844 1829q-7 -78 8.5 -147t54.5 -160h-6q-209 136 -250 307h193zM297 1434h778q75 0 107 14l-27 -350h-4q-21 78 -45.5 128t-65 87.5t-99.5 54t-144 16.5h-222l-155 -630h155q125 0 190.5 42.5t154.5 184.5h4l-117 -471h-4q-6 48 -14 80t-23 54.5t-29.5 34.5t-43.5 18.5
t-55.5 8t-74.5 1.5h-155l-164 -658h229q119 0 213 38.5t168 108t160 187.5h4l-148 -383h-929v4q79 29 116 84t64 164l233 930q19 81 19 127q0 84 -76 121v4z" />
    <glyph glyph-name="Eacute" unicode="&#xc9;" 
d="M866 1829h217q-126 -180 -389 -307h-8q70 79 110.5 149.5t69.5 157.5zM297 1434h778q75 0 107 14l-27 -350h-4q-21 78 -45.5 128t-65 87.5t-99.5 54t-144 16.5h-222l-155 -630h155q125 0 190.5 42.5t154.5 184.5h4l-117 -471h-4q-6 48 -14 80t-23 54.5t-29.5 34.5
t-43.5 18.5t-55.5 8t-74.5 1.5h-155l-164 -658h229q119 0 213 38.5t168 108t160 187.5h4l-148 -383h-929v4q79 29 116 84t64 164l233 930q19 81 19 127q0 84 -76 121v4z" />
    <glyph glyph-name="Ecircumflex" unicode="&#xca;" 
d="M1049 1507q-66 24 -124 61.5t-87 76.5q-105 -78 -306 -138h-14q244 169 363 351h10q25 -189 174 -351h-16zM297 1434h778q75 0 107 14l-27 -350h-4q-21 78 -45.5 128t-65 87.5t-99.5 54t-144 16.5h-222l-155 -630h155q125 0 190.5 42.5t154.5 184.5h4l-117 -471h-4
q-6 48 -14 80t-23 54.5t-29.5 34.5t-43.5 18.5t-55.5 8t-74.5 1.5h-155l-164 -658h229q119 0 213 38.5t168 108t160 187.5h4l-148 -383h-929v4q79 29 116 84t64 164l233 930q19 81 19 127q0 84 -76 121v4z" />
    <glyph glyph-name="Edieresis" unicode="&#xcb;" 
d="M995 1778q49 0 80 -30t31 -75q0 -51 -36 -87t-87 -36q-47 0 -78 30t-31 73q0 52 35.5 88.5t85.5 36.5zM680 1778q49 0 78.5 -30t29.5 -75q0 -51 -35 -87t-87 -36q-47 0 -77 30t-30 73q0 53 35 89t86 36zM297 1434h778q75 0 107 14l-27 -350h-4q-21 78 -45.5 128t-65 87.5
t-99.5 54t-144 16.5h-222l-155 -630h155q125 0 190.5 42.5t154.5 184.5h4l-117 -471h-4q-6 48 -14 80t-23 54.5t-29.5 34.5t-43.5 18.5t-55.5 8t-74.5 1.5h-155l-164 -658h229q119 0 213 38.5t168 108t160 187.5h4l-148 -383h-929v4q79 29 116 84t64 164l233 930
q19 81 19 127q0 84 -76 121v4z" />
    <glyph glyph-name="Igrave" unicode="&#xcc;" horiz-adv-x="538" 
d="M571 1829q-7 -77 8.5 -146t55.5 -161h-6q-209 136 -250 307h192zM297 1434h412v-4q-79 -29 -117 -84.5t-64 -163.5l-233 -930q-21 -86 -21 -125q0 -85 78 -123v-4h-411v4q79 29 116 84t64 164l233 930q21 89 21 127q0 83 -78 121v4z" />
    <glyph glyph-name="Iacute" unicode="&#xcd;" horiz-adv-x="538" 
d="M596 1829h217q-126 -180 -389 -307h-8q70 79 110.5 149.5t69.5 157.5zM297 1434h412v-4q-79 -29 -117 -84.5t-64 -163.5l-233 -930q-21 -86 -21 -125q0 -85 78 -123v-4h-411v4q79 29 116 84t64 164l233 930q21 89 21 127q0 83 -78 121v4z" />
    <glyph glyph-name="Icircumflex" unicode="&#xce;" horiz-adv-x="538" 
d="M778 1507q-66 24 -124 61.5t-87 76.5q-106 -79 -305 -138h-14q242 168 362 351h11q25 -189 174 -351h-17zM297 1434h412v-4q-79 -29 -117 -84.5t-64 -163.5l-233 -930q-21 -86 -21 -125q0 -85 78 -123v-4h-411v4q79 29 116 84t64 164l233 930q21 89 21 127q0 83 -78 121
v4z" />
    <glyph glyph-name="Idieresis" unicode="&#xcf;" horiz-adv-x="538" 
d="M723 1778q49 0 80 -30t31 -75q0 -51 -36 -87t-87 -36q-47 0 -78 30t-31 73q0 52 35.5 88.5t85.5 36.5zM408 1778q49 0 78.5 -30t29.5 -75q0 -51 -35.5 -87t-87.5 -36q-47 0 -76.5 30t-29.5 73q0 53 35 89t86 36zM297 1434h412v-4q-79 -29 -117 -84.5t-64 -163.5
l-233 -930q-21 -86 -21 -125q0 -85 78 -123v-4h-411v4q79 29 116 84t64 164l233 930q21 89 21 127q0 83 -78 121v4z" />
    <glyph glyph-name="Eth" unicode="&#xd0;" horiz-adv-x="1271" 
d="M416 0h-469v4q79 29 116 84t64 164l113 453h-101l13 51h102l106 426q21 89 21 127q0 83 -78 121v4h416q259 0 411 -142t152 -377q0 -190 -64.5 -358.5t-177.5 -291t-275 -194t-349 -71.5zM250 51h164q155 0 284.5 73.5t214 197t131 282t46.5 330.5q0 217 -97 332.5
t-291 115.5h-118l-158 -626h252l-12 -51h-252z" />
    <glyph glyph-name="Ntilde" unicode="&#xd1;" horiz-adv-x="1282" 
d="M1276 1823q-50 -132 -111 -202.5t-127 -70.5q-26 0 -52.5 14.5t-48 35.5l-43 42t-45.5 35.5t-48 14.5q-92 0 -176 -150h-19q50 132 111 202.5t127 70.5q32 0 65.5 -22t57 -48t54.5 -48t60 -22q93 0 176 148h19zM1006 346l202 809q15 62 15 109q0 120 -101 166v4h369
l-2 -4q-85 -32 -140 -98t-85 -181l-291 -1169h-6l-531 1302l-250 -1003q-14 -60 -14 -111q0 -122 100 -166v-4h-368v4q86 32 141 98.5t84 180.5l225 905q19 71 19 112q0 92 -84 130v4h276z" />
    <glyph glyph-name="Ograve" unicode="&#xd2;" horiz-adv-x="1265" 
d="M942 1829q-7 -77 8.5 -146t55.5 -161h-7q-208 135 -249 307h192zM98 504q0 178 59 351t156.5 305t233.5 213t282 81q204 0 324.5 -144t120.5 -378q0 -178 -59 -351.5t-156.5 -305.5t-233.5 -213.5t-282 -81.5q-204 0 -324.5 144.5t-120.5 379.5zM283 397
q0 -163 66.5 -266.5t193.5 -103.5q103 0 194.5 75.5t158 197.5t118.5 288q76 239 76 448q0 165 -67 268t-194 103q-103 0 -194.5 -75.5t-158 -197.5t-118.5 -288q-75 -236 -75 -449z" />
    <glyph glyph-name="Oacute" unicode="&#xd3;" horiz-adv-x="1265" 
d="M965 1829h217q-126 -180 -389 -307h-9q71 80 111.5 150.5t69.5 156.5zM98 504q0 178 59 351t156.5 305t233.5 213t282 81q204 0 324.5 -144t120.5 -378q0 -178 -59 -351.5t-156.5 -305.5t-233.5 -213.5t-282 -81.5q-204 0 -324.5 144.5t-120.5 379.5zM283 397
q0 -163 66.5 -266.5t193.5 -103.5q103 0 194.5 75.5t158 197.5t118.5 288q76 239 76 448q0 165 -67 268t-194 103q-103 0 -194.5 -75.5t-158 -197.5t-118.5 -288q-75 -236 -75 -449z" />
    <glyph glyph-name="Ocircumflex" unicode="&#xd4;" horiz-adv-x="1265" 
d="M1147 1507q-66 24 -124 61.5t-87 76.5q-106 -79 -305 -138h-15q244 169 363 351h10q25 -189 174 -351h-16zM98 504q0 178 59 351t156.5 305t233.5 213t282 81q204 0 324.5 -144t120.5 -378q0 -178 -59 -351.5t-156.5 -305.5t-233.5 -213.5t-282 -81.5
q-204 0 -324.5 144.5t-120.5 379.5zM283 397q0 -163 66.5 -266.5t193.5 -103.5q103 0 194.5 75.5t158 197.5t118.5 288q76 239 76 448q0 165 -67 268t-194 103q-103 0 -194.5 -75.5t-158 -197.5t-118.5 -288q-75 -236 -75 -449z" />
    <glyph glyph-name="Otilde" unicode="&#xd5;" horiz-adv-x="1265" 
d="M1270 1823q-50 -132 -111 -202.5t-127 -70.5q-26 0 -52.5 14.5t-48 35.5l-43 42t-45.5 35.5t-48 14.5q-93 0 -177 -150h-18q50 132 111 202.5t127 70.5q32 0 65.5 -22t57 -48t54.5 -48t60 -22q93 0 176 148h19zM98 504q0 178 59 351t156.5 305t233.5 213t282 81
q204 0 324.5 -144t120.5 -378q0 -178 -59 -351.5t-156.5 -305.5t-233.5 -213.5t-282 -81.5q-204 0 -324.5 144.5t-120.5 379.5zM283 397q0 -163 66.5 -266.5t193.5 -103.5q103 0 194.5 75.5t158 197.5t118.5 288q76 239 76 448q0 165 -67 268t-194 103q-103 0 -194.5 -75.5
t-158 -197.5t-118.5 -288q-75 -236 -75 -449z" />
    <glyph glyph-name="Odieresis" unicode="&#xd6;" horiz-adv-x="1265" 
d="M1094 1778q49 0 79.5 -30t30.5 -75q0 -51 -36 -87t-87 -36q-47 0 -77.5 30t-30.5 73q0 52 35.5 88.5t85.5 36.5zM778 1778q49 0 79 -30t30 -75q0 -51 -35.5 -87t-87.5 -36q-47 0 -77 30t-30 73q0 53 35 89t86 36zM98 504q0 178 59 351t156.5 305t233.5 213t282 81
q204 0 324.5 -144t120.5 -378q0 -178 -59 -351.5t-156.5 -305.5t-233.5 -213.5t-282 -81.5q-204 0 -324.5 144.5t-120.5 379.5zM283 397q0 -163 66.5 -266.5t193.5 -103.5q103 0 194.5 75.5t158 197.5t118.5 288q76 239 76 448q0 165 -67 268t-194 103q-103 0 -194.5 -75.5
t-158 -197.5t-118.5 -288q-75 -236 -75 -449z" />
    <glyph glyph-name="multiply" unicode="&#xd7;" horiz-adv-x="733" 
d="M373 666l-185 247l41 31l181 -248l307 248l28 -39l-305 -246l183 -247l-39 -29l-183 246l-305 -246l-30 37z" />
    <glyph glyph-name="Oslash" unicode="&#xd8;" horiz-adv-x="1269" 
d="M285 397q0 -58 8 -102l786 872q-24 111 -86.5 175.5t-161.5 64.5q-103 0 -194.5 -75.5t-158 -197.5t-118.5 -288q-75 -236 -75 -449zM545 27q103 0 194.5 75.5t158 197.5t118.5 288q76 239 76 448q0 14 -5 72l-782 -872q27 -98 87.5 -153.5t152.5 -55.5zM545 -20
q-211 0 -332 153l-154 -170l-36 33l161 178q-84 134 -84 330q0 178 59 351t156.5 305t233.5 213t282 81q224 0 349 -174l153 170l35 -31l-164 -182q72 -126 72 -305q0 -178 -59 -351.5t-156.5 -305.5t-233.5 -213.5t-282 -81.5z" />
    <glyph glyph-name="Ugrave" unicode="&#xd9;" horiz-adv-x="1228" 
d="M952 1829q-7 -77 8.5 -146t55.5 -161h-6q-209 136 -250 307h192zM1241 1167l-170 -682q-123 -505 -528 -505q-192 0 -302 100.5t-110 269.5q0 61 19 142l174 690q20 82 20 125q0 45 -19 74t-61 49v4h412v-4q-78 -29 -115 -84t-65 -164l-170 -682q-21 -80 -21 -148
q0 -132 73.5 -207t205.5 -75q169 0 273.5 106.5t156.5 317.5l170 675q14 60 14 111q0 110 -94 150v4h346v-4q-83 -31 -132 -92.5t-77 -170.5z" />
    <glyph glyph-name="Uacute" unicode="&#xda;" horiz-adv-x="1228" 
d="M975 1829h217q-126 -180 -389 -307h-8q70 79 110.5 149.5t69.5 157.5zM1241 1167l-170 -682q-123 -505 -528 -505q-192 0 -302 100.5t-110 269.5q0 61 19 142l174 690q20 82 20 125q0 45 -19 74t-61 49v4h412v-4q-78 -29 -115 -84t-65 -164l-170 -682q-21 -80 -21 -148
q0 -132 73.5 -207t205.5 -75q169 0 273.5 106.5t156.5 317.5l170 675q14 60 14 111q0 110 -94 150v4h346v-4q-83 -31 -132 -92.5t-77 -170.5z" />
    <glyph glyph-name="Ucircumflex" unicode="&#xdb;" horiz-adv-x="1228" 
d="M1157 1507q-66 24 -124 61.5t-87 76.5q-106 -79 -305 -138h-14q242 168 362 351h10q25 -187 175 -351h-17zM1241 1167l-170 -682q-123 -505 -528 -505q-192 0 -302 100.5t-110 269.5q0 61 19 142l174 690q20 82 20 125q0 45 -19 74t-61 49v4h412v-4q-78 -29 -115 -84
t-65 -164l-170 -682q-21 -80 -21 -148q0 -132 73.5 -207t205.5 -75q169 0 273.5 106.5t156.5 317.5l170 675q14 60 14 111q0 110 -94 150v4h346v-4q-83 -31 -132 -92.5t-77 -170.5z" />
    <glyph glyph-name="Udieresis" unicode="&#xdc;" horiz-adv-x="1228" 
d="M1104 1778q49 0 79.5 -30t30.5 -75q0 -51 -35.5 -87t-86.5 -36q-47 0 -78 30t-31 73q0 52 35.5 88.5t85.5 36.5zM788 1778q49 0 79 -30t30 -75q0 -51 -35.5 -87t-87.5 -36q-46 0 -76 30t-30 73q0 53 34.5 89t85.5 36zM1241 1167l-170 -682q-123 -505 -528 -505
q-192 0 -302 100.5t-110 269.5q0 61 19 142l174 690q20 82 20 125q0 45 -19 74t-61 49v4h412v-4q-78 -29 -115 -84t-65 -164l-170 -682q-21 -80 -21 -148q0 -132 73.5 -207t205.5 -75q169 0 273.5 106.5t156.5 317.5l170 675q14 60 14 111q0 110 -94 150v4h346v-4
q-83 -31 -132 -92.5t-77 -170.5z" />
    <glyph glyph-name="Yacute" unicode="&#xdd;" horiz-adv-x="1159" 
d="M913 1829h217q-126 -180 -389 -307h-8q70 79 110.5 149.5t69.5 157.5zM1393 1434v-4q-66 -37 -108 -78.5t-107 -124.5l-490 -629l-90 -362q-18 -64 -18 -107q0 -47 21 -75.5t67 -49.5v-4h-420v4q81 30 120 80t64 152l90 362l-176 629q-27 86 -47.5 125.5t-65.5 77.5v4
h365v-4q-48 -23 -72 -54.5t-24 -79.5q0 -30 8 -61l160 -576l430 553q53 71 53 125q0 58 -66 93v4h306z" />
    <glyph glyph-name="Thorn" unicode="&#xde;" horiz-adv-x="1118" 
d="M391 0h-450v4q79 29 116 84t64 164l233 930q21 89 21 127q0 83 -78 121v4h412v-4q-79 -29 -117 -84t-66 -164l-8 -33h197q198 0 312 -86.5t114 -245.5q0 -122 -52 -220t-140 -159t-199.5 -93t-235.5 -32h-205l-18 -73q-17 -70 -17 -103q0 -46 26.5 -76.5t90.5 -56.5v-4z
M324 365h172q203 0 328.5 126.5t125.5 327.5q0 279 -284 279h-160z" />
    <glyph glyph-name="germandbls" unicode="&#xdf;" horiz-adv-x="1081" 
d="M659 793q0 -50 30.5 -93t111.5 -112q53 -45 72.5 -62t53.5 -51t46 -55.5t22.5 -53t10.5 -65.5q0 -140 -104 -230.5t-259 -90.5q-127 0 -214 60.5t-87 152.5q0 64 39 102.5t96 38.5q59 0 92 -39q-38 -1 -62 -35.5t-24 -87.5q0 -72 45.5 -114t120.5 -42q96 0 154.5 59.5
t58.5 155.5q0 56 -37.5 104.5t-124.5 115.5q-86 68 -125.5 125t-39.5 129q0 49 17 92t53.5 84.5t72.5 72.5t96 76q141 108 141 301q0 83 -42.5 129.5t-118.5 46.5q-108 0 -176.5 -91.5t-120.5 -297.5l-273 -1159q-53 -219 -141.5 -325.5t-245.5 -116.5v4q32 18 59.5 47.5
t50.5 74t41 89.5t37 112t32.5 122t31.5 138l193 844h-138l5 19l143 32l33 105q30 113 82.5 199.5t116.5 136.5t133 75t141 25q127 0 209 -61.5t82 -163.5q0 -50 -19 -94.5t-57.5 -85t-76 -70t-95.5 -68.5q-142 -97 -142 -204z" />
    <glyph glyph-name="agrave" unicode="&#xe0;" horiz-adv-x="1001" 
d="M725 1505q-25 -204 33 -372h-6q-89 89 -138.5 178.5t-62.5 193.5h174zM887 657l-119 -489q-19 -75 32.5 -99t129.5 23l2 -4q-87 -108 -197 -108q-63 0 -102 38t-39 109q0 38 16 94q-129 -241 -315 -241q-122 0 -192 90.5t-70 246.5q0 170 68.5 332t186 264.5t249.5 102.5
q101 0 157 -61t66 -158q33 77 95.5 135.5t135.5 83.5q-67 -194 -104 -359zM358 59q88 0 175 101t126 258l48 190q20 79 20 144q0 94 -44 143t-112 49q-73 0 -141.5 -60t-116 -154t-76 -210.5t-28.5 -228.5q0 -110 37 -171t112 -61z" />
    <glyph glyph-name="aacute" unicode="&#xe1;" horiz-adv-x="1001" 
d="M715 1505h198q-65 -105 -155 -194.5t-217 -177.5h-9q122 153 183 372zM887 657l-119 -489q-19 -75 32.5 -99t129.5 23l2 -4q-87 -108 -197 -108q-63 0 -102 38t-39 109q0 38 16 94q-129 -241 -315 -241q-122 0 -192 90.5t-70 246.5q0 170 68.5 332t186 264.5t249.5 102.5
q101 0 157 -61t66 -158q33 77 95.5 135.5t135.5 83.5q-67 -194 -104 -359zM358 59q88 0 175 101t126 258l48 190q20 79 20 144q0 94 -44 143t-112 49q-73 0 -141.5 -60t-116 -154t-76 -210.5t-28.5 -228.5q0 -110 37 -171t112 -61z" />
    <glyph glyph-name="acircumflex" unicode="&#xe2;" horiz-adv-x="1001" 
d="M897 1122q-55 33 -105 84.5t-77 100.5q-54 -46 -143 -98t-171 -87h-14q110 88 210 195.5t169 218.5h8q11 -220 137 -414h-14zM887 657l-119 -489q-19 -75 32.5 -99t129.5 23l2 -4q-87 -108 -197 -108q-63 0 -102 38t-39 109q0 38 16 94q-129 -241 -315 -241
q-122 0 -192 90.5t-70 246.5q0 170 68.5 332t186 264.5t249.5 102.5q101 0 157 -61t66 -158q33 77 95.5 135.5t135.5 83.5q-67 -194 -104 -359zM358 59q88 0 175 101t126 258l48 190q20 79 20 144q0 94 -44 143t-112 49q-73 0 -141.5 -60t-116 -154t-76 -210.5t-28.5 -228.5
q0 -110 37 -171t112 -61z" />
    <glyph glyph-name="atilde" unicode="&#xe3;" horiz-adv-x="1001" 
d="M1020 1452q-47 -131 -108.5 -201.5t-127.5 -70.5q-33 0 -66.5 22t-57 48.5t-55 48.5t-60.5 22q-92 0 -176 -150h-17q47 132 108.5 202.5t127.5 70.5q27 0 53.5 -14.5t48 -35t43 -40.5t46 -34.5t48.5 -14.5q95 0 177 147h16zM887 657l-119 -489q-19 -75 32.5 -99t129.5 23
l2 -4q-87 -108 -197 -108q-63 0 -102 38t-39 109q0 38 16 94q-129 -241 -315 -241q-122 0 -192 90.5t-70 246.5q0 170 68.5 332t186 264.5t249.5 102.5q101 0 157 -61t66 -158q33 77 95.5 135.5t135.5 83.5q-67 -194 -104 -359zM358 59q88 0 175 101t126 258l48 190
q20 79 20 144q0 94 -44 143t-112 49q-73 0 -141.5 -60t-116 -154t-76 -210.5t-28.5 -228.5q0 -110 37 -171t112 -61z" />
    <glyph glyph-name="adieresis" unicode="&#xe4;" horiz-adv-x="1001" 
d="M862 1417q49 0 79 -29.5t30 -74.5q0 -51 -35.5 -87t-87.5 -36q-47 0 -77 29.5t-30 72.5q0 53 35 89t86 36zM545 1417q49 0 79.5 -29.5t30.5 -74.5q0 -51 -36 -87t-87 -36q-47 0 -77.5 29.5t-30.5 72.5q0 52 35.5 88.5t85.5 36.5zM887 657l-119 -489q-19 -75 32.5 -99
t129.5 23l2 -4q-87 -108 -197 -108q-63 0 -102 38t-39 109q0 38 16 94q-129 -241 -315 -241q-122 0 -192 90.5t-70 246.5q0 170 68.5 332t186 264.5t249.5 102.5q101 0 157 -61t66 -158q33 77 95.5 135.5t135.5 83.5q-67 -194 -104 -359zM358 59q88 0 175 101t126 258
l48 190q20 79 20 144q0 94 -44 143t-112 49q-73 0 -141.5 -60t-116 -154t-76 -210.5t-28.5 -228.5q0 -110 37 -171t112 -61z" />
    <glyph glyph-name="aring" unicode="&#xe5;" horiz-adv-x="1001" 
d="M528 1317q0 71 59 126.5t134 55.5q71 0 118.5 -47.5t47.5 -120.5q0 -72 -59 -128t-134 -56q-71 0 -118.5 48.5t-47.5 121.5zM840 1331q0 54 -34 88.5t-87 34.5q-57 0 -100.5 -41.5t-43.5 -95.5q0 -55 34 -90t87 -35q57 0 100.5 42.5t43.5 96.5zM887 657l-119 -489
q-19 -75 32.5 -99t129.5 23l2 -4q-87 -108 -197 -108q-63 0 -102 38t-39 109q0 38 16 94q-129 -241 -315 -241q-122 0 -192 90.5t-70 246.5q0 170 68.5 332t186 264.5t249.5 102.5q101 0 157 -61t66 -158q33 77 95.5 135.5t135.5 83.5q-67 -194 -104 -359zM358 59
q88 0 175 101t126 258l48 190q20 79 20 144q0 94 -44 143t-112 49q-73 0 -141.5 -60t-116 -154t-76 -210.5t-28.5 -228.5q0 -110 37 -171t112 -61z" />
    <glyph glyph-name="ae" unicode="&#xe6;" horiz-adv-x="1357" 
d="M903 -20q-106 0 -184 53.5t-113 152.5q-130 -206 -305 -206q-122 0 -195 91t-73 246q0 170 69 332t187.5 264.5t251.5 102.5q91 0 149 -52t76 -135q76 87 171 137t198 50q109 0 173 -55t64 -144q0 -83 -47 -147.5t-131 -106.5t-191 -66t-237 -32q-12 -68 -12 -131
q0 -140 55.5 -208.5t159.5 -68.5q168 0 299 193h10q-54 -131 -154.5 -200.5t-220.5 -69.5zM1133 975q-77 0 -153 -71t-130 -180t-80 -232q97 13 177.5 41.5t143.5 73t98.5 110t35.5 145.5q0 53 -23 83t-69 30zM365 61q59 0 119.5 44.5t107.5 125.5q-12 53 -12 117
q0 115 40.5 231.5t112.5 211.5q-10 74 -54.5 113.5t-103.5 39.5q-99 0 -185 -101.5t-133.5 -251t-47.5 -300.5q0 -110 39 -170t117 -60z" />
    <glyph glyph-name="ccedilla" unicode="&#xe7;" horiz-adv-x="790" 
d="M240 -457q-69 0 -117 31t-62 80l17 12q39 -72 125 -72q62 0 99.5 41.5t37.5 108.5q0 48 -30.5 69.5t-92.5 24.5l100 144q-126 12 -203 110.5t-77 257.5q0 96 27.5 193.5t78 181.5t116.5 149.5t149 103.5t170 38q106 0 169.5 -55.5t63.5 -143.5q0 -78 -51 -128t-125 -50
q-46 0 -80 26.5t-37 69.5q24 -14 51 -14q54 0 85.5 35t31.5 100q0 57 -28 88t-80 31q-93 0 -179.5 -97.5t-136 -240.5t-49.5 -279q0 -146 53.5 -221.5t151.5 -75.5q85 0 152 50.5t126 146.5h11q-48 -134 -143.5 -206t-211.5 -72l-78 -113q80 3 136.5 -34.5t56.5 -102.5
q0 -84 -68.5 -135.5t-158.5 -51.5z" />
    <glyph glyph-name="egrave" unicode="&#xe8;" horiz-adv-x="815" 
d="M676 1505q-25 -204 33 -372h-7q-89 89 -138 178t-62 194h174zM360 -20q-147 0 -235 98.5t-88 269.5q0 160 74 314t204 254t277 100q109 0 173 -55t64 -144q0 -83 -47 -147.5t-131 -106.5t-191 -66t-237 -32q-12 -67 -12 -131q0 -140 55.5 -208.5t159.5 -68.5
q168 0 299 193h10q-54 -131 -154.5 -200.5t-220.5 -69.5zM590 975q-77 0 -153 -71t-130 -180t-80 -232q97 13 177.5 41.5t143.5 73t98.5 110t35.5 145.5q0 53 -23 83t-69 30z" />
    <glyph glyph-name="eacute" unicode="&#xe9;" horiz-adv-x="815" 
d="M676 1505h198q-65 -105 -155 -194.5t-217 -177.5h-8q121 151 182 372zM360 -20q-147 0 -235 98.5t-88 269.5q0 160 74 314t204 254t277 100q109 0 173 -55t64 -144q0 -83 -47 -147.5t-131 -106.5t-191 -66t-237 -32q-12 -67 -12 -131q0 -140 55.5 -208.5t159.5 -68.5
q168 0 299 193h10q-54 -131 -154.5 -200.5t-220.5 -69.5zM590 975q-77 0 -153 -71t-130 -180t-80 -232q97 13 177.5 41.5t143.5 73t98.5 110t35.5 145.5q0 53 -23 83t-69 30z" />
    <glyph glyph-name="ecircumflex" unicode="&#xea;" horiz-adv-x="815" 
d="M846 1122q-55 33 -105 84.5t-77 100.5q-54 -46 -143 -98t-171 -87h-14q110 88 210 195.5t169 218.5h8q11 -220 137 -414h-14zM360 -20q-147 0 -235 98.5t-88 269.5q0 160 74 314t204 254t277 100q109 0 173 -55t64 -144q0 -83 -47 -147.5t-131 -106.5t-191 -66t-237 -32
q-12 -67 -12 -131q0 -140 55.5 -208.5t159.5 -68.5q168 0 299 193h10q-54 -131 -154.5 -200.5t-220.5 -69.5zM590 975q-77 0 -153 -71t-130 -180t-80 -232q97 13 177.5 41.5t143.5 73t98.5 110t35.5 145.5q0 53 -23 83t-69 30z" />
    <glyph glyph-name="edieresis" unicode="&#xeb;" horiz-adv-x="815" 
d="M811 1417q49 0 79 -29.5t30 -74.5q0 -51 -35.5 -87t-87.5 -36q-47 0 -77 29.5t-30 72.5q0 53 35 89t86 36zM494 1417q49 0 79.5 -29.5t30.5 -74.5q0 -51 -36 -87t-87 -36q-47 0 -77.5 29.5t-30.5 72.5q0 52 35.5 88.5t85.5 36.5zM360 -20q-147 0 -235 98.5t-88 269.5
q0 160 74 314t204 254t277 100q109 0 173 -55t64 -144q0 -83 -47 -147.5t-131 -106.5t-191 -66t-237 -32q-12 -67 -12 -131q0 -140 55.5 -208.5t159.5 -68.5q168 0 299 193h10q-54 -131 -154.5 -200.5t-220.5 -69.5zM590 975q-77 0 -153 -71t-130 -180t-80 -232
q97 13 177.5 41.5t143.5 73t98.5 110t35.5 145.5q0 53 -23 83t-69 30z" />
    <glyph glyph-name="igrave" unicode="&#xec;" horiz-adv-x="481" 
d="M442 1505q-25 -204 33 -372h-6q-89 89 -138.5 178.5t-62.5 193.5h174zM438 995l-207 -827q-4 -24 -4 -35q0 -33 19.5 -52.5t52.5 -19.5q40 0 94 31l2 -4q-87 -108 -196 -108q-65 0 -104.5 37t-39.5 102q0 30 8 61l152 608q12 44 12 74q0 77 -84 129v4h295z" />
    <glyph glyph-name="iacute" unicode="&#xed;" horiz-adv-x="481" 
d="M442 1505h199q-65 -105 -155 -194.5t-218 -177.5h-8q121 151 182 372zM438 995l-207 -827q-4 -24 -4 -35q0 -33 19.5 -52.5t52.5 -19.5q40 0 94 31l2 -4q-87 -108 -196 -108q-65 0 -104.5 37t-39.5 102q0 30 8 61l152 608q12 44 12 74q0 77 -84 129v4h295z" />
    <glyph glyph-name="icircumflex" unicode="&#xee;" horiz-adv-x="481" 
d="M588 1122q-107 66 -168 176q-107 -94 -297 -176h-14q216 175 368 414h8q10 -247 115 -414h-12zM438 995l-207 -827q-4 -24 -4 -35q0 -33 19.5 -52.5t52.5 -19.5q40 0 94 31l2 -4q-87 -108 -196 -108q-65 0 -104.5 37t-39.5 102q0 30 8 61l152 608q12 44 12 74
q0 77 -84 129v4h295z" />
    <glyph glyph-name="idieresis" unicode="&#xef;" horiz-adv-x="481" 
d="M584 1417q49 0 78.5 -29.5t29.5 -74.5q0 -51 -35.5 -87t-87.5 -36q-47 0 -76.5 29.5t-29.5 72.5q0 53 35 89t86 36zM266 1417q49 0 80 -29.5t31 -74.5q0 -51 -36 -87t-87 -36q-47 0 -78 29.5t-31 72.5q0 52 35.5 88.5t85.5 36.5zM438 995l-207 -827q-4 -24 -4 -35
q0 -33 19.5 -52.5t52.5 -19.5q40 0 94 31l2 -4q-87 -108 -196 -108q-65 0 -104.5 37t-39.5 102q0 30 8 61l152 608q12 44 12 74q0 77 -84 129v4h295z" />
    <glyph glyph-name="eth" unicode="&#xf0;" horiz-adv-x="927" 
d="M365 -20q-147 0 -236.5 100t-89.5 270q0 96 25.5 193t73.5 181t110.5 150t143 104t165.5 38q100 0 164 -55q-27 178 -105 309l-217 -96l-16 40l209 93q-108 150 -295 231l6 16q229 -61 375 -211l196 89l17 -41l-182 -80q178 -214 178 -568q0 -203 -68 -378t-188.5 -280
t-265.5 -105zM371 20q91 0 173 122.5t132 306.5q35 123 35 253q0 273 -154 273q-62 0 -122 -59t-106 -154.5t-77 -214.5q-35 -123 -35 -252q0 -275 154 -275z" />
    <glyph glyph-name="ntilde" unicode="&#xf1;" horiz-adv-x="1009" 
d="M1022 1452q-47 -131 -108.5 -201.5t-127.5 -70.5q-33 0 -66.5 22t-57 48.5t-55 48.5t-60.5 22q-92 0 -176 -150h-17q47 132 108.5 202.5t127.5 70.5q27 0 53.5 -14.5t48 -35t43 -40.5t46 -34.5t48.5 -14.5q95 0 177 147h16zM328 532l-131 -532h-172l196 788q10 36 10 74
q0 43 -19.5 73.5t-61.5 55.5v4h292l-63 -260q68 128 161 204.5t201 76.5q88 0 136.5 -54t48.5 -143q0 -51 -13 -96l-139 -555q-4 -24 -4 -35q0 -33 19.5 -52.5t52.5 -19.5q40 0 94 31l2 -4q-87 -108 -197 -108q-65 0 -104 37t-39 102q0 30 8 61l135 535q13 57 13 96
q0 100 -99 100q-44 0 -89 -21.5t-90 -65t-84.5 -119t-63.5 -173.5z" />
    <glyph glyph-name="ograve" unicode="&#xf2;" horiz-adv-x="927" 
d="M686 1505q-25 -204 33 -372h-6q-89 89 -138.5 178.5t-62.5 193.5h174zM39 350q0 120 40.5 240t108.5 214t166 153t205 59q148 0 239 -100t91 -271q0 -120 -40.5 -239.5t-109 -213.5t-167 -153t-205.5 -59q-148 0 -238 100t-90 270zM711 702q0 131 -35.5 202t-118.5 71
q-64 0 -126 -63t-107.5 -159t-73.5 -210q-33 -139 -33 -248q0 -275 154 -275q94 0 177 127t128 306q35 131 35 249z" />
    <glyph glyph-name="oacute" unicode="&#xf3;" horiz-adv-x="927" 
d="M686 1505h199q-65 -105 -155 -194.5t-218 -177.5h-8q121 151 182 372zM39 350q0 120 40.5 240t108.5 214t166 153t205 59q148 0 239 -100t91 -271q0 -120 -40.5 -239.5t-109 -213.5t-167 -153t-205.5 -59q-148 0 -238 100t-90 270zM711 702q0 131 -35.5 202t-118.5 71
q-64 0 -126 -63t-107.5 -159t-73.5 -210q-33 -139 -33 -248q0 -275 154 -275q94 0 177 127t128 306q35 131 35 249z" />
    <glyph glyph-name="ocircumflex" unicode="&#xf4;" horiz-adv-x="927" 
d="M856 1122q-55 33 -105 84.5t-77 100.5q-54 -46 -143 -98t-171 -87h-14q110 88 210 195.5t169 218.5h8q11 -220 137 -414h-14zM39 350q0 120 40.5 240t108.5 214t166 153t205 59q148 0 239 -100t91 -271q0 -120 -40.5 -239.5t-109 -213.5t-167 -153t-205.5 -59
q-148 0 -238 100t-90 270zM711 702q0 131 -35.5 202t-118.5 71q-64 0 -126 -63t-107.5 -159t-73.5 -210q-33 -139 -33 -248q0 -275 154 -275q94 0 177 127t128 306q35 131 35 249z" />
    <glyph glyph-name="otilde" unicode="&#xf5;" horiz-adv-x="927" 
d="M991 1452q-47 -132 -108 -202t-127 -70q-27 0 -53.5 14.5t-48.5 35t-43.5 41.5t-46 35.5t-48.5 14.5q-92 0 -176 -150h-16q47 132 108 202.5t127 70.5q27 0 53.5 -14.5t48.5 -35t43.5 -40.5t46 -34.5t48.5 -14.5q94 0 176 147h16zM39 350q0 120 40.5 240t108.5 214
t166 153t205 59q148 0 239 -100t91 -271q0 -120 -40.5 -239.5t-109 -213.5t-167 -153t-205.5 -59q-148 0 -238 100t-90 270zM711 702q0 131 -35.5 202t-118.5 71q-64 0 -126 -63t-107.5 -159t-73.5 -210q-33 -139 -33 -248q0 -275 154 -275q94 0 177 127t128 306
q35 131 35 249z" />
    <glyph glyph-name="odieresis" unicode="&#xf6;" horiz-adv-x="927" 
d="M829 1417q49 0 79 -29.5t30 -74.5q0 -51 -35.5 -87t-87.5 -36q-47 0 -76.5 29.5t-29.5 72.5q0 53 34.5 89t85.5 36zM512 1417q49 0 80 -29.5t31 -74.5q0 -51 -36 -87t-87 -36q-47 0 -78 29.5t-31 72.5q0 52 35.5 88.5t85.5 36.5zM39 350q0 120 40.5 240t108.5 214
t166 153t205 59q148 0 239 -100t91 -271q0 -120 -40.5 -239.5t-109 -213.5t-167 -153t-205.5 -59q-148 0 -238 100t-90 270zM711 702q0 131 -35.5 202t-118.5 71q-64 0 -126 -63t-107.5 -159t-73.5 -210q-33 -139 -33 -248q0 -275 154 -275q94 0 177 127t128 306
q35 131 35 249z" />
    <glyph glyph-name="divide" unicode="&#xf7;" horiz-adv-x="899" 
d="M567 899q-27 0 -46 20t-19 48t18.5 46.5t46.5 18.5t48 -19t20 -46q0 -28 -20 -48t-48 -20zM123 633l12 53h721l-12 -53h-721zM412 287q-28 0 -47 19.5t-19 45.5q0 29 19 48.5t47 19.5t47.5 -19.5t19.5 -48.5q0 -26 -19.5 -45.5t-47.5 -19.5z" />
    <glyph glyph-name="oslash" unicode="&#xf8;" horiz-adv-x="935" 
d="M221 295v-39l490 524q-16 195 -150 195q-64 0 -126 -63t-107.5 -159t-73.5 -210q-33 -139 -33 -248zM375 20q94 0 177 127t128 306q35 131 35 249v17l-488 -522q23 -177 148 -177zM371 -20q-156 0 -244 108l-131 -139l-35 26l139 150q-57 91 -57 225q0 120 40.5 240
t108.5 214t166 153t205 59q164 0 256 -121l125 135l37 -26l-137 -148q49 -90 49 -211q0 -120 -40.5 -239.5t-109 -213.5t-167 -153t-205.5 -59z" />
    <glyph glyph-name="ugrave" unicode="&#xf9;" horiz-adv-x="993" 
d="M700 1505q-25 -204 33 -372h-6q-89 89 -138.5 178.5t-62.5 193.5h174zM920 88q-87 -108 -199 -108q-64 0 -101.5 38.5t-37.5 106.5q0 41 26 137q-71 -133 -155 -207.5t-191 -74.5q-90 0 -142 57.5t-52 150.5q0 42 12 91l129 509q10 48 10 76q0 76 -82 127v4h293
l-182 -719q-12 -44 -12 -79q0 -113 106 -113q42 0 86 23t87 67.5t80.5 119.5t61.5 171l134 530h170l-205 -827q-6 -18 -6 -35q0 -34 19.5 -53t53.5 -19q38 0 95 31z" />
    <glyph glyph-name="uacute" unicode="&#xfa;" horiz-adv-x="993" 
d="M700 1505h199q-65 -105 -155 -194.5t-218 -177.5h-8q121 151 182 372zM920 88q-87 -108 -199 -108q-64 0 -101.5 38.5t-37.5 106.5q0 41 26 137q-71 -133 -155 -207.5t-191 -74.5q-90 0 -142 57.5t-52 150.5q0 42 12 91l129 509q10 48 10 76q0 76 -82 127v4h293
l-182 -719q-12 -44 -12 -79q0 -113 106 -113q42 0 86 23t87 67.5t80.5 119.5t61.5 171l134 530h170l-205 -827q-6 -18 -6 -35q0 -34 19.5 -53t53.5 -19q38 0 95 31z" />
    <glyph glyph-name="ucircumflex" unicode="&#xfb;" horiz-adv-x="993" 
d="M870 1122q-55 33 -105 84.5t-77 100.5q-54 -46 -143 -98.5t-170 -86.5h-15q110 88 210 195.5t169 218.5h9q11 -220 137 -414h-15zM920 88q-87 -108 -199 -108q-64 0 -101.5 38.5t-37.5 106.5q0 41 26 137q-71 -133 -155 -207.5t-191 -74.5q-90 0 -142 57.5t-52 150.5
q0 42 12 91l129 509q10 48 10 76q0 76 -82 127v4h293l-182 -719q-12 -44 -12 -79q0 -113 106 -113q42 0 86 23t87 67.5t80.5 119.5t61.5 171l134 530h170l-205 -827q-6 -18 -6 -35q0 -34 19.5 -53t53.5 -19q38 0 95 31z" />
    <glyph glyph-name="udieresis" unicode="&#xfc;" horiz-adv-x="993" 
d="M844 1417q49 0 78.5 -29.5t29.5 -74.5q0 -51 -35.5 -87t-87.5 -36q-47 0 -76.5 29.5t-29.5 72.5q0 53 35 89t86 36zM526 1417q49 0 80 -29.5t31 -74.5q0 -51 -36 -87t-87 -36q-47 0 -77.5 29.5t-30.5 72.5q0 52 35 88.5t85 36.5zM920 88q-87 -108 -199 -108
q-64 0 -101.5 38.5t-37.5 106.5q0 41 26 137q-71 -133 -155 -207.5t-191 -74.5q-90 0 -142 57.5t-52 150.5q0 42 12 91l129 509q10 48 10 76q0 76 -82 127v4h293l-182 -719q-12 -44 -12 -79q0 -113 106 -113q42 0 86 23t87 67.5t80.5 119.5t61.5 171l134 530h170l-205 -827
q-6 -18 -6 -35q0 -34 19.5 -53t53.5 -19q38 0 95 31z" />
    <glyph glyph-name="yacute" unicode="&#xfd;" horiz-adv-x="968" 
d="M700 1505h199q-65 -105 -155 -194.5t-218 -177.5h-8q121 151 182 372zM967 995l-234 -929q-33 -135 -77 -233t-106 -170t-145 -108t-188 -36q-134 0 -219.5 59t-85.5 156q0 68 43.5 109.5t107.5 41.5q52 0 99 -35q-40 -5 -67 -39.5t-27 -97.5q0 -72 41.5 -114.5
t111.5 -42.5q55 0 100.5 24t79 64.5t64 109.5t53 142.5t49.5 181.5l45 184q-35 -63 -69 -109.5t-77 -88t-94.5 -63t-109.5 -21.5q-90 0 -142 57.5t-52 150.5q0 42 12 91l129 509q10 48 10 76q0 76 -82 127v4h293l-182 -719q-12 -44 -12 -79q0 -113 102 -113q45 0 91 23
t90 67.5t82.5 119.5t62.5 171l131 530h172z" />
    <glyph glyph-name="thorn" unicode="&#xfe;" horiz-adv-x="1003" 
d="M793 702q0 109 -37.5 172.5t-116.5 63.5q-92 0 -182 -101t-127 -259l-47 -187q-19 -78 -19 -129q0 -100 49 -153.5t121 -53.5q98 0 182 98t130.5 246.5t46.5 302.5zM569 1534l-192 -760q135 242 330 242q123 0 192.5 -91.5t69.5 -250.5q0 -171 -66.5 -331t-182.5 -261.5
t-249 -101.5q-101 0 -161 66.5t-68 168.5l-168 -676h-168l444 1788q10 36 10 74q0 43 -19.5 73.5t-61.5 55.5v4h290z" />
    <glyph glyph-name="ydieresis" unicode="&#xff;" horiz-adv-x="968" 
d="M844 1417q49 0 78.5 -29.5t29.5 -74.5q0 -51 -35.5 -87t-87.5 -36q-47 0 -76.5 29.5t-29.5 72.5q0 53 35 89t86 36zM526 1417q49 0 80 -29.5t31 -74.5q0 -51 -36 -87t-87 -36q-47 0 -77.5 29.5t-30.5 72.5q0 52 35 88.5t85 36.5zM967 995l-234 -929q-33 -135 -77 -233
t-106 -170t-145 -108t-188 -36q-134 0 -219.5 59t-85.5 156q0 68 43.5 109.5t107.5 41.5q52 0 99 -35q-40 -5 -67 -39.5t-27 -97.5q0 -72 41.5 -114.5t111.5 -42.5q55 0 100.5 24t79 64.5t64 109.5t53 142.5t49.5 181.5l45 184q-35 -63 -69 -109.5t-77 -88t-94.5 -63
t-109.5 -21.5q-90 0 -142 57.5t-52 150.5q0 42 12 91l129 509q10 48 10 76q0 76 -82 127v4h293l-182 -719q-12 -44 -12 -79q0 -113 102 -113q45 0 91 23t90 67.5t82.5 119.5t62.5 171l131 530h172z" />
    <glyph glyph-name="Amacron" unicode="&#x100;" horiz-adv-x="1243" 
d="M1141 1571h-498l16 71h500zM815 535l-70 608l-389 -608h459zM197 4v-4h-322v4q72 39 118.5 91.5t115.5 160.5l763 1198h9l141 -1223q13 -107 28.5 -147.5t67.5 -79.5v-4h-399v4q77 32 105 68t28 100q0 15 -4 51l-29 260h-495l-129 -204q-64 -99 -64 -168q0 -72 66 -107z
" />
    <glyph glyph-name="amacron" unicode="&#x101;" horiz-adv-x="1001" 
d="M928 1208h-500l18 72h498zM887 657l-119 -489q-19 -75 32.5 -99t129.5 23l2 -4q-87 -108 -197 -108q-63 0 -102 38t-39 109q0 38 16 94q-129 -241 -315 -241q-122 0 -192 90.5t-70 246.5q0 170 68.5 332t186 264.5t249.5 102.5q101 0 157 -61t66 -158q33 77 95.5 135.5
t135.5 83.5q-67 -194 -104 -359zM358 59q88 0 175 101t126 258l48 190q20 79 20 144q0 94 -44 143t-112 49q-73 0 -141.5 -60t-116 -154t-76 -210.5t-28.5 -228.5q0 -110 37 -171t112 -61z" />
    <glyph glyph-name="Abreve" unicode="&#x102;" horiz-adv-x="1243" 
d="M1204 1827q-85 -299 -317 -299q-109 0 -159.5 74.5t-25.5 224.5h15q-9 -80 46.5 -124t147.5 -44q93 0 171.5 44t107.5 124h14zM815 535l-70 608l-389 -608h459zM197 4v-4h-322v4q72 39 118.5 91.5t115.5 160.5l763 1198h9l141 -1223q13 -107 28.5 -147.5t67.5 -79.5v-4
h-399v4q77 32 105 68t28 100q0 15 -4 51l-29 260h-495l-129 -204q-64 -99 -64 -168q0 -72 66 -107z" />
    <glyph glyph-name="abreve" unicode="&#x103;" horiz-adv-x="1001" 
d="M971 1491q-38 -160 -123.5 -252t-190.5 -92t-149 92t-8 252h16q-16 -106 36 -157.5t136 -51.5q52 0 102 19.5t96.5 68.5t69.5 121h15zM887 657l-119 -489q-19 -75 32.5 -99t129.5 23l2 -4q-87 -108 -197 -108q-63 0 -102 38t-39 109q0 38 16 94q-129 -241 -315 -241
q-122 0 -192 90.5t-70 246.5q0 170 68.5 332t186 264.5t249.5 102.5q101 0 157 -61t66 -158q33 77 95.5 135.5t135.5 83.5q-67 -194 -104 -359zM358 59q88 0 175 101t126 258l48 190q20 79 20 144q0 94 -44 143t-112 49q-73 0 -141.5 -60t-116 -154t-76 -210.5t-28.5 -228.5
q0 -110 37 -171t112 -61z" />
    <glyph glyph-name="Aogonek" unicode="&#x104;" horiz-adv-x="1243" 
d="M811 -285q-105 -198 -262 -198q-61 0 -101 37t-40 96q0 188 372 383q40 21 56 53.5t16 83.5q0 13 -4 53l-27 260h-497l-129 -204q-64 -99 -64 -168q0 -72 66 -107v-4h-322v4q72 39 118.5 91.5t115.5 160.5l763 1198h9l141 -1223q13 -107 28.5 -147.5t67.5 -79.5v-4h-356
q-111 -70 -168 -150t-57 -159q0 -86 90 -86q93 0 178 114zM745 1143l-389 -608h459z" />
    <glyph glyph-name="aogonek" unicode="&#x105;" horiz-adv-x="1001" 
d="M625 -483q-61 0 -101.5 37t-40.5 96q0 93 74 173.5t201 156.5h-23q-62 0 -100.5 38t-38.5 109q0 38 16 94q-132 -241 -317 -241q-122 0 -191 90.5t-69 246.5q0 127 41 254t108.5 225t161 159t191.5 61q101 0 157 -61t66 -158q33 77 95.5 135.5t135.5 83.5
q-52 -151 -104 -359l-117 -489q-19 -75 32.5 -99t129.5 23l2 -4q-35 -40 -100 -86q-222 -153 -222 -311q0 -86 90 -86q93 0 179 114l6 -4q-105 -198 -262 -198zM358 59q88 0 175 101t126 258l48 190q20 79 20 142q0 95 -44 144.5t-112 49.5q-73 0 -141.5 -60t-116 -154
t-76 -210.5t-28.5 -228.5q0 -110 37 -171t112 -61z" />
    <glyph glyph-name="Cacute" unicode="&#x106;" horiz-adv-x="1107" 
d="M948 1829h217q-126 -180 -389 -307h-8q70 79 110.5 149.5t69.5 157.5zM838 1407q-91 0 -176.5 -55t-151.5 -148t-116 -210t-76.5 -247t-26.5 -253q0 -195 83.5 -305.5t225.5 -110.5q137 0 244.5 76t202.5 254l12 -2q-75 -199 -211 -314t-311 -115q-200 0 -320.5 144.5
t-120.5 374.5q0 140 37.5 281t107 261t160 214.5t203.5 148t230 53.5q63 0 117 -18.5t93.5 -37t67.5 -18.5q32 0 63 19t52 43l-88 -461h-6q-12 93 -34 167t-57 134t-87 92.5t-117 32.5z" />
    <glyph glyph-name="cacute" unicode="&#x107;" horiz-adv-x="790" 
d="M696 1505h199q-65 -105 -155 -194.5t-218 -177.5h-8q121 151 182 372zM578 1016q106 0 169.5 -55.5t63.5 -143.5q0 -78 -51 -128t-125 -50q-46 0 -80 26.5t-37 69.5q24 -14 51 -14q54 0 85.5 35t31.5 100q0 57 -28 88t-80 31q-93 0 -179.5 -97.5t-136 -240.5t-49.5 -279
q0 -146 53.5 -221.5t151.5 -75.5q85 0 152 50.5t126 146.5h11q-48 -134 -143.5 -206t-211.5 -72q-140 0 -227.5 100.5t-87.5 269.5q0 96 27.5 193.5t78 181.5t116.5 149.5t149 103.5t170 38z" />
    <glyph glyph-name="Ccircumflex" unicode="&#x108;" horiz-adv-x="1107" 
d="M1130 1507q-66 24 -123.5 61.5t-86.5 76.5q-105 -78 -306 -138h-14q244 169 363 351h10q25 -189 174 -351h-17zM838 1407q-91 0 -176.5 -55t-151.5 -148t-116 -210t-76.5 -247t-26.5 -253q0 -195 83.5 -305.5t225.5 -110.5q137 0 244.5 76t202.5 254l12 -2
q-75 -199 -211 -314t-311 -115q-200 0 -320.5 144.5t-120.5 374.5q0 140 37.5 281t107 261t160 214.5t203.5 148t230 53.5q63 0 117 -18.5t93.5 -37t67.5 -18.5q32 0 63 19t52 43l-88 -461h-6q-12 93 -34 167t-57 134t-87 92.5t-117 32.5z" />
    <glyph glyph-name="ccircumflex" unicode="&#x109;" horiz-adv-x="790" 
d="M866 1122q-55 33 -105 84.5t-77 100.5q-54 -46 -143 -98.5t-170 -86.5h-15q110 88 210 195.5t169 218.5h8q6 -110 43.5 -218t94.5 -196h-15zM578 1016q106 0 169.5 -55.5t63.5 -143.5q0 -78 -51 -128t-125 -50q-46 0 -80 26.5t-37 69.5q24 -14 51 -14q54 0 85.5 35
t31.5 100q0 57 -28 88t-80 31q-93 0 -179.5 -97.5t-136 -240.5t-49.5 -279q0 -146 53.5 -221.5t151.5 -75.5q85 0 152 50.5t126 146.5h11q-48 -134 -143.5 -206t-211.5 -72q-140 0 -227.5 100.5t-87.5 269.5q0 96 27.5 193.5t78 181.5t116.5 149.5t149 103.5t170 38z" />
    <glyph glyph-name="Cdotaccent" unicode="&#x10a;" horiz-adv-x="1107" 
d="M924 1794q52 0 83 -31.5t31 -79.5q0 -53 -36 -91t-91 -38q-51 0 -82.5 32t-31.5 79q0 54 36.5 91.5t90.5 37.5zM838 1407q-91 0 -176.5 -55t-151.5 -148t-116 -210t-76.5 -247t-26.5 -253q0 -195 83.5 -305.5t225.5 -110.5q137 0 244.5 76t202.5 254l12 -2
q-75 -199 -211 -314t-311 -115q-200 0 -320.5 144.5t-120.5 374.5q0 140 37.5 281t107 261t160 214.5t203.5 148t230 53.5q63 0 117 -18.5t93.5 -37t67.5 -18.5q32 0 63 19t52 43l-88 -461h-6q-12 93 -34 167t-57 134t-87 92.5t-117 32.5z" />
    <glyph glyph-name="cdotaccent" unicode="&#x10b;" horiz-adv-x="790" 
d="M688 1450q52 0 83.5 -31.5t31.5 -79.5q0 -54 -36.5 -91.5t-90.5 -37.5q-52 0 -83.5 31.5t-31.5 79.5q0 55 36 92t91 37zM578 1016q106 0 169.5 -55.5t63.5 -143.5q0 -78 -51 -128t-125 -50q-46 0 -80 26.5t-37 69.5q24 -14 51 -14q54 0 85.5 35t31.5 100q0 57 -28 88
t-80 31q-93 0 -179.5 -97.5t-136 -240.5t-49.5 -279q0 -146 53.5 -221.5t151.5 -75.5q85 0 152 50.5t126 146.5h11q-48 -134 -143.5 -206t-211.5 -72q-140 0 -227.5 100.5t-87.5 269.5q0 96 27.5 193.5t78 181.5t116.5 149.5t149 103.5t170 38z" />
    <glyph glyph-name="Ccaron" unicode="&#x10c;" horiz-adv-x="1107" 
d="M711 1858q66 -24 124 -61.5t87 -76.5q106 79 305 138h14q-242 -168 -362 -351h-11q-25 189 -174 351h17zM838 1407q-91 0 -176.5 -55t-151.5 -148t-116 -210t-76.5 -247t-26.5 -253q0 -195 83.5 -305.5t225.5 -110.5q137 0 244.5 76t202.5 254l12 -2q-75 -199 -211 -314
t-311 -115q-200 0 -320.5 144.5t-120.5 374.5q0 140 37.5 281t107 261t160 214.5t203.5 148t230 53.5q63 0 117 -18.5t93.5 -37t67.5 -18.5q32 0 63 19t52 43l-88 -461h-6q-12 93 -34 167t-57 134t-87 92.5t-117 32.5z" />
    <glyph glyph-name="ccaron" unicode="&#x10d;" horiz-adv-x="790" 
d="M494 1538q57 -34 107 -85.5t77 -100.5q51 45 139 96.5t172 89.5h15q-244 -201 -379 -416h-9q-8 211 -135 416h13zM578 1016q106 0 169.5 -55.5t63.5 -143.5q0 -78 -51 -128t-125 -50q-46 0 -80 26.5t-37 69.5q24 -14 51 -14q54 0 85.5 35t31.5 100q0 57 -28 88t-80 31
q-93 0 -179.5 -97.5t-136 -240.5t-49.5 -279q0 -146 53.5 -221.5t151.5 -75.5q85 0 152 50.5t126 146.5h11q-48 -134 -143.5 -206t-211.5 -72q-140 0 -227.5 100.5t-87.5 269.5q0 96 27.5 193.5t78 181.5t116.5 149.5t149 103.5t170 38z" />
    <glyph glyph-name="Dcaron" unicode="&#x10e;" horiz-adv-x="1267" 
d="M641 1858q66 -24 124 -61.5t87 -76.5q106 79 305 138h14q-242 -168 -362 -351h-10q-25 189 -174 351h16zM-59 0v4q79 29 116 84t64 164l233 930q21 89 21 127q0 83 -78 121v4h416q259 0 411 -142t152 -377q0 -190 -64.5 -358.5t-177.5 -291t-275 -194t-349 -71.5h-469z
M244 51h164q124 0 233 48t189 131.5t137.5 195t86.5 241.5t29 267q0 217 -96.5 332.5t-290.5 115.5h-118z" />
    <glyph glyph-name="dcaron" unicode="&#x10f;" horiz-adv-x="1028" 
d="M1442 1534q-41 -95 -132.5 -221.5t-166.5 -196.5h-6q92 187 127 418h178zM303 -20q-124 0 -197 91t-73 246q0 171 68.5 332.5t186.5 264t251 102.5q100 0 157.5 -65.5t67.5 -168.5l133 545q10 52 10 80q0 42 -21.5 69.5t-68.5 53.5v4h301l-336 -1366q-6 -18 -6 -35
q0 -34 20 -53t54 -19q37 0 94 31l2 -4q-87 -108 -198 -108q-64 0 -102 38.5t-38 106.5q0 30 19 98q-133 -243 -324 -243zM209 291q0 -232 162 -232q91 0 175.5 98t125.5 257l49 190q18 74 18 133q0 98 -48.5 152.5t-119.5 54.5q-74 0 -142.5 -60.5t-116 -154.5t-75.5 -210.5
t-28 -227.5z" />
    <glyph glyph-name="Dcroat" unicode="&#x110;" horiz-adv-x="1271" 
d="M416 0h-469v4q79 29 116 84t64 164l113 453h-101l13 51h102l106 426q21 89 21 127q0 83 -78 121v4h416q259 0 411 -142t152 -377q0 -190 -64.5 -358.5t-177.5 -291t-275 -194t-349 -71.5zM250 51h164q155 0 284.5 73.5t214 197t131 282t46.5 330.5q0 217 -97 332.5
t-291 115.5h-118l-158 -626h252l-12 -51h-252z" />
    <glyph glyph-name="dcroat" unicode="&#x111;" horiz-adv-x="1028" 
d="M748 -20q-64 0 -102 38.5t-38 106.5q0 30 19 98q-133 -243 -324 -243q-124 0 -197 91t-73 246q0 171 68.5 332.5t186.5 264t251 102.5q100 0 157.5 -65.5t67.5 -168.5l96 394h-233l12 51h233l25 100q10 52 10 80q0 42 -21.5 69.5t-68.5 53.5v4h301l-76 -307h113l-12 -51
h-113l-248 -1008q-6 -18 -6 -35q0 -34 20 -53t54 -19q37 0 94 31l2 -4q-87 -108 -198 -108zM209 291q0 -232 162 -232q91 0 175.5 98t125.5 257l49 190q18 74 18 133q0 98 -48.5 152.5t-119.5 54.5q-74 0 -142.5 -60.5t-116 -154.5t-75.5 -210.5t-28 -227.5z" />
    <glyph glyph-name="Emacron" unicode="&#x112;" 
d="M1059 1571h-498l17 71h499zM297 1434h778q75 0 107 14l-27 -350h-4q-21 78 -45.5 128t-65 87.5t-99.5 54t-144 16.5h-222l-155 -630h155q125 0 190.5 42.5t154.5 184.5h4l-117 -471h-4q-6 48 -14 80t-23 54.5t-29.5 34.5t-43.5 18.5t-55.5 8t-74.5 1.5h-155l-164 -658
h229q119 0 213 38.5t168 108t160 187.5h4l-148 -383h-929v4q79 29 116 84t64 164l233 930q19 81 19 127q0 84 -76 121v4z" />
    <glyph glyph-name="emacron" unicode="&#x113;" horiz-adv-x="815" 
d="M872 1208h-499l18 72h498zM360 -20q-147 0 -235 98.5t-88 269.5q0 160 74 314t204 254t277 100q109 0 173 -55t64 -144q0 -83 -47 -147.5t-131 -106.5t-191 -66t-237 -32q-12 -67 -12 -131q0 -140 55.5 -208.5t159.5 -68.5q168 0 299 193h10q-54 -131 -154.5 -200.5
t-220.5 -69.5zM590 975q-77 0 -153 -71t-130 -180t-80 -232q97 13 177.5 41.5t143.5 73t98.5 110t35.5 145.5q0 53 -23 83t-69 30z" />
    <glyph glyph-name="Ebreve" unicode="&#x114;" 
d="M1120 1827q-85 -299 -317 -299q-109 0 -159.5 74.5t-25.5 224.5h15q-9 -80 46.5 -124t147.5 -44q93 0 171.5 44t107.5 124h14zM297 1434h778q75 0 107 14l-27 -350h-4q-21 78 -45.5 128t-65 87.5t-99.5 54t-144 16.5h-222l-155 -630h155q125 0 190.5 42.5t154.5 184.5h4
l-117 -471h-4q-6 48 -14 80t-23 54.5t-29.5 34.5t-43.5 18.5t-55.5 8t-74.5 1.5h-155l-164 -658h229q119 0 213 38.5t168 108t160 187.5h4l-148 -383h-929v4q79 29 116 84t64 164l233 930q19 81 19 127q0 84 -76 121v4z" />
    <glyph glyph-name="ebreve" unicode="&#x115;" horiz-adv-x="815" 
d="M932 1491q-38 -160 -123.5 -252t-190.5 -92t-149 92t-8 252h16q-16 -106 36 -157.5t136 -51.5q53 0 103 19.5t96.5 68.5t69.5 121h14zM360 -20q-147 0 -235 98.5t-88 269.5q0 160 74 314t204 254t277 100q109 0 173 -55t64 -144q0 -83 -47 -147.5t-131 -106.5t-191 -66
t-237 -32q-12 -67 -12 -131q0 -140 55.5 -208.5t159.5 -68.5q168 0 299 193h10q-54 -131 -154.5 -200.5t-220.5 -69.5zM590 975q-77 0 -153 -71t-130 -180t-80 -232q97 13 177.5 41.5t143.5 73t98.5 110t35.5 145.5q0 53 -23 83t-69 30z" />
    <glyph glyph-name="Edotaccent" unicode="&#x116;" 
d="M844 1794q52 0 83 -31.5t31 -79.5q0 -53 -36 -91t-91 -38q-51 0 -82.5 32t-31.5 79q0 54 36.5 91.5t90.5 37.5zM297 1434h778q75 0 107 14l-27 -350h-4q-21 78 -45.5 128t-65 87.5t-99.5 54t-144 16.5h-222l-155 -630h155q125 0 190.5 42.5t154.5 184.5h4l-117 -471h-4
q-6 48 -14 80t-23 54.5t-29.5 34.5t-43.5 18.5t-55.5 8t-74.5 1.5h-155l-164 -658h229q119 0 213 38.5t168 108t160 187.5h4l-148 -383h-929v4q79 29 116 84t64 164l233 930q19 81 19 127q0 84 -76 121v4z" />
    <glyph glyph-name="edotaccent" unicode="&#x117;" horiz-adv-x="815" 
d="M668 1450q52 0 83 -31.5t31 -79.5q0 -54 -36.5 -91.5t-90.5 -37.5q-52 0 -83 31.5t-31 79.5q0 55 36 92t91 37zM360 -20q-147 0 -235 98.5t-88 269.5q0 160 74 314t204 254t277 100q109 0 173 -55t64 -144q0 -83 -47 -147.5t-131 -106.5t-191 -66t-237 -32
q-12 -67 -12 -131q0 -140 55.5 -208.5t159.5 -68.5q168 0 299 193h10q-54 -131 -154.5 -200.5t-220.5 -69.5zM590 975q-77 0 -153 -71t-130 -180t-80 -232q97 13 177.5 41.5t143.5 73t98.5 110t35.5 145.5q0 53 -23 83t-69 30z" />
    <glyph glyph-name="Eogonek" unicode="&#x118;" 
d="M721 -285q-105 -198 -264 -198q-61 0 -100.5 37t-39.5 96q0 52 24.5 102t70.5 94t97 80t118 74h-686v4q79 29 116 84t64 164l233 930q19 81 19 127q0 84 -76 121v4h778q75 0 107 14l-27 -350h-4q-21 78 -45.5 128t-65 87.5t-99.5 54t-144 16.5h-222l-155 -630h155
q125 0 190.5 42.5t154.5 184.5h4l-117 -471h-4q-6 48 -14 80t-23 54.5t-29.5 34.5t-43.5 18.5t-55.5 8t-74.5 1.5h-155l-164 -658h229q119 0 213 38.5t168 108t160 187.5h4l-148 -383h-202q-222 -161 -222 -309q0 -41 23 -63.5t66 -22.5q91 0 180 114z" />
    <glyph glyph-name="eogonek" unicode="&#x119;" horiz-adv-x="815" 
d="M295 -483q-61 0 -100 37t-39 96q0 97 77 178.5t211 159.5q-39 -8 -84 -8q-147 0 -235 98.5t-88 269.5q0 160 74 314t204 254t277 100q109 0 173 -55t64 -144q0 -82 -46.5 -146.5t-130.5 -106.5t-191.5 -66.5t-237.5 -32.5q-12 -67 -12 -131q0 -140 55.5 -208.5
t159.5 -68.5q168 0 299 193h10q-61 -150 -205 -236q-245 -151 -245 -323q0 -41 22.5 -63.5t65.5 -22.5q91 0 180 114l6 -4q-105 -198 -264 -198zM229 494q132 18 231 61.5t160.5 122t61.5 184.5q0 53 -23 83t-69 30q-78 0 -153.5 -70.5t-129 -179t-78.5 -231.5z" />
    <glyph glyph-name="Ecaron" unicode="&#x11a;" 
d="M629 1858q66 -24 124 -61.5t87 -76.5q106 79 305 138h14q-242 -168 -362 -351h-11q-25 189 -174 351h17zM297 1434h778q75 0 107 14l-27 -350h-4q-21 78 -45.5 128t-65 87.5t-99.5 54t-144 16.5h-222l-155 -630h155q125 0 190.5 42.5t154.5 184.5h4l-117 -471h-4
q-6 48 -14 80t-23 54.5t-29.5 34.5t-43.5 18.5t-55.5 8t-74.5 1.5h-155l-164 -658h229q119 0 213 38.5t168 108t160 187.5h4l-148 -383h-929v4q79 29 116 84t64 164l233 930q19 81 19 127q0 84 -76 121v4z" />
    <glyph glyph-name="ecaron" unicode="&#x11b;" horiz-adv-x="815" 
d="M465 1538q57 -34 107 -85.5t77 -100.5q51 45 139 96.5t173 89.5h14q-244 -201 -379 -416h-8q-8 211 -135 416h12zM360 -20q-147 0 -235 98.5t-88 269.5q0 160 74 314t204 254t277 100q109 0 173 -55t64 -144q0 -83 -47 -147.5t-131 -106.5t-191 -66t-237 -32
q-12 -67 -12 -131q0 -140 55.5 -208.5t159.5 -68.5q168 0 299 193h10q-54 -131 -154.5 -200.5t-220.5 -69.5zM590 975q-77 0 -153 -71t-130 -180t-80 -232q97 13 177.5 41.5t143.5 73t98.5 110t35.5 145.5q0 53 -23 83t-69 30z" />
    <glyph glyph-name="Gcircumflex" unicode="&#x11c;" horiz-adv-x="1234" 
d="M1163 1507q-66 24 -124 61.5t-87 76.5q-106 -79 -305 -138h-14q242 168 362 351h11q25 -189 174 -351h-17zM907 350l21 72q20 82 20 123q0 82 -76 125v4h381v-4q-64 -29 -96.5 -84t-60.5 -164l-115 -442h-4l-90 223q-60 -105 -152 -164t-207 -59q-196 0 -315 137
t-119 362q0 186 64 366t168 313t241.5 214.5t278.5 81.5q65 0 122.5 -19t99.5 -38t69 -19q58 0 114 60l-88 -461h-6q-12 93 -35.5 168t-60 135.5t-91 93.5t-122.5 33q-92 0 -180 -58t-156 -156t-120 -221t-79.5 -260t-27.5 -266q0 -183 72 -286t204 -103q123 0 216.5 75.5
t129.5 217.5z" />
    <glyph glyph-name="gcircumflex" unicode="&#x11d;" horiz-adv-x="944" 
d="M903 1143q-55 33 -105 84t-77 100q-54 -46 -142.5 -97.5t-170.5 -86.5h-15q242 193 379 413h8q11 -218 138 -413h-15zM670 823q0 158 -113 158q-84 0 -146 -88t-89 -213q-17 -80 -17 -133q0 -158 113 -158q85 0 147.5 87.5t89.5 213.5q15 84 15 133zM799 -68
q0 -117 -77 -212t-202 -146t-270 -51q-76 0 -146.5 15.5t-129 45t-93.5 79t-35 112.5q0 101 91.5 166.5t228.5 74.5q-61 11 -101 52.5t-40 107.5q0 83 63 144.5t150 85.5q-103 76 -103 212q0 75 30 146t83.5 127.5t135 90.5t177.5 34q134 0 211 -84q38 70 91.5 114t113.5 44
q55 0 84 -28t29 -71q0 -64 -43.5 -100t-106.5 -43v4q27 24 27 63q0 26 -17.5 42t-48.5 16q-63 0 -113 -60q54 -69 54 -161q0 -76 -30 -147.5t-83.5 -128t-134.5 -90.5t-176 -34q-92 0 -156 39q-48 -19 -79 -53t-31 -80q0 -44 30 -68t84 -26l240 -4q136 -2 214.5 -60
t78.5 -168zM436 2l-157 4q-121 0 -196 -64t-75 -175q0 -97 69 -150t187 -53q162 0 269.5 82.5t107.5 210.5q0 76 -50 109.5t-155 35.5z" />
    <glyph glyph-name="Gbreve" unicode="&#x11e;" horiz-adv-x="1234" 
d="M1235 1827q-85 -299 -317 -299q-109 0 -159.5 74.5t-25.5 224.5h15q-9 -80 46.5 -124t147.5 -44q93 0 171.5 44t107.5 124h14zM907 350l21 72q20 82 20 123q0 82 -76 125v4h381v-4q-64 -29 -96.5 -84t-60.5 -164l-115 -442h-4l-90 223q-60 -105 -152 -164t-207 -59
q-196 0 -315 137t-119 362q0 186 64 366t168 313t241.5 214.5t278.5 81.5q65 0 122.5 -19t99.5 -38t69 -19q58 0 114 60l-88 -461h-6q-12 93 -35.5 168t-60 135.5t-91 93.5t-122.5 33q-92 0 -180 -58t-156 -156t-120 -221t-79.5 -260t-27.5 -266q0 -183 72 -286t204 -103
q123 0 216.5 75.5t129.5 217.5z" />
    <glyph glyph-name="gbreve" unicode="&#x11f;" horiz-adv-x="944" 
d="M983 1491q-38 -160 -123.5 -252t-189.5 -92q-105 0 -149.5 92t-8.5 252h16q-16 -106 36 -157.5t136 -51.5q53 0 103 19.5t96.5 68.5t69.5 121h14zM670 823q0 158 -113 158q-84 0 -146 -88t-89 -213q-17 -80 -17 -133q0 -158 113 -158q85 0 147.5 87.5t89.5 213.5
q15 84 15 133zM799 -68q0 -117 -77 -212t-202 -146t-270 -51q-76 0 -146.5 15.5t-129 45t-93.5 79t-35 112.5q0 101 91.5 166.5t228.5 74.5q-61 11 -101 52.5t-40 107.5q0 83 63 144.5t150 85.5q-103 76 -103 212q0 75 30 146t83.5 127.5t135 90.5t177.5 34q134 0 211 -84
q38 70 91.5 114t113.5 44q55 0 84 -28t29 -71q0 -64 -43.5 -100t-106.5 -43v4q27 24 27 63q0 26 -17.5 42t-48.5 16q-63 0 -113 -60q54 -69 54 -161q0 -76 -30 -147.5t-83.5 -128t-134.5 -90.5t-176 -34q-92 0 -156 39q-48 -19 -79 -53t-31 -80q0 -44 30 -68t84 -26l240 -4
q136 -2 214.5 -60t78.5 -168zM436 2l-157 4q-121 0 -196 -64t-75 -175q0 -97 69 -150t187 -53q162 0 269.5 82.5t107.5 210.5q0 76 -50 109.5t-155 35.5z" />
    <glyph glyph-name="Gdotaccent" unicode="&#x120;" horiz-adv-x="1234" 
d="M956 1794q52 0 83.5 -31.5t31.5 -79.5q0 -53 -36 -91t-91 -38q-51 0 -83 32t-32 79q0 54 36.5 91.5t90.5 37.5zM907 350l21 72q20 82 20 123q0 82 -76 125v4h381v-4q-64 -29 -96.5 -84t-60.5 -164l-115 -442h-4l-90 223q-60 -105 -152 -164t-207 -59q-196 0 -315 137
t-119 362q0 186 64 366t168 313t241.5 214.5t278.5 81.5q65 0 122.5 -19t99.5 -38t69 -19q58 0 114 60l-88 -461h-6q-12 93 -35.5 168t-60 135.5t-91 93.5t-122.5 33q-92 0 -180 -58t-156 -156t-120 -221t-79.5 -260t-27.5 -266q0 -183 72 -286t204 -103q123 0 216.5 75.5
t129.5 217.5z" />
    <glyph glyph-name="gdotaccent" unicode="&#x121;" horiz-adv-x="944" 
d="M719 1450q52 0 83.5 -31.5t31.5 -79.5q0 -54 -36.5 -91.5t-90.5 -37.5q-52 0 -83.5 31.5t-31.5 79.5q0 55 36 92t91 37zM670 823q0 158 -113 158q-84 0 -146 -88t-89 -213q-17 -80 -17 -133q0 -158 113 -158q85 0 147.5 87.5t89.5 213.5q15 84 15 133zM799 -68
q0 -117 -77 -212t-202 -146t-270 -51q-76 0 -146.5 15.5t-129 45t-93.5 79t-35 112.5q0 101 91.5 166.5t228.5 74.5q-61 11 -101 52.5t-40 107.5q0 83 63 144.5t150 85.5q-103 76 -103 212q0 75 30 146t83.5 127.5t135 90.5t177.5 34q134 0 211 -84q38 70 91.5 114t113.5 44
q55 0 84 -28t29 -71q0 -64 -43.5 -100t-106.5 -43v4q27 24 27 63q0 26 -17.5 42t-48.5 16q-63 0 -113 -60q54 -69 54 -161q0 -76 -30 -147.5t-83.5 -128t-134.5 -90.5t-176 -34q-92 0 -156 39q-48 -19 -79 -53t-31 -80q0 -44 30 -68t84 -26l240 -4q136 -2 214.5 -60
t78.5 -168zM436 2l-157 4q-121 0 -196 -64t-75 -175q0 -97 69 -150t187 -53q162 0 269.5 82.5t107.5 210.5q0 76 -50 109.5t-155 35.5z" />
    <glyph glyph-name="uni0122" unicode="&#x122;" horiz-adv-x="1234" 
d="M907 350l21 72q20 82 20 123q0 82 -76 125v4h381v-4q-64 -29 -96.5 -84t-60.5 -164l-115 -442h-4l-90 223q-60 -105 -152 -164t-207 -59q-196 0 -315 137t-119 362q0 186 64 366t168 313t241.5 214.5t278.5 81.5q65 0 122.5 -19t99.5 -38t69 -19q58 0 114 60l-88 -461h-6
q-12 93 -35.5 168t-60 135.5t-91 93.5t-122.5 33q-92 0 -180 -58t-156 -156t-120 -221t-79.5 -260t-27.5 -266q0 -183 72 -286t204 -103q123 0 216.5 75.5t129.5 217.5zM606 -250q0 -95 -81 -165t-218 -74l6 26q190 22 213 164q-36 -25 -80 -25q-37 0 -62.5 24t-27.5 56
q0 54 36.5 89.5t92.5 35.5q57 0 89 -35.5t32 -95.5z" />
    <glyph glyph-name="uni0123" unicode="&#x123;" horiz-adv-x="944" 
d="M565 1292q0 94 81.5 165t217.5 75l-6 -29q-190 -22 -213 -162q38 23 80 23q38 0 64 -23.5t28 -56.5q0 -53 -37 -88t-92 -35q-57 0 -90 35t-33 96zM670 823q0 158 -113 158q-84 0 -146 -88t-89 -213q-17 -80 -17 -133q0 -158 113 -158q85 0 147.5 87.5t89.5 213.5
q15 84 15 133zM799 -68q0 -117 -77 -212t-202 -146t-270 -51q-76 0 -146.5 15.5t-129 45t-93.5 79t-35 112.5q0 101 91.5 166.5t228.5 74.5q-61 11 -101 52.5t-40 107.5q0 83 63 144.5t150 85.5q-103 76 -103 212q0 75 30 146t83.5 127.5t135 90.5t177.5 34q134 0 211 -84
q38 70 91.5 114t113.5 44q55 0 84 -28t29 -71q0 -64 -43.5 -100t-106.5 -43v4q27 24 27 63q0 26 -17.5 42t-48.5 16q-63 0 -113 -60q54 -69 54 -161q0 -76 -30 -147.5t-83.5 -128t-134.5 -90.5t-176 -34q-92 0 -156 39q-48 -19 -79 -53t-31 -80q0 -44 30 -68t84 -26l240 -4
q136 -2 214.5 -60t78.5 -168zM436 2l-157 4q-121 0 -196 -64t-75 -175q0 -97 69 -150t187 -53q162 0 269.5 82.5t107.5 210.5q0 76 -50 109.5t-155 35.5z" />
    <glyph glyph-name="Hcircumflex" unicode="&#x124;" horiz-adv-x="1347" 
d="M1182 1507q-66 24 -124 61.5t-87 76.5q-106 -79 -305 -138h-15q244 169 363 351h10q25 -189 174 -351h-16zM352 4v-4h-411v4q79 29 116 84t64 164l233 930q19 81 19 127q0 84 -76 121v4h412v-4q-79 -29 -117 -84.5t-64 -163.5l-106 -426h633l106 426q19 81 19 127
q0 84 -76 121v4h412v-4q-79 -29 -117 -84.5t-64 -163.5l-233 -930q-21 -86 -21 -125q0 -45 18 -74t60 -49v-4h-411v4q79 29 116 84t64 164l112 450h-632l-113 -450q-21 -86 -21 -125q0 -45 18 -74t60 -49z" />
    <glyph glyph-name="hcircumflex" unicode="&#x125;" horiz-adv-x="999" 
d="M1008 1589q-66 24 -124 61t-87 76q-104 -77 -305 -137h-15q245 170 363 350h10q25 -187 174 -350h-16zM319 530l-133 -530h-168l330 1327q10 52 10 80q0 42 -21.5 69.5t-68.5 53.5v4h301l-200 -799q68 128 162 204.5t202 76.5q88 0 136.5 -54t48.5 -143q0 -39 -13 -96
l-139 -555q-4 -24 -4 -35q0 -33 19.5 -52.5t52.5 -19.5q40 0 94 31l2 -4q-87 -108 -197 -108q-65 0 -104 37t-39 102q0 30 8 61l135 535q12 53 12 96q0 100 -98 100q-94 0 -187.5 -95.5t-140.5 -285.5z" />
    <glyph glyph-name="Hbar" unicode="&#x126;" horiz-adv-x="1357" 
d="M1049 715l63 256h-633l-63 -256h633zM358 4v-4h-411v4q78 29 115 84t65 164l178 719h-119l13 51h120l39 160q21 89 21 127q0 44 -18 72.5t-60 48.5v4h412v-4q-78 -29 -115.5 -84.5t-65.5 -163.5l-38 -160h632l39 160q21 89 21 127q0 44 -18 72.5t-60 48.5v4h412v-4
q-78 -29 -115.5 -84.5t-65.5 -163.5l-39 -160h113l-12 -51h-115l-178 -719q-21 -74 -21 -125q0 -45 18 -74t60 -49v-4h-411v4q78 29 115 84t65 164l102 410h-633l-102 -410q-20 -70 -20 -125q0 -45 17.5 -74t59.5 -49z" />
    <glyph glyph-name="hbar" unicode="&#x127;" horiz-adv-x="999" 
d="M930 88q-87 -108 -197 -108q-65 0 -104 37t-39 102q0 30 8 61l135 535q12 53 12 96q0 100 -98 100q-94 0 -187.5 -95.5t-140.5 -285.5l-133 -530h-168l293 1176h-104l12 51h105l24 100q10 52 10 80q0 42 -21.5 69.5t-68.5 53.5v4h301l-77 -307h243l-12 -51h-244
l-110 -441q68 128 162 204.5t202 76.5q88 0 136.5 -54t48.5 -143q0 -39 -13 -96l-139 -555q-4 -24 -4 -35q0 -33 19.5 -52.5t52.5 -19.5q40 0 94 31z" />
    <glyph glyph-name="Itilde" unicode="&#x128;" horiz-adv-x="538" 
d="M901 1823q-50 -132 -110.5 -202.5t-126.5 -70.5q-32 0 -65.5 22t-57.5 49t-55 49t-60 22q-92 0 -176 -150h-19q50 132 111 202.5t127 70.5q32 0 65.5 -22t57.5 -48t55 -48t60 -22q93 0 176 148h18zM297 1434h412v-4q-79 -29 -117 -84.5t-64 -163.5l-233 -930
q-21 -86 -21 -125q0 -85 78 -123v-4h-411v4q79 29 116 84t64 164l233 930q21 89 21 127q0 83 -78 121v4z" />
    <glyph glyph-name="itilde" unicode="&#x129;" horiz-adv-x="481" 
d="M709 1454q-43 -132 -97 -203t-112 -71q-24 0 -47 14.5t-41.5 35t-36 40.5t-38 34.5t-40.5 14.5q-72 0 -143 -148h-17q41 133 95 204t114 71q29 0 57.5 -21.5t48 -48t45 -48t48.5 -21.5q41 0 74.5 37.5t70.5 109.5h19zM438 995l-207 -827q-4 -24 -4 -35q0 -33 19.5 -52.5
t52.5 -19.5q40 0 94 31l2 -4q-87 -108 -196 -108q-65 0 -104.5 37t-39.5 102q0 30 8 61l152 608q12 44 12 74q0 77 -84 129v4h295z" />
    <glyph glyph-name="Imacron" unicode="&#x12a;" horiz-adv-x="538" 
d="M786 1571h-497l16 71h500zM297 1434h412v-4q-79 -29 -117 -84.5t-64 -163.5l-233 -930q-21 -86 -21 -125q0 -85 78 -123v-4h-411v4q79 29 116 84t64 164l233 930q21 89 21 127q0 83 -78 121v4z" />
    <glyph glyph-name="imacron" unicode="&#x12b;" horiz-adv-x="481" 
d="M596 1208h-406l17 72h407zM438 995l-207 -827q-4 -24 -4 -35q0 -33 19.5 -52.5t52.5 -19.5q40 0 94 31l2 -4q-87 -108 -196 -108q-65 0 -104.5 37t-39.5 102q0 30 8 61l152 608q12 44 12 74q0 77 -84 129v4h295z" />
    <glyph glyph-name="Ibreve" unicode="&#x12c;" horiz-adv-x="538" 
d="M850 1827q-43 -151 -124.5 -225t-193.5 -74q-109 0 -159 74.5t-25 224.5h14q-9 -80 47 -124t148 -44q93 0 171.5 44t107.5 124h14zM297 1434h412v-4q-79 -29 -117 -84.5t-64 -163.5l-233 -930q-21 -86 -21 -125q0 -85 78 -123v-4h-411v4q79 29 116 84t64 164l233 930
q21 89 21 127q0 83 -78 121v4z" />
    <glyph glyph-name="ibreve" unicode="&#x12d;" horiz-adv-x="481" 
d="M680 1491q-38 -164 -114.5 -254t-178.5 -90q-103 0 -139 90.5t2 253.5h16q-16 -107 27 -158t125 -51q80 0 146 50.5t102 158.5h14zM438 995l-207 -827q-4 -24 -4 -35q0 -33 19.5 -52.5t52.5 -19.5q40 0 94 31l2 -4q-87 -108 -196 -108q-65 0 -104.5 37t-39.5 102
q0 30 8 61l152 608q12 44 12 74q0 77 -84 129v4h295z" />
    <glyph glyph-name="Iogonek" unicode="&#x12e;" horiz-adv-x="538" 
d="M287 -285q-105 -198 -264 -198q-61 0 -100.5 37t-39.5 96q0 52 24.5 102t70.5 94t97 80t118 74h-252v4q79 29 116 84t64 164l233 930q21 89 21 127q0 83 -78 121v4h412v-4q-79 -29 -117 -84.5t-64 -163.5l-233 -930q-21 -86 -21 -125q0 -85 78 -123v-4h-119
q-221 -161 -221 -309q0 -41 22.5 -63.5t65.5 -22.5q92 0 181 114z" />
    <glyph glyph-name="iogonek" unicode="&#x12f;" horiz-adv-x="481" 
d="M416 1450q52 0 83 -31.5t31 -79.5q0 -55 -36 -92t-91 -37q-52 0 -83 31.5t-31 79.5q0 54 36.5 91.5t90.5 37.5zM86 -483q-61 0 -101 37t-40 96q0 93 74 173.5t202 158.5q-8 -2 -22 -2q-79 0 -119 54.5t-17 145.5l152 608q19 81 2 124.5t-74 78.5v4h295l-207 -827
q-19 -75 32.5 -99t129.5 23l2 -4q-33 -43 -90 -82q-231 -153 -231 -315q0 -86 90 -86q92 0 178 114l6 -4q-105 -198 -262 -198z" />
    <glyph glyph-name="Idotaccent" unicode="&#x130;" horiz-adv-x="538" 
d="M571 1794q52 0 83.5 -31.5t31.5 -79.5q0 -53 -36 -91t-91 -38q-51 0 -83 32t-32 79q0 54 36.5 91.5t90.5 37.5zM297 1434h412v-4q-79 -29 -117 -84.5t-64 -163.5l-233 -930q-21 -86 -21 -125q0 -85 78 -123v-4h-411v4q79 29 116 84t64 164l233 930q21 89 21 127
q0 83 -78 121v4z" />
    <glyph glyph-name="dotlessi" unicode="&#x131;" horiz-adv-x="481" 
d="M438 995l-207 -827q-4 -24 -4 -35q0 -33 19.5 -52.5t52.5 -19.5q40 0 94 31l2 -4q-87 -108 -196 -108q-65 0 -104.5 37t-39.5 102q0 30 8 61l152 608q12 44 12 74q0 77 -84 129v4h295z" />
    <glyph glyph-name="Jcircumflex" unicode="&#x134;" horiz-adv-x="956" 
d="M1217 1507q-66 24 -124 61.5t-87 76.5q-105 -78 -306 -138h-14q244 169 363 351h10q25 -189 174 -351h-16zM594 360l205 822q20 82 20 125q0 85 -78 123v4h412v-4q-78 -29 -115 -84t-65 -164l-199 -797q-50 -195 -168 -300t-291 -105q-148 0 -239.5 71t-91.5 185
q0 105 65.5 166t153.5 61q46 0 80.5 -17.5t50.5 -44.5q-84 -3 -134 -58.5t-50 -139.5q0 -80 45 -132.5t124 -52.5q57 0 101 24t76 72.5t54.5 106.5t43.5 139z" />
    <glyph glyph-name="jcircumflex" unicode="&#x135;" horiz-adv-x="446" 
d="M586 1122q-107 66 -168 176q-107 -94 -297 -176h-15q218 177 369 414h8q10 -247 115 -414h-12zM440 995l-233 -925q-75 -303 -167.5 -427t-240.5 -124q-99 0 -161 44t-62 120q0 68 47 109.5t119 41.5q59 0 88 -29q-53 -13 -81 -52.5t-28 -96.5q0 -46 22.5 -73t63.5 -27
q65 0 103 77t88 277l219 878q12 44 12 74q0 79 -84 129v4h295z" />
    <glyph glyph-name="uni0136" unicode="&#x136;" horiz-adv-x="1230" 
d="M352 4v-4h-411v4q79 29 116 84t64 164l233 930q21 89 21 127q0 83 -78 121v4h412v-4q-79 -29 -117 -84.5t-64 -163.5l-131 -523l645 588q58 55 58 101q0 55 -68 82v4h400v-4q-105 -34 -184 -85t-163 -128l-426 -381l285 -613q45 -96 83 -144.5t97 -74.5v-4h-403v4
q74 38 74 94q0 25 -25 80l-246 537l-147 -135l-82 -328q-21 -86 -21 -125q0 -85 78 -123zM582 -250q0 -95 -81 -165t-218 -74l6 26q190 22 213 164q-36 -25 -80 -25q-37 0 -62.5 24t-27.5 56q0 54 36.5 89.5t92.5 35.5q57 0 89 -35.5t32 -95.5z" />
    <glyph glyph-name="uni0137" unicode="&#x137;" horiz-adv-x="970" 
d="M575 1534l-217 -860q79 155 186 248.5t226 93.5q86 0 137 -51.5t51 -135.5q0 -142 -107 -233.5t-280 -122.5l113 -313q38 -97 117 -97q43 0 96 35l2 -4q-78 -114 -203 -114q-64 0 -104 34t-64 103l-135 393q40 -18 94 -18q120 0 216 92t96 223q0 57 -27 89t-78 32
q-45 0 -100 -33.5t-110.5 -93t-105 -155t-77.5 -206.5l-108 -440h-173l332 1327q10 39 10 80q0 42 -21 69t-67 54v4h301zM442 -250q0 -95 -81 -165t-218 -74l7 26q189 21 212 164q-36 -25 -79 -25q-37 0 -62.5 24t-27.5 56q0 54 36.5 89.5t92.5 35.5q57 0 88.5 -35t31.5 -96
z" />
    <glyph glyph-name="kgreenlandic" unicode="&#x138;" horiz-adv-x="983" 
d="M451 995l-80 -321q78 155 184.5 248.5t226.5 93.5q86 0 136.5 -51.5t50.5 -135.5q0 -142 -107 -233.5t-280 -122.5l112 -313q38 -97 117 -97q45 0 98 35v-4q-78 -114 -200 -114q-123 0 -168 137l-135 393q40 -18 92 -18q120 0 215.5 92t95.5 223q0 57 -26 89t-76 32
q-99 0 -220 -135.5t-176 -352.5l-108 -440h-170l196 788q11 57 11 80q0 42 -21.5 69.5t-68.5 53.5v4h301z" />
    <glyph glyph-name="Lacute" unicode="&#x139;" horiz-adv-x="1064" 
d="M688 1829h217q-126 -180 -389 -307h-8q70 79 110.5 149.5t69.5 157.5zM528 1182l-282 -1131h227q90 0 159.5 20.5t133 69.5t116 109.5t124.5 161.5h4l-152 -412h-917v4q79 29 116 84t64 164l233 930q21 89 21 127q0 83 -78 121v4h412v-4q-79 -29 -117 -84.5t-64 -163.5z
" />
    <glyph glyph-name="lacute" unicode="&#x13a;" horiz-adv-x="466" 
d="M588 1890h217q-126 -180 -389 -307h-8q70 79 110.5 149.5t69.5 157.5zM57 180l285 1147q12 62 12 80q0 42 -22 69t-70 54v4h301l-338 -1366q-4 -24 -4 -35q0 -33 19.5 -52.5t52.5 -19.5q40 0 94 31l2 -4q-87 -108 -196 -108q-65 0 -104.5 37t-39.5 102q0 30 8 61z" />
    <glyph glyph-name="uni013B" unicode="&#x13b;" horiz-adv-x="1064" 
d="M528 1182l-282 -1131h227q90 0 159.5 20.5t133 69.5t116 109.5t124.5 161.5h4l-152 -412h-917v4q79 29 116 84t64 164l233 930q21 89 21 127q0 83 -78 121v4h412v-4q-79 -29 -117 -84.5t-64 -163.5zM528 -250q0 -95 -81 -165t-218 -74l7 26q190 22 213 164
q-36 -25 -80 -25q-37 0 -62.5 24t-27.5 56q0 54 36.5 89.5t92.5 35.5q57 0 88.5 -35t31.5 -96z" />
    <glyph glyph-name="uni013C" unicode="&#x13c;" horiz-adv-x="466" 
d="M57 180l285 1147q12 62 12 80q0 42 -22 69t-70 54v4h301l-338 -1366q-4 -24 -4 -35q0 -33 19.5 -52.5t52.5 -19.5q40 0 94 31l2 -4q-87 -108 -196 -108q-65 0 -104.5 37t-39.5 102q0 30 8 61zM201 -250q0 -95 -81 -165t-218 -74l6 26q190 22 213 164q-36 -25 -80 -25
q-37 0 -62.5 24t-27.5 56q0 54 36.5 89.5t92.5 35.5q57 0 89 -35.5t32 -95.5z" />
    <glyph glyph-name="Lcaron" unicode="&#x13d;" horiz-adv-x="1064" 
d="M528 1182l-282 -1131h227q90 0 159.5 20.5t133 69.5t116 109.5t124.5 161.5h4l-152 -412h-917v4q79 29 116 84t64 164l233 930q21 89 21 127q0 83 -78 121v4h412v-4q-79 -29 -117 -84.5t-64 -163.5zM1112 1432q-41 -95 -132.5 -221.5t-166.5 -196.5h-6q92 187 127 418
h178z" />
    <glyph glyph-name="lcaron" unicode="&#x13e;" horiz-adv-x="466" 
d="M57 180l285 1147q12 62 12 80q0 42 -22 69t-70 54v4h301l-338 -1366q-4 -24 -4 -35q0 -33 19.5 -52.5t52.5 -19.5q40 0 94 31l2 -4q-87 -108 -196 -108q-65 0 -104.5 37t-39.5 102q0 30 8 61zM881 1534q-41 -95 -132.5 -221.5t-166.5 -196.5h-7q92 187 127 418h179z" />
    <glyph glyph-name="Ldot" unicode="&#x13f;" horiz-adv-x="1064" 
d="M528 1182l-282 -1131h227q90 0 159.5 20.5t133 69.5t116 109.5t124.5 161.5h4l-152 -412h-917v4q79 29 116 84t64 164l233 930q21 89 21 127q0 83 -78 121v4h412v-4q-79 -29 -117 -84.5t-64 -163.5zM989 864q52 0 83.5 -31t31.5 -79q0 -54 -36.5 -91.5t-90.5 -37.5
q-52 0 -83.5 31t-31.5 79q0 55 36 92t91 37z" />
    <glyph glyph-name="ldot" unicode="&#x140;" horiz-adv-x="708" 
d="M57 180l285 1147q12 62 12 80q0 42 -22 69t-70 54v4h301l-338 -1366q-4 -24 -4 -35q0 -33 19.5 -52.5t52.5 -19.5q40 0 94 31l2 -4q-87 -108 -196 -108q-65 0 -104.5 37t-39.5 102q0 30 8 61zM641 877q52 0 83.5 -31.5t31.5 -79.5q0 -54 -36.5 -91.5t-90.5 -37.5
q-52 0 -83.5 31.5t-31.5 79.5q0 55 36 92t91 37z" />
    <glyph glyph-name="Lslash" unicode="&#x141;" horiz-adv-x="1064" 
d="M858 0h-917v4q79 29 116 84t64 164l104 412l-129 -48l15 58l129 47l114 461q21 89 21 127q0 83 -78 121v4h412v-4q-79 -29 -117 -84.5t-64 -163.5l-100 -406l246 90l-17 -57l-245 -90l-166 -668h227q90 0 159.5 20.5t133 69.5t116 109.5t124.5 161.5h4z" />
    <glyph glyph-name="lslash" unicode="&#x142;" horiz-adv-x="528" 
d="M219 -20q-65 0 -104 37t-39 102q0 30 8 61l145 584l-157 -98l16 65l156 96l125 500q12 62 12 80q0 42 -22 69t-70 54v4h301l-152 -612l170 104l-16 -65l-170 -105l-170 -688q-4 -24 -4 -35q0 -33 19 -52.5t52 -19.5q41 0 95 31l2 -4q-87 -108 -197 -108z" />
    <glyph glyph-name="Nacute" unicode="&#x143;" horiz-adv-x="1282" 
d="M971 1829h217q-126 -180 -389 -307h-8q70 79 110.5 149.5t69.5 157.5zM1006 346l202 809q15 62 15 109q0 120 -101 166v4h369l-2 -4q-85 -32 -140 -98t-85 -181l-291 -1169h-6l-531 1302l-250 -1003q-14 -60 -14 -111q0 -122 100 -166v-4h-368v4q86 32 141 98.5t84 180.5
l225 905q19 71 19 112q0 92 -84 130v4h276z" />
    <glyph glyph-name="nacute" unicode="&#x144;" horiz-adv-x="1009" 
d="M731 1505h199q-65 -105 -155 -194.5t-218 -177.5h-8q121 151 182 372zM328 532l-131 -532h-172l196 788q10 36 10 74q0 43 -19.5 73.5t-61.5 55.5v4h292l-63 -260q68 128 161 204.5t201 76.5q88 0 136.5 -54t48.5 -143q0 -51 -13 -96l-139 -555q-4 -24 -4 -35
q0 -33 19.5 -52.5t52.5 -19.5q40 0 94 31l2 -4q-87 -108 -197 -108q-65 0 -104 37t-39 102q0 30 8 61l135 535q13 57 13 96q0 100 -99 100q-44 0 -89 -21.5t-90 -65t-84.5 -119t-63.5 -173.5z" />
    <glyph glyph-name="uni0145" unicode="&#x145;" horiz-adv-x="1282" 
d="M1006 346l202 809q15 62 15 109q0 120 -101 166v4h369l-2 -4q-85 -32 -140 -98t-85 -181l-291 -1169h-6l-531 1302l-250 -1003q-14 -60 -14 -111q0 -122 100 -166v-4h-368v4q86 32 141 98.5t84 180.5l225 905q19 71 19 112q0 92 -84 130v4h276zM596 -250q0 -95 -81 -165
t-218 -74l6 26q190 22 213 164q-36 -25 -80 -25q-37 0 -62.5 24t-27.5 56q0 54 36.5 89.5t92.5 35.5q57 0 89 -35.5t32 -95.5z" />
    <glyph glyph-name="uni0146" unicode="&#x146;" horiz-adv-x="1009" 
d="M328 532l-131 -532h-172l196 788q10 36 10 74q0 43 -19.5 73.5t-61.5 55.5v4h292l-63 -260q68 128 161 204.5t201 76.5q88 0 136.5 -54t48.5 -143q0 -51 -13 -96l-139 -555q-4 -24 -4 -35q0 -33 19.5 -52.5t52.5 -19.5q40 0 94 31l2 -4q-87 -108 -197 -108q-65 0 -104 37
t-39 102q0 30 8 61l135 535q13 57 13 96q0 100 -99 100q-44 0 -89 -21.5t-90 -65t-84.5 -119t-63.5 -173.5zM461 -250q0 -95 -81 -165t-218 -74l6 26q190 22 213 164q-36 -25 -80 -25q-37 0 -62.5 24t-27.5 56q0 54 36.5 89.5t92.5 35.5q57 0 89 -35.5t32 -95.5z" />
    <glyph glyph-name="Ncaron" unicode="&#x147;" horiz-adv-x="1282" 
d="M733 1858q66 -24 124 -61.5t87 -76.5q106 79 305 138h15q-244 -169 -363 -351h-10q-25 189 -174 351h16zM1006 346l202 809q15 62 15 109q0 120 -101 166v4h369l-2 -4q-85 -32 -140 -98t-85 -181l-291 -1169h-6l-531 1302l-250 -1003q-14 -60 -14 -111q0 -122 100 -166
v-4h-368v4q86 32 141 98.5t84 180.5l225 905q19 71 19 112q0 92 -84 130v4h276z" />
    <glyph glyph-name="ncaron" unicode="&#x148;" horiz-adv-x="1009" 
d="M510 1538q57 -34 107 -85.5t77 -100.5q51 45 139 96.5t173 89.5h14q-244 -201 -379 -416h-8q-8 211 -135 416h12zM328 532l-131 -532h-172l196 788q10 36 10 74q0 43 -19.5 73.5t-61.5 55.5v4h292l-63 -260q68 128 161 204.5t201 76.5q88 0 136.5 -54t48.5 -143
q0 -51 -13 -96l-139 -555q-4 -24 -4 -35q0 -33 19.5 -52.5t52.5 -19.5q40 0 94 31l2 -4q-87 -108 -197 -108q-65 0 -104 37t-39 102q0 30 8 61l135 535q13 57 13 96q0 100 -99 100q-44 0 -89 -21.5t-90 -65t-84.5 -119t-63.5 -173.5z" />
    <glyph glyph-name="Eng" unicode="&#x14a;" horiz-adv-x="1282" 
d="M932 45l-496 1239l-254 -1020q-14 -57 -14 -108q0 -109 94 -152v-4h-344v4q82 31 130.5 92.5t76.5 171.5l229 920q19 71 19 112q0 92 -84 130v4h276l441 -1088l204 823q17 61 17 109q0 110 -94 152v4h346l-2 -4q-82 -31 -131.5 -93t-77.5 -170l-277 -1110
q-75 -302 -156.5 -420t-213.5 -118q-94 0 -158 46t-64 122q0 68 45.5 110.5t112.5 42.5q61 0 86 -22q-100 -29 -100 -150q0 -47 23 -75.5t65 -28.5q100 0 172 111t129 370z" />
    <glyph glyph-name="eng" unicode="&#x14b;" horiz-adv-x="989" 
d="M541 -90l200 805q13 57 13 96q0 100 -99 100q-44 0 -89 -21.5t-90 -65t-84.5 -119t-63.5 -173.5l-131 -532h-172l196 788q10 36 10 74q0 43 -19.5 73.5t-61.5 55.5v4h292l-63 -260q68 128 161 204.5t201 76.5q88 0 136.5 -54t48.5 -143q0 -51 -13 -96l-163 -653
q-75 -303 -167.5 -427t-240.5 -124q-98 0 -160.5 44t-62.5 120q0 68 47 109.5t119 41.5q61 0 90 -29q-53 -13 -81 -52.5t-28 -96.5q0 -47 21.5 -73.5t62.5 -26.5q65 0 103 77t88 277z" />
    <glyph glyph-name="Omacron" unicode="&#x14c;" horiz-adv-x="1265" 
d="M1155 1571h-498l17 71h500zM98 504q0 178 59 351t156.5 305t233.5 213t282 81q204 0 324.5 -144t120.5 -378q0 -178 -59 -351.5t-156.5 -305.5t-233.5 -213.5t-282 -81.5q-204 0 -324.5 144.5t-120.5 379.5zM283 397q0 -163 66.5 -266.5t193.5 -103.5q103 0 194.5 75.5
t158 197.5t118.5 288q76 239 76 448q0 165 -67 268t-194 103q-103 0 -194.5 -75.5t-158 -197.5t-118.5 -288q-75 -236 -75 -449z" />
    <glyph glyph-name="omacron" unicode="&#x14d;" horiz-adv-x="927" 
d="M883 1208h-500l18 72h498zM39 350q0 120 40.5 240t108.5 214t166 153t205 59q148 0 239 -100t91 -271q0 -120 -40.5 -239.5t-109 -213.5t-167 -153t-205.5 -59q-148 0 -238 100t-90 270zM711 702q0 131 -35.5 202t-118.5 71q-64 0 -126 -63t-107.5 -159t-73.5 -210
q-33 -139 -33 -248q0 -275 154 -275q94 0 177 127t128 306q35 131 35 249z" />
    <glyph glyph-name="Obreve" unicode="&#x14e;" horiz-adv-x="1265" 
d="M1219 1827q-43 -151 -124.5 -225t-193.5 -74q-109 0 -159 74.5t-25 224.5h14q-9 -80 47 -124t148 -44q93 0 171 44t107 124h15zM98 504q0 178 59 351t156.5 305t233.5 213t282 81q204 0 324.5 -144t120.5 -378q0 -178 -59 -351.5t-156.5 -305.5t-233.5 -213.5t-282 -81.5
q-204 0 -324.5 144.5t-120.5 379.5zM283 397q0 -163 66.5 -266.5t193.5 -103.5q103 0 194.5 75.5t158 197.5t118.5 288q76 239 76 448q0 165 -67 268t-194 103q-103 0 -194.5 -75.5t-158 -197.5t-118.5 -288q-75 -236 -75 -449z" />
    <glyph glyph-name="obreve" unicode="&#x14f;" horiz-adv-x="927" 
d="M942 1491q-38 -160 -123.5 -252t-189.5 -92q-105 0 -149.5 92t-8.5 252h16q-16 -106 36 -157.5t136 -51.5q53 0 103 19.5t96.5 68.5t69.5 121h14zM39 350q0 120 40.5 240t108.5 214t166 153t205 59q148 0 239 -100t91 -271q0 -120 -40.5 -239.5t-109 -213.5t-167 -153
t-205.5 -59q-148 0 -238 100t-90 270zM711 702q0 131 -35.5 202t-118.5 71q-64 0 -126 -63t-107.5 -159t-73.5 -210q-33 -139 -33 -248q0 -275 154 -275q94 0 177 127t128 306q35 131 35 249z" />
    <glyph glyph-name="Ohungarumlaut" unicode="&#x150;" horiz-adv-x="1265" 
d="M877 1829h194q-63 -90 -150 -163.5t-208 -143.5h-8q122 151 172 307zM1143 1829h194q-63 -90 -150 -163.5t-208 -143.5h-8q122 151 172 307zM98 504q0 178 59 351t156.5 305t233.5 213t282 81q204 0 324.5 -144t120.5 -378q0 -178 -59 -351.5t-156.5 -305.5
t-233.5 -213.5t-282 -81.5q-204 0 -324.5 144.5t-120.5 379.5zM283 397q0 -163 66.5 -266.5t193.5 -103.5q103 0 194.5 75.5t158 197.5t118.5 288q76 239 76 448q0 165 -67 268t-194 103q-103 0 -194.5 -75.5t-158 -197.5t-118.5 -288q-75 -236 -75 -449z" />
    <glyph glyph-name="ohungarumlaut" unicode="&#x151;" horiz-adv-x="927" 
d="M868 1505h189q-64 -107 -152 -196t-213 -176h-6q119 149 182 372zM621 1505h188q-64 -107 -152 -196t-213 -176h-6q121 151 183 372zM39 350q0 120 40.5 240t108.5 214t166 153t205 59q148 0 239 -100t91 -271q0 -120 -40.5 -239.5t-109 -213.5t-167 -153t-205.5 -59
q-148 0 -238 100t-90 270zM711 702q0 131 -35.5 202t-118.5 71q-64 0 -126 -63t-107.5 -159t-73.5 -210q-33 -139 -33 -248q0 -275 154 -275q94 0 177 127t128 306q35 131 35 249z" />
    <glyph glyph-name="OE" unicode="&#x152;" horiz-adv-x="1818" 
d="M1110 1382h-141q-119 0 -226 -47.5t-188 -132t-140.5 -196.5t-90.5 -245t-31 -274q0 -207 97.5 -321.5t289.5 -114.5h96zM1577 0h-913q-261 0 -412.5 140t-151.5 382q0 251 114.5 460.5t313.5 330.5t439 121h815q74 0 106 14l-26 -350h-4q-28 104 -65 162.5t-107 91
t-183 32.5h-221l-156 -630h156q125 0 190 42.5t154 184.5h4l-117 -471h-4q-5 41 -12.5 70t-16 51t-24 35.5t-30 22t-41.5 12.5t-50.5 5t-64.5 1h-156l-164 -658h230q90 0 163 20t137.5 64t120 103t119.5 147h4z" />
    <glyph glyph-name="oe" unicode="&#x153;" horiz-adv-x="1452" 
d="M985 -20q-95 0 -167 50t-113 140q-154 -190 -340 -190q-147 0 -236.5 100t-89.5 270q0 96 25.5 193t73.5 181t111.5 150t144.5 104t167 38q98 0 173 -53.5t114 -147.5q75 92 171 146.5t198 54.5q109 0 173 -55t64 -144q0 -83 -47 -147.5t-131 -106.5t-191 -66t-237 -32
q-12 -68 -12 -131q0 -140 55.5 -208.5t159.5 -68.5q168 0 299 193h10q-54 -131 -154.5 -200.5t-220.5 -69.5zM371 20q91 0 173 122.5t132 306.5q35 123 35 253q1 80 -12.5 139t-49.5 96.5t-92 37.5q-62 0 -122 -59t-106 -154.5t-77 -214.5q-35 -123 -35 -252
q-1 -80 12.5 -139.5t49.5 -97.5t92 -38zM1214 975q-77 0 -152.5 -71t-129.5 -180t-80 -232q97 13 177.5 41.5t143.5 73t98.5 110t35.5 145.5q0 53 -23.5 83t-69.5 30z" />
    <glyph glyph-name="Racute" unicode="&#x154;" horiz-adv-x="1212" 
d="M874 1829h218q-125 -179 -390 -307h-8q70 79 110.5 149.5t69.5 157.5zM578 1382l-164 -657h176q191 0 313.5 104.5t122.5 298.5q0 254 -274 254h-174zM399 674l-104 -422q-21 -86 -21 -125q0 -45 18 -74t60 -49v-4h-411v4q79 29 116 84t64 164l233 930q21 89 21 127
q0 83 -78 121v4h491q195 0 313 -79t118 -231q0 -82 -30 -152.5t-80.5 -120t-117.5 -85.5t-141 -54.5t-152 -21.5q244 -34 256 -258q2 -25 4.5 -96.5t4.5 -93.5q6 -101 40 -152.5t115 -85.5v-4h-291q-35 78 -41 203q-2 19 -2 111.5t-2 117.5q-8 120 -56 181t-163 61h-164z
" />
    <glyph glyph-name="racute" unicode="&#x155;" horiz-adv-x="778" 
d="M655 1505h199q-65 -105 -155 -194.5t-218 -177.5h-8q121 151 182 372zM604 729q39 5 64.5 33.5t25.5 71.5q0 67 -71 67q-54 0 -115.5 -61.5t-110.5 -153t-78 -190.5l-122 -496h-172l196 788q10 36 10 74q0 43 -19.5 73.5t-61.5 55.5v4h292l-77 -317q37 74 67 125
t72 104.5t91 81t103 27.5q65 0 105.5 -38t40.5 -101q0 -78 -48.5 -126.5t-119.5 -48.5q-45 0 -72 27z" />
    <glyph glyph-name="uni0156" unicode="&#x156;" horiz-adv-x="1212" 
d="M578 1382l-164 -657h176q191 0 313.5 104.5t122.5 298.5q0 254 -274 254h-174zM399 674l-104 -422q-21 -86 -21 -125q0 -45 18 -74t60 -49v-4h-411v4q79 29 116 84t64 164l233 930q21 89 21 127q0 83 -78 121v4h491q195 0 313 -79t118 -231q0 -82 -30 -152.5t-80.5 -120
t-117.5 -85.5t-141 -54.5t-152 -21.5q244 -34 256 -258q2 -25 4.5 -96.5t4.5 -93.5q6 -101 40 -152.5t115 -85.5v-4h-291q-35 78 -41 203q-2 19 -2 111.5t-2 117.5q-8 120 -56 181t-163 61h-164zM582 -250q0 -95 -81 -165t-218 -74l6 26q190 22 213 164q-36 -25 -80 -25
q-37 0 -62.5 24t-27.5 56q0 54 36.5 89.5t92.5 35.5q57 0 89 -35.5t32 -95.5z" />
    <glyph glyph-name="uni0157" unicode="&#x157;" horiz-adv-x="778" 
d="M604 729q39 5 64.5 33.5t25.5 71.5q0 67 -71 67q-54 0 -115.5 -61.5t-110.5 -153t-78 -190.5l-122 -496h-172l196 788q10 36 10 74q0 43 -19.5 73.5t-61.5 55.5v4h292l-77 -317q37 74 67 125t72 104.5t91 81t103 27.5q65 0 105.5 -38t40.5 -101q0 -78 -48.5 -126.5
t-119.5 -48.5q-45 0 -72 27zM186 -250q0 -95 -81 -165t-218 -74l7 26q189 21 212 164q-36 -25 -79 -25q-37 0 -62.5 24t-27.5 56q0 54 36.5 89.5t92.5 35.5q57 0 88.5 -35t31.5 -96z" />
    <glyph glyph-name="Rcaron" unicode="&#x158;" horiz-adv-x="1212" 
d="M637 1858q66 -24 124 -61.5t87 -76.5q106 79 305 138h14q-242 -168 -362 -351h-10q-25 189 -174 351h16zM578 1382l-164 -657h176q191 0 313.5 104.5t122.5 298.5q0 254 -274 254h-174zM399 674l-104 -422q-21 -86 -21 -125q0 -45 18 -74t60 -49v-4h-411v4q79 29 116 84
t64 164l233 930q21 89 21 127q0 83 -78 121v4h491q195 0 313 -79t118 -231q0 -82 -30 -152.5t-80.5 -120t-117.5 -85.5t-141 -54.5t-152 -21.5q244 -34 256 -258q2 -25 4.5 -96.5t4.5 -93.5q6 -101 40 -152.5t115 -85.5v-4h-291q-35 78 -41 203q-2 19 -2 111.5t-2 117.5
q-8 120 -56 181t-163 61h-164z" />
    <glyph glyph-name="rcaron" unicode="&#x159;" horiz-adv-x="778" 
d="M434 1538q57 -34 107 -85.5t77 -100.5q51 45 139 96.5t173 89.5h14q-244 -201 -379 -416h-8q-8 211 -135 416h12zM604 729q39 5 64.5 33.5t25.5 71.5q0 67 -71 67q-54 0 -115.5 -61.5t-110.5 -153t-78 -190.5l-122 -496h-172l196 788q10 36 10 74q0 43 -19.5 73.5
t-61.5 55.5v4h292l-77 -317q37 74 67 125t72 104.5t91 81t103 27.5q65 0 105.5 -38t40.5 -101q0 -78 -48.5 -126.5t-119.5 -48.5q-45 0 -72 27z" />
    <glyph glyph-name="Sacute" unicode="&#x15a;" horiz-adv-x="1013" 
d="M821 1829h217q-126 -180 -389 -307h-8q70 79 110.5 149.5t69.5 157.5zM995 1018q-13 85 -34.5 150.5t-57 123t-92 88.5t-131.5 31q-135 0 -210 -86.5t-75 -212.5q0 -69 28.5 -124.5t74 -93.5t100.5 -72t110 -69t100.5 -75.5t74 -100.5t28.5 -135q0 -137 -66 -244
t-174.5 -162.5t-238.5 -55.5q-74 0 -142.5 17t-117 34.5t-74.5 17.5q-54 0 -118 -55l81 467h5q31 -206 124.5 -321t241.5 -115q78 0 139 28t98.5 76t56.5 107.5t19 125.5q0 68 -28 122t-73 90.5t-99.5 69.5t-108.5 68t-99 75.5t-73 101.5t-28 137q0 190 126.5 309t317.5 119
q73 0 136 -16t106.5 -31.5t68.5 -15.5q52 0 105 49l-97 -422h-4z" />
    <glyph glyph-name="sacute" unicode="&#x15b;" horiz-adv-x="778" 
d="M606 1505h199q-65 -105 -155 -194.5t-218 -177.5h-8q121 151 182 372zM147 707q0 130 102 219.5t247 89.5q117 0 194.5 -49.5t77.5 -130.5q0 -59 -35 -96.5t-88 -37.5q-64 0 -92 41q34 3 57 34.5t23 80.5q0 58 -37.5 89.5t-108.5 31.5q-88 0 -144 -55t-56 -136
q0 -59 32.5 -100.5t122.5 -105.5q62 -44 95.5 -70.5t67 -61.5t47.5 -70.5t14 -78.5q0 -139 -110 -230t-267 -91q-131 0 -219 57.5t-88 148.5q0 64 39 104t96 40q56 0 92 -39q-38 -3 -62 -36t-24 -81q0 -73 46.5 -115.5t127.5 -42.5q96 0 158.5 60t62.5 151q0 56 -38.5 101.5
t-129.5 105.5q-104 69 -153.5 127.5t-49.5 145.5z" />
    <glyph glyph-name="Scircumflex" unicode="&#x15c;" horiz-adv-x="1013" 
d="M1001 1507q-66 24 -123.5 61.5t-86.5 76.5q-105 -78 -306 -138h-14q244 169 363 351h10q25 -189 174 -351h-17zM995 1018q-13 85 -34.5 150.5t-57 123t-92 88.5t-131.5 31q-135 0 -210 -86.5t-75 -212.5q0 -69 28.5 -124.5t74 -93.5t100.5 -72t110 -69t100.5 -75.5
t74 -100.5t28.5 -135q0 -137 -66 -244t-174.5 -162.5t-238.5 -55.5q-74 0 -142.5 17t-117 34.5t-74.5 17.5q-54 0 -118 -55l81 467h5q31 -206 124.5 -321t241.5 -115q78 0 139 28t98.5 76t56.5 107.5t19 125.5q0 68 -28 122t-73 90.5t-99.5 69.5t-108.5 68t-99 75.5
t-73 101.5t-28 137q0 190 126.5 309t317.5 119q73 0 136 -16t106.5 -31.5t68.5 -15.5q52 0 105 49l-97 -422h-4z" />
    <glyph glyph-name="scircumflex" unicode="&#x15d;" horiz-adv-x="778" 
d="M786 1122q-55 33 -105 84.5t-77 100.5q-54 -46 -143 -98.5t-170 -86.5h-15q110 88 210 195.5t169 218.5h9q11 -220 137 -414h-15zM147 707q0 130 102 219.5t247 89.5q117 0 194.5 -49.5t77.5 -130.5q0 -59 -35 -96.5t-88 -37.5q-64 0 -92 41q34 3 57 34.5t23 80.5
q0 58 -37.5 89.5t-108.5 31.5q-88 0 -144 -55t-56 -136q0 -59 32.5 -100.5t122.5 -105.5q62 -44 95.5 -70.5t67 -61.5t47.5 -70.5t14 -78.5q0 -139 -110 -230t-267 -91q-131 0 -219 57.5t-88 148.5q0 64 39 104t96 40q56 0 92 -39q-38 -3 -62 -36t-24 -81q0 -73 46.5 -115.5
t127.5 -42.5q96 0 158.5 60t62.5 151q0 56 -38.5 101.5t-129.5 105.5q-104 69 -153.5 127.5t-49.5 145.5z" />
    <glyph glyph-name="uni015E" unicode="&#x15e;" horiz-adv-x="1013" 
d="M260 -457q-69 0 -116.5 31t-61.5 80l16 12q39 -72 125 -72q62 0 99.5 41.5t37.5 108.5q0 48 -30 69.5t-92 24.5l104 148q-61 9 -139.5 36t-104.5 27q-54 0 -118 -55l81 467h5q31 -206 124.5 -321t241.5 -115q78 0 139 28t98.5 76t56.5 107.5t19 125.5q0 68 -28 122
t-73 90.5t-99.5 69.5t-108.5 68t-99 75.5t-73 101.5t-28 137q0 190 126.5 309t317.5 119q73 0 136 -16t106.5 -31.5t68.5 -15.5q52 0 105 49l-97 -422h-4q-13 85 -34.5 150.5t-57 123t-92 88.5t-131.5 31q-135 0 -210 -86.5t-75 -212.5q0 -69 28.5 -124.5t74 -93.5
t100.5 -72t110 -69t100.5 -75.5t74 -100.5t28.5 -135q0 -137 -66 -244t-174.5 -162.5t-238.5 -55.5q-39 0 -57 2l-80 -115q80 3 136 -34.5t56 -102.5q0 -84 -68.5 -135.5t-158.5 -51.5z" />
    <glyph glyph-name="uni015F" unicode="&#x15f;" horiz-adv-x="778" 
d="M131 -457q-69 0 -116.5 31t-61.5 80l16 12q39 -72 125 -72q62 0 99.5 41.5t37.5 108.5q0 48 -30 69.5t-92 24.5l102 148q-102 15 -165.5 69t-63.5 131q0 64 39 104t96 40q56 0 92 -39q-38 -3 -62 -36t-24 -81q0 -73 46.5 -115.5t127.5 -42.5q96 0 158.5 60t62.5 151
q0 56 -38.5 101.5t-129.5 105.5q-104 69 -153.5 127.5t-49.5 145.5q0 130 102 219.5t247 89.5q117 0 194.5 -49.5t77.5 -130.5q0 -59 -35 -96.5t-88 -37.5q-64 0 -92 41q34 3 57 34.5t23 80.5q0 58 -37.5 89.5t-108.5 31.5q-88 0 -144 -55t-56 -136q0 -59 32.5 -100.5
t122.5 -105.5q62 -44 95.5 -70.5t67 -61.5t47.5 -70.5t14 -78.5q0 -139 -110 -230t-267 -91q-29 0 -43 2l-80 -115q80 3 136 -34.5t56 -102.5q0 -84 -68.5 -135.5t-158.5 -51.5z" />
    <glyph glyph-name="Scaron" unicode="&#x160;" horiz-adv-x="1013" 
d="M582 1858q66 -24 124 -61.5t87 -76.5q106 79 305 138h14q-242 -168 -362 -351h-11q-25 189 -174 351h17zM995 1018q-13 85 -34.5 150.5t-57 123t-92 88.5t-131.5 31q-135 0 -210 -86.5t-75 -212.5q0 -69 28.5 -124.5t74 -93.5t100.5 -72t110 -69t100.5 -75.5t74 -100.5
t28.5 -135q0 -137 -66 -244t-174.5 -162.5t-238.5 -55.5q-74 0 -142.5 17t-117 34.5t-74.5 17.5q-54 0 -118 -55l81 467h5q31 -206 124.5 -321t241.5 -115q78 0 139 28t98.5 76t56.5 107.5t19 125.5q0 68 -28 122t-73 90.5t-99.5 69.5t-108.5 68t-99 75.5t-73 101.5t-28 137
q0 190 126.5 309t317.5 119q73 0 136 -16t106.5 -31.5t68.5 -15.5q52 0 105 49l-97 -422h-4z" />
    <glyph glyph-name="scaron" unicode="&#x161;" horiz-adv-x="778" 
d="M406 1538q57 -34 107 -85.5t77 -100.5q51 45 139 96.5t172 89.5h14q-242 -200 -378 -416h-9q-8 211 -135 416h13zM147 707q0 130 102 219.5t247 89.5q117 0 194.5 -49.5t77.5 -130.5q0 -59 -35 -96.5t-88 -37.5q-64 0 -92 41q34 3 57 34.5t23 80.5q0 58 -37.5 89.5
t-108.5 31.5q-88 0 -144 -55t-56 -136q0 -59 32.5 -100.5t122.5 -105.5q62 -44 95.5 -70.5t67 -61.5t47.5 -70.5t14 -78.5q0 -139 -110 -230t-267 -91q-131 0 -219 57.5t-88 148.5q0 64 39 104t96 40q56 0 92 -39q-38 -3 -62 -36t-24 -81q0 -73 46.5 -115.5t127.5 -42.5
q96 0 158.5 60t62.5 151q0 56 -38.5 101.5t-129.5 105.5q-104 69 -153.5 127.5t-49.5 145.5z" />
    <glyph glyph-name="uni0162" unicode="&#x162;" horiz-adv-x="1263" 
d="M406 -457q-69 0 -117 31t-62 80l17 12q39 -72 125 -72q62 0 99.5 41.5t37.5 108.5q0 48 -30.5 69.5t-92.5 24.5l113 162h-203v4q81 30 120 80t64 152l287 1153h-92q-66 0 -121 -15t-99 -40t-93 -74t-89 -99t-100 -133h-4l149 420q23 -14 95 -14h905q71 0 100 14l-53 -420
h-4q-13 68 -24.5 113t-29 89.5t-39.5 71t-54.5 48t-76 30.5t-100.5 9h-96l-289 -1153q-16 -69 -16 -107q0 -47 21 -75.5t67 -49.5v-4h-189l-92 -133q80 3 136.5 -34.5t56.5 -102.5q0 -84 -68.5 -135.5t-158.5 -51.5z" />
    <glyph glyph-name="uni0163" unicode="&#x163;" horiz-adv-x="587" 
d="M119 -457q-69 0 -116.5 31t-61.5 80l16 12q39 -72 125 -72q62 0 99.5 41.5t37.5 108.5q0 48 -30.5 69.5t-92.5 24.5l101 144q-65 7 -101.5 48.5t-36.5 106.5q0 27 7 62l186 743h-125l2 12q141 39 227.5 133t159.5 261h14l-92 -353h250l-22 -53h-240l-184 -737
q-4 -32 -4 -41q0 -45 26 -69.5t68 -24.5q43 0 92 25.5t92 74.5l4 -4q-118 -186 -289 -186l-77 -113q80 3 136 -34.5t56 -102.5q0 -84 -68.5 -135.5t-158.5 -51.5z" />
    <glyph glyph-name="Tcaron" unicode="&#x164;" horiz-adv-x="1263" 
d="M717 1858q66 -24 124 -61.5t87 -76.5q106 79 305 138h14q-242 -168 -362 -351h-11q-25 189 -174 351h17zM410 1434h905q71 0 100 14l-53 -420h-4q-13 68 -24.5 113t-29 89.5t-39.5 71t-54.5 48t-76 30.5t-100.5 9h-96l-289 -1153q-16 -69 -16 -107q0 -47 21 -75.5
t67 -49.5v-4h-428v4q81 30 120 80t64 152l287 1153h-92q-66 0 -121 -15t-99 -40t-93 -74t-89 -99t-100 -133h-4l149 420q23 -14 95 -14z" />
    <glyph glyph-name="tcaron" unicode="&#x165;" horiz-adv-x="587" 
d="M903 1534q-41 -95 -132.5 -221.5t-166.5 -196.5h-6q92 187 127 418h178zM426 942l-184 -737q-4 -32 -4 -41q0 -45 26 -69.5t68 -24.5q43 0 92 25.5t92 74.5l4 -4q-118 -186 -295 -186q-78 0 -122 42.5t-44 114.5q0 27 7 62l186 743h-125l2 12q141 39 227.5 133t159.5 261
h14l-92 -353h250l-22 -53h-240z" />
    <glyph glyph-name="Tbar" unicode="&#x166;" horiz-adv-x="1263" 
d="M721 4v-4h-428v4q81 30 120 80t64 152l117 469h-213l12 51h213l158 633h-92q-66 0 -121 -15t-99 -40t-93 -74t-89 -99t-100 -133h-4l149 420q23 -14 95 -14h905q71 0 100 14l-53 -420h-4q-13 68 -24.5 113t-29 89.5t-39.5 71t-54.5 48t-76 30.5t-100.5 9h-96l-158 -633
h213l-12 -51h-215l-117 -469q-16 -69 -16 -107q0 -47 21 -75.5t67 -49.5z" />
    <glyph glyph-name="tbar" unicode="&#x167;" horiz-adv-x="616" 
d="M524 166q-118 -186 -295 -186q-78 0 -122 42.5t-44 114.5q0 27 7 62l108 436h-108l12 51h111l63 256h-125l2 12q141 39 227.5 133t159.5 261h15l-93 -353h250l-22 -53h-240l-63 -256h237l-12 -51h-238l-108 -430q-4 -32 -4 -41q0 -45 26 -69.5t68 -24.5q43 0 92 25.5
t92 74.5z" />
    <glyph glyph-name="Utilde" unicode="&#x168;" horiz-adv-x="1228" 
d="M1280 1823q-50 -132 -111 -202.5t-127 -70.5q-26 0 -52.5 14.5t-48 35.5l-43 42t-45.5 35.5t-48 14.5q-92 0 -176 -150h-19q50 132 111 202.5t127 70.5q32 0 65.5 -22t57 -48t54.5 -48t60 -22q94 0 177 148h18zM1241 1167l-170 -682q-123 -505 -528 -505
q-192 0 -302 100.5t-110 269.5q0 61 19 142l174 690q20 82 20 125q0 45 -19 74t-61 49v4h412v-4q-78 -29 -115 -84t-65 -164l-170 -682q-21 -80 -21 -148q0 -132 73.5 -207t205.5 -75q169 0 273.5 106.5t156.5 317.5l170 675q14 60 14 111q0 110 -94 150v4h346v-4
q-83 -31 -132 -92.5t-77 -170.5z" />
    <glyph glyph-name="utilde" unicode="&#x169;" horiz-adv-x="993" 
d="M1008 1452q-47 -131 -108.5 -201.5t-127.5 -70.5q-27 0 -53.5 14.5t-48.5 35t-43.5 41.5t-46 35.5t-48.5 14.5q-92 0 -176 -150h-16q47 132 108 202.5t127 70.5q27 0 53.5 -14.5t48.5 -35t43.5 -40.5t46 -34.5t48.5 -14.5q94 0 176 147h17zM920 88q-87 -108 -199 -108
q-64 0 -101.5 38.5t-37.5 106.5q0 41 26 137q-71 -133 -155 -207.5t-191 -74.5q-90 0 -142 57.5t-52 150.5q0 42 12 91l129 509q10 48 10 76q0 76 -82 127v4h293l-182 -719q-12 -44 -12 -79q0 -113 106 -113q42 0 86 23t87 67.5t80.5 119.5t61.5 171l134 530h170l-205 -827
q-6 -18 -6 -35q0 -34 19.5 -53t53.5 -19q38 0 95 31z" />
    <glyph glyph-name="Umacron" unicode="&#x16a;" horiz-adv-x="1228" 
d="M1167 1571h-497l16 71h500zM1241 1167l-170 -682q-123 -505 -528 -505q-192 0 -302 100.5t-110 269.5q0 61 19 142l174 690q20 82 20 125q0 45 -19 74t-61 49v4h412v-4q-78 -29 -115 -84t-65 -164l-170 -682q-21 -80 -21 -148q0 -132 73.5 -207t205.5 -75
q169 0 273.5 106.5t156.5 317.5l170 675q14 60 14 111q0 110 -94 150v4h346v-4q-83 -31 -132 -92.5t-77 -170.5z" />
    <glyph glyph-name="umacron" unicode="&#x16b;" horiz-adv-x="993" 
d="M905 1208h-499l18 72h498zM920 88q-87 -108 -199 -108q-64 0 -101.5 38.5t-37.5 106.5q0 41 26 137q-71 -133 -155 -207.5t-191 -74.5q-90 0 -142 57.5t-52 150.5q0 42 12 91l129 509q10 48 10 76q0 76 -82 127v4h293l-182 -719q-12 -44 -12 -79q0 -113 106 -113
q42 0 86 23t87 67.5t80.5 119.5t61.5 171l134 530h170l-205 -827q-6 -18 -6 -35q0 -34 19.5 -53t53.5 -19q38 0 95 31z" />
    <glyph glyph-name="Ubreve" unicode="&#x16c;" horiz-adv-x="1228" 
d="M1229 1827q-43 -151 -124.5 -225t-193.5 -74q-109 0 -159 74.5t-25 224.5h14q-9 -80 47 -124t148 -44q93 0 171 44t107 124h15zM1241 1167l-170 -682q-123 -505 -528 -505q-192 0 -302 100.5t-110 269.5q0 61 19 142l174 690q20 82 20 125q0 45 -19 74t-61 49v4h412v-4
q-78 -29 -115 -84t-65 -164l-170 -682q-21 -80 -21 -148q0 -132 73.5 -207t205.5 -75q169 0 273.5 106.5t156.5 317.5l170 675q14 60 14 111q0 110 -94 150v4h346v-4q-83 -31 -132 -92.5t-77 -170.5z" />
    <glyph glyph-name="ubreve" unicode="&#x16d;" horiz-adv-x="993" 
d="M958 1491q-38 -160 -123.5 -252t-189.5 -92q-105 0 -149.5 92t-8.5 252h17q-16 -106 36 -157.5t136 -51.5q52 0 102 19.5t96.5 68.5t69.5 121h14zM920 88q-87 -108 -199 -108q-64 0 -101.5 38.5t-37.5 106.5q0 41 26 137q-71 -133 -155 -207.5t-191 -74.5
q-90 0 -142 57.5t-52 150.5q0 42 12 91l129 509q10 48 10 76q0 76 -82 127v4h293l-182 -719q-12 -44 -12 -79q0 -113 106 -113q42 0 86 23t87 67.5t80.5 119.5t61.5 171l134 530h170l-205 -827q-6 -18 -6 -35q0 -34 19.5 -53t53.5 -19q38 0 95 31z" />
    <glyph glyph-name="Uring" unicode="&#x16e;" horiz-adv-x="1228" 
d="M770 1686q0 71 59 126.5t134 55.5q71 0 118 -47.5t47 -120.5q0 -72 -58.5 -128t-133.5 -56q-71 0 -118.5 48.5t-47.5 121.5zM1081 1700q0 54 -33.5 88.5t-86.5 34.5q-57 0 -100.5 -41.5t-43.5 -95.5q0 -55 34 -90t87 -35q57 0 100 42.5t43 96.5zM1241 1167l-170 -682
q-123 -505 -528 -505q-192 0 -302 100.5t-110 269.5q0 61 19 142l174 690q20 82 20 125q0 45 -19 74t-61 49v4h412v-4q-78 -29 -115 -84t-65 -164l-170 -682q-21 -80 -21 -148q0 -132 73.5 -207t205.5 -75q169 0 273.5 106.5t156.5 317.5l170 675q14 60 14 111
q0 110 -94 150v4h346v-4q-83 -31 -132 -92.5t-77 -170.5z" />
    <glyph glyph-name="uring" unicode="&#x16f;" horiz-adv-x="993" 
d="M506 1317q0 71 58.5 126.5t133.5 55.5q71 0 118.5 -47.5t47.5 -120.5q0 -72 -58.5 -128t-133.5 -56q-71 0 -118.5 48.5t-47.5 121.5zM817 1331q0 54 -34 88.5t-87 34.5q-57 0 -100 -41.5t-43 -95.5q0 -55 34 -90t87 -35q57 0 100 42.5t43 96.5zM920 88
q-87 -108 -199 -108q-64 0 -101.5 38.5t-37.5 106.5q0 41 26 137q-71 -133 -155 -207.5t-191 -74.5q-90 0 -142 57.5t-52 150.5q0 42 12 91l129 509q10 48 10 76q0 76 -82 127v4h293l-182 -719q-12 -44 -12 -79q0 -113 106 -113q42 0 86 23t87 67.5t80.5 119.5t61.5 171
l134 530h170l-205 -827q-6 -18 -6 -35q0 -34 19.5 -53t53.5 -19q38 0 95 31z" />
    <glyph glyph-name="Uhungarumlaut" unicode="&#x170;" horiz-adv-x="1228" 
d="M887 1829h194q-63 -90 -150 -163.5t-208 -143.5h-8q122 151 172 307zM1153 1829h195q-117 -167 -359 -307h-8q122 151 172 307zM1241 1167l-170 -682q-123 -505 -528 -505q-192 0 -302 100.5t-110 269.5q0 61 19 142l174 690q20 82 20 125q0 45 -19 74t-61 49v4h412v-4
q-78 -29 -115 -84t-65 -164l-170 -682q-21 -80 -21 -148q0 -132 73.5 -207t205.5 -75q169 0 273.5 106.5t156.5 317.5l170 675q14 60 14 111q0 110 -94 150v4h346v-4q-83 -31 -132 -92.5t-77 -170.5z" />
    <glyph glyph-name="uhungarumlaut" unicode="&#x171;" horiz-adv-x="993" 
d="M883 1505h188q-64 -107 -151.5 -196.5t-212.5 -175.5h-7q121 151 183 372zM635 1505h188q-64 -107 -151.5 -196.5t-212.5 -175.5h-6q119 149 182 372zM920 88q-87 -108 -199 -108q-64 0 -101.5 38.5t-37.5 106.5q0 41 26 137q-71 -133 -155 -207.5t-191 -74.5
q-90 0 -142 57.5t-52 150.5q0 42 12 91l129 509q10 48 10 76q0 76 -82 127v4h293l-182 -719q-12 -44 -12 -79q0 -113 106 -113q42 0 86 23t87 67.5t80.5 119.5t61.5 171l134 530h170l-205 -827q-6 -18 -6 -35q0 -34 19.5 -53t53.5 -19q38 0 95 31z" />
    <glyph glyph-name="Uogonek" unicode="&#x172;" horiz-adv-x="1228" 
d="M514 -483q-61 0 -100 37t-39 96q0 98 80 180.5t219 163.5q-57 -14 -131 -14q-231 0 -340 143.5t-53 368.5l174 690q29 100 17 159t-77 89v4h412v-4q-78 -29 -115 -84t-65 -164l-170 -682q-50 -193 20.5 -311.5t237.5 -118.5q169 0 273.5 106.5t156.5 317.5l170 675
q26 108 6.5 169.5t-86.5 91.5v4h346v-4q-83 -31 -132 -92.5t-77 -170.5l-170 -682q-85 -346 -313 -462q-124 -78 -189 -163t-65 -169q0 -41 22.5 -63.5t65.5 -22.5q92 0 180 114l6 -4q-105 -198 -264 -198z" />
    <glyph glyph-name="uogonek" unicode="&#x173;" horiz-adv-x="993" 
d="M608 -483q-61 0 -100 37t-39 96q0 93 73.5 173.5t200.5 158.5q-6 -2 -22 -2q-71 0 -109 47.5t-26 128.5q0 7 9.5 51.5t12.5 54.5q-71 -133 -155 -207.5t-191 -74.5q-112 0 -162.5 86t-19.5 213l129 509q19 81 2 124.5t-74 78.5v4h293l-182 -719q-12 -52 -11 -95t27.5 -70
t77.5 -27q42 0 86 23t87 67.5t80.5 119.5t61.5 171l134 530h170l-205 -827q-20 -75 32 -99t130 23l2 -4q-43 -49 -91 -80q-231 -155 -231 -317q0 -41 22.5 -63.5t65.5 -22.5q91 0 180 114l6 -4q-105 -198 -264 -198z" />
    <glyph glyph-name="Wcircumflex" unicode="&#x174;" horiz-adv-x="1685" 
d="M1335 1507q-66 24 -124 61.5t-87 76.5q-106 -79 -305 -138h-14q242 168 362 351h11q25 -189 174 -351h-17zM983 -20l-20 1040l-570 -1040h-10l-51 1228q-3 100 -19 141.5t-69 80.5v4h391v-4q-77 -27 -104 -65t-29 -116v-39l35 -852l424 762l-3 88q-1 97 -18 139.5
t-70 82.5v4h385v-4q-76 -27 -102 -64t-31 -117v-41l13 -870l481 829q57 96 57 160q0 68 -69 103v4h325v-4q-76 -40 -126 -92.5t-109 -153.5l-699 -1204h-12z" />
    <glyph glyph-name="wcircumflex" unicode="&#x175;" horiz-adv-x="1368" 
d="M1085 1122q-55 33 -105 84.5t-77 100.5q-54 -46 -143 -98.5t-170 -86.5h-15q110 88 210 195.5t169 218.5h9q11 -220 137 -414h-15zM936 995l-164 -592q-29 -110 -29 -170q0 -82 36.5 -123.5t103.5 -41.5q95 0 179 94t130.5 233t46.5 277q0 92 -33.5 140t-95.5 48
q-70 0 -106 -61v26q0 84 41.5 137.5t111.5 53.5q87 0 131.5 -69t44.5 -189q0 -127 -40.5 -265t-107 -251.5t-162 -187.5t-194.5 -74q-107 0 -175.5 70t-71.5 179q-35 -106 -114.5 -177.5t-170.5 -71.5q-110 0 -172 74t-62 186q0 44 15 95.5t33 92t59 105t64.5 99t80 113
t78.5 109.5l-61 -4q-117 -10 -166 -30t-84 -85v15q0 106 43 177.5t115 71.5q33 0 92.5 -28.5t95.5 -34.5l41 72h41q-146 -270 -211.5 -423.5t-65.5 -277.5q0 -102 40.5 -155.5t109.5 -53.5q141 0 211 244l125 446q12 43 12 76q0 75 -84 127v4h289z" />
    <glyph glyph-name="Ycircumflex" unicode="&#x176;" horiz-adv-x="1159" 
d="M1096 1507q-66 24 -124 61.5t-87 76.5q-106 -79 -305 -138h-15q244 169 363 351h10q25 -189 174 -351h-16zM1393 1434v-4q-66 -37 -108 -78.5t-107 -124.5l-490 -629l-90 -362q-18 -64 -18 -107q0 -47 21 -75.5t67 -49.5v-4h-420v4q81 30 120 80t64 152l90 362l-176 629
q-27 86 -47.5 125.5t-65.5 77.5v4h365v-4q-48 -23 -72 -54.5t-24 -79.5q0 -30 8 -61l160 -576l430 553q53 71 53 125q0 58 -66 93v4h306z" />
    <glyph glyph-name="ycircumflex" unicode="&#x177;" horiz-adv-x="968" 
d="M870 1122q-55 33 -105 84.5t-77 100.5q-54 -46 -143 -98.5t-170 -86.5h-15q110 88 210 195.5t169 218.5h9q11 -220 137 -414h-15zM967 995l-234 -929q-33 -135 -77 -233t-106 -170t-145 -108t-188 -36q-134 0 -219.5 59t-85.5 156q0 68 43.5 109.5t107.5 41.5
q52 0 99 -35q-40 -5 -67 -39.5t-27 -97.5q0 -72 41.5 -114.5t111.5 -42.5q55 0 100.5 24t79 64.5t64 109.5t53 142.5t49.5 181.5l45 184q-35 -63 -69 -109.5t-77 -88t-94.5 -63t-109.5 -21.5q-90 0 -142 57.5t-52 150.5q0 42 12 91l129 509q10 48 10 76q0 76 -82 127v4h293
l-182 -719q-12 -44 -12 -79q0 -113 102 -113q45 0 91 23t90 67.5t82.5 119.5t62.5 171l131 530h172z" />
    <glyph glyph-name="Ydieresis" unicode="&#x178;" horiz-adv-x="1159" 
d="M1042 1778q49 0 80 -30t31 -75q0 -51 -36 -87t-87 -36q-47 0 -77.5 30t-30.5 73q0 52 35 88.5t85 36.5zM727 1778q49 0 79 -30t30 -75q0 -51 -35.5 -87t-87.5 -36q-47 0 -77 30t-30 73q0 53 35 89t86 36zM1393 1434v-4q-66 -37 -108 -78.5t-107 -124.5l-490 -629
l-90 -362q-18 -64 -18 -107q0 -47 21 -75.5t67 -49.5v-4h-420v4q81 30 120 80t64 152l90 362l-176 629q-27 86 -47.5 125.5t-65.5 77.5v4h365v-4q-48 -23 -72 -54.5t-24 -79.5q0 -30 8 -61l160 -576l430 553q53 71 53 125q0 58 -66 93v4h306z" />
    <glyph glyph-name="Zacute" unicode="&#x179;" horiz-adv-x="1136" 
d="M915 1829h218q-125 -179 -390 -307h-8q70 79 110.5 149.5t69.5 157.5zM872 0h-950v4l1131 1382h-260q-48 0 -89.5 -4.5t-79 -17t-67 -25t-62 -37.5t-56 -45t-57.5 -58.5t-57 -66t-63 -77.5h-4l141 393q21 -14 93 -14h800v-4l-1126 -1381h246q92 0 162.5 13t126.5 37
t110.5 71.5t101 102t111.5 143.5h4z" />
    <glyph glyph-name="zacute" unicode="&#x17a;" horiz-adv-x="870" 
d="M659 1505h199q-65 -105 -155 -194.5t-218 -177.5h-8q121 151 182 372zM510 -27q-39 0 -77 18t-68 44.5t-62.5 57.5t-60 57.5t-62 44.5t-67.5 18q-32 0 -51 -18.5t-19 -55.5q0 -51 38.5 -69.5t94.5 4.5q-13 -39 -40.5 -64.5t-65.5 -25.5q-40 0 -69.5 31t-29.5 81
q0 55 21.5 105t55 88.5t91.5 79.5t112 71.5t136 71.5q15 8 54.5 27t57 28t53 27.5t54 29t48 27.5t47.5 30t38.5 28.5t35.5 30.5t26 30q-38 -20 -70 -20q-49 0 -112 23t-134 46t-141 23q-131 0 -192 -137h-7q23 145 93 228t163 83q46 0 87.5 -23t73.5 -56t62 -66.5t66 -56.5
t74 -23q26 0 42.5 15t16.5 46q0 44 -37 65.5t-92 6.5q13 35 43 56t66 21q38 0 64 -30t26 -78q0 -43 -15 -82.5t-45.5 -74t-66.5 -64t-89.5 -60.5t-102 -56.5t-115.5 -59.5l-58 -29q-142 -71 -222.5 -123.5t-115.5 -112.5q38 23 74 23q52 0 125 -27t153 -54.5t148 -27.5
q60 0 113.5 35t79.5 105h8q-23 -154 -93.5 -233t-160.5 -79z" />
    <glyph glyph-name="Zdotaccent" unicode="&#x17b;" horiz-adv-x="1136" 
d="M893 1794q52 0 83.5 -31.5t31.5 -79.5q0 -53 -36 -91t-91 -38q-51 0 -83 32t-32 79q0 54 36.5 91.5t90.5 37.5zM872 0h-950v4l1131 1382h-260q-48 0 -89.5 -4.5t-79 -17t-67 -25t-62 -37.5t-56 -45t-57.5 -58.5t-57 -66t-63 -77.5h-4l141 393q21 -14 93 -14h800v-4
l-1126 -1381h246q92 0 162.5 13t126.5 37t110.5 71.5t101 102t111.5 143.5h4z" />
    <glyph glyph-name="zdotaccent" unicode="&#x17c;" horiz-adv-x="870" 
d="M641 1450q52 0 83.5 -31.5t31.5 -79.5q0 -54 -36.5 -91.5t-90.5 -37.5q-52 0 -83.5 31.5t-31.5 79.5q0 55 36 92t91 37zM510 -27q-39 0 -77 18t-68 44.5t-62.5 57.5t-60 57.5t-62 44.5t-67.5 18q-32 0 -51 -18.5t-19 -55.5q0 -51 38.5 -69.5t94.5 4.5
q-13 -39 -40.5 -64.5t-65.5 -25.5q-40 0 -69.5 31t-29.5 81q0 55 21.5 105t55 88.5t91.5 79.5t112 71.5t136 71.5q15 8 54.5 27t57 28t53 27.5t54 29t48 27.5t47.5 30t38.5 28.5t35.5 30.5t26 30q-38 -20 -70 -20q-49 0 -112 23t-134 46t-141 23q-131 0 -192 -137h-7
q23 145 93 228t163 83q46 0 87.5 -23t73.5 -56t62 -66.5t66 -56.5t74 -23q26 0 42.5 15t16.5 46q0 44 -37 65.5t-92 6.5q13 35 43 56t66 21q38 0 64 -30t26 -78q0 -43 -15 -82.5t-45.5 -74t-66.5 -64t-89.5 -60.5t-102 -56.5t-115.5 -59.5l-58 -29q-142 -71 -222.5 -123.5
t-115.5 -112.5q38 23 74 23q52 0 125 -27t153 -54.5t148 -27.5q60 0 113.5 35t79.5 105h8q-23 -154 -93.5 -233t-160.5 -79z" />
    <glyph glyph-name="Zcaron" unicode="&#x17d;" horiz-adv-x="1136" 
d="M680 1858q66 -24 124 -61.5t87 -76.5q106 79 305 138h14q-242 -168 -362 -351h-10q-25 189 -174 351h16zM872 0h-950v4l1131 1382h-260q-48 0 -89.5 -4.5t-79 -17t-67 -25t-62 -37.5t-56 -45t-57.5 -58.5t-57 -66t-63 -77.5h-4l141 393q21 -14 93 -14h800v-4l-1126 -1381
h246q92 0 162.5 13t126.5 37t110.5 71.5t101 102t111.5 143.5h4z" />
    <glyph glyph-name="zcaron" unicode="&#x17e;" horiz-adv-x="870" 
d="M446 1538q57 -34 107.5 -85.5t77.5 -100.5q51 45 139 96.5t172 89.5h14q-242 -200 -378 -416h-9q-8 211 -135 416h12zM510 -27q-39 0 -77 18t-68 44.5t-62.5 57.5t-60 57.5t-62 44.5t-67.5 18q-32 0 -51 -18.5t-19 -55.5q0 -51 38.5 -69.5t94.5 4.5q-13 -39 -40.5 -64.5
t-65.5 -25.5q-40 0 -69.5 31t-29.5 81q0 55 21.5 105t55 88.5t91.5 79.5t112 71.5t136 71.5q15 8 54.5 27t57 28t53 27.5t54 29t48 27.5t47.5 30t38.5 28.5t35.5 30.5t26 30q-38 -20 -70 -20q-49 0 -112 23t-134 46t-141 23q-131 0 -192 -137h-7q23 145 93 228t163 83
q46 0 87.5 -23t73.5 -56t62 -66.5t66 -56.5t74 -23q26 0 42.5 15t16.5 46q0 44 -37 65.5t-92 6.5q13 35 43 56t66 21q38 0 64 -30t26 -78q0 -43 -15 -82.5t-45.5 -74t-66.5 -64t-89.5 -60.5t-102 -56.5t-115.5 -59.5l-58 -29q-142 -71 -222.5 -123.5t-115.5 -112.5
q38 23 74 23q52 0 125 -27t153 -54.5t148 -27.5q60 0 113.5 35t79.5 105h8q-23 -154 -93.5 -233t-160.5 -79z" />
    <glyph glyph-name="uni0192" unicode="&#x192;" horiz-adv-x="892" 
d="M342 0q-52 -187 -152.5 -286t-232.5 -99q-105 0 -168 40t-63 112q0 64 39.5 101.5t105.5 37.5q61 0 104 -37q-46 2 -77 -34t-31 -99q0 -42 24 -65t66 -23q37 0 67.5 22t54 65.5t40.5 90.5t35 113l206 763h-188l12 37h187l90 330q50 187 151.5 286t233.5 99
q104 0 166.5 -39.5t62.5 -111.5q0 -64 -39.5 -102t-105.5 -38q-30 0 -58.5 10.5t-44.5 26.5q45 -2 76 34.5t31 98.5q0 43 -23.5 65.5t-66.5 22.5q-37 0 -67.5 -22t-54 -65.5t-40.5 -90.5t-35 -113l-106 -391h231l-12 -37h-228z" />
    <glyph glyph-name="AEacute" unicode="&#x1fc;" horiz-adv-x="1808" 
d="M1499 1829h217q-126 -180 -389 -307h-8q70 79 110.5 149.5t69.5 157.5zM1073 1286l-590 -711h412zM186 4v-4h-311v4q70 43 128.5 99t137.5 151l848 1026q37 37 37 70q0 47 -80 80v4h823q75 0 107 14l-27 -350h-4q-21 78 -45.5 128t-65 87.5t-99.5 54t-144 16.5h-221
l-156 -630h156q125 0 190 42.5t154 184.5h4l-117 -471h-4q-6 48 -14 80t-23 54.5t-29.5 34.5t-43.5 18.5t-55.5 8t-74.5 1.5h-155l-164 -658h229q119 0 213 38.5t168 108t160 187.5h4l-147 -383h-930v4q79 29 116 84t64 164l68 272h-443l-233 -280q-84 -105 -84 -158
q0 -50 63 -82z" />
    <glyph glyph-name="aeacute" unicode="&#x1fd;" horiz-adv-x="1357" 
d="M1008 1505h198q-65 -105 -155 -194.5t-217 -177.5h-9q122 153 183 372zM903 -20q-106 0 -184 53.5t-113 152.5q-130 -206 -305 -206q-122 0 -195 91t-73 246q0 170 69 332t187.5 264.5t251.5 102.5q91 0 149 -52t76 -135q76 87 171 137t198 50q109 0 173 -55t64 -144
q0 -83 -47 -147.5t-131 -106.5t-191 -66t-237 -32q-12 -68 -12 -131q0 -140 55.5 -208.5t159.5 -68.5q168 0 299 193h10q-54 -131 -154.5 -200.5t-220.5 -69.5zM1133 975q-77 0 -153 -71t-130 -180t-80 -232q97 13 177.5 41.5t143.5 73t98.5 110t35.5 145.5q0 53 -23 83
t-69 30zM365 61q59 0 119.5 44.5t107.5 125.5q-12 53 -12 117q0 115 40.5 231.5t112.5 211.5q-10 74 -54.5 113.5t-103.5 39.5q-99 0 -185 -101.5t-133.5 -251t-47.5 -300.5q0 -110 39 -170t117 -60z" />
    <glyph glyph-name="Oslashacute" unicode="&#x1fe;" horiz-adv-x="1269" 
d="M971 1829h217q-126 -180 -389 -307h-8q70 79 110.5 149.5t69.5 157.5zM285 397q0 -58 8 -102l786 872q-24 111 -86.5 175.5t-161.5 64.5q-103 0 -194.5 -75.5t-158 -197.5t-118.5 -288q-75 -236 -75 -449zM545 27q103 0 194.5 75.5t158 197.5t118.5 288q76 239 76 448
q0 14 -5 72l-782 -872q27 -98 87.5 -153.5t152.5 -55.5zM545 -20q-211 0 -332 153l-154 -170l-36 33l161 178q-84 134 -84 330q0 178 59 351t156.5 305t233.5 213t282 81q224 0 349 -174l153 170l35 -31l-164 -182q72 -126 72 -305q0 -178 -59 -351.5t-156.5 -305.5
t-233.5 -213.5t-282 -81.5z" />
    <glyph glyph-name="oslashacute" unicode="&#x1ff;" horiz-adv-x="935" 
d="M694 1505h199q-65 -105 -155 -194.5t-218 -177.5h-8q121 151 182 372zM221 295v-39l490 524q-16 195 -150 195q-64 0 -126 -63t-107.5 -159t-73.5 -210q-33 -139 -33 -248zM375 20q94 0 177 127t128 306q35 131 35 249v17l-488 -522q23 -177 148 -177zM371 -20
q-156 0 -244 108l-131 -139l-35 26l139 150q-57 91 -57 225q0 120 40.5 240t108.5 214t166 153t205 59q164 0 256 -121l125 135l37 -26l-137 -148q49 -90 49 -211q0 -120 -40.5 -239.5t-109 -213.5t-167 -153t-205.5 -59z" />
    <glyph glyph-name="uni0218" unicode="&#x218;" horiz-adv-x="1013" 
d="M995 1018q-13 85 -34.5 150.5t-57 123t-92 88.5t-131.5 31q-135 0 -210 -86.5t-75 -212.5q0 -69 28.5 -124.5t74 -93.5t100.5 -72t110 -69t100.5 -75.5t74 -100.5t28.5 -135q0 -137 -66 -244t-174.5 -162.5t-238.5 -55.5q-74 0 -142.5 17t-117 34.5t-74.5 17.5
q-54 0 -118 -55l81 467h5q31 -206 124.5 -321t241.5 -115q78 0 139 28t98.5 76t56.5 107.5t19 125.5q0 68 -28 122t-73 90.5t-99.5 69.5t-108.5 68t-99 75.5t-73 101.5t-28 137q0 190 126.5 309t317.5 119q73 0 136 -16t106.5 -31.5t68.5 -15.5q52 0 105 49l-97 -422h-4z
M444 -250q0 -95 -81 -165t-218 -74l7 26q190 22 213 164q-36 -25 -80 -25q-37 0 -62.5 24t-27.5 56q0 54 36.5 89.5t92.5 35.5q57 0 88.5 -35t31.5 -96z" />
    <glyph glyph-name="uni0219" unicode="&#x219;" horiz-adv-x="778" 
d="M147 707q0 130 102 219.5t247 89.5q117 0 194.5 -49.5t77.5 -130.5q0 -59 -35 -96.5t-88 -37.5q-64 0 -92 41q34 3 57 34.5t23 80.5q0 58 -37.5 89.5t-108.5 31.5q-88 0 -144 -55t-56 -136q0 -59 32.5 -100.5t122.5 -105.5q62 -44 95.5 -70.5t67 -61.5t47.5 -70.5
t14 -78.5q0 -139 -110 -230t-267 -91q-131 0 -219 57.5t-88 148.5q0 64 39 104t96 40q56 0 92 -39q-38 -3 -62 -36t-24 -81q0 -73 46.5 -115.5t127.5 -42.5q96 0 158.5 60t62.5 151q0 56 -38.5 101.5t-129.5 105.5q-104 69 -153.5 127.5t-49.5 145.5zM336 -250
q0 -95 -81 -165t-218 -74l6 26q190 22 213 164q-36 -25 -80 -25q-37 0 -62.5 24t-27.5 56q0 54 36.5 89.5t92.5 35.5q57 0 89 -35.5t32 -95.5z" />
    <glyph glyph-name="uni021A" unicode="&#x21a;" horiz-adv-x="1263" 
d="M410 1434h905q71 0 100 14l-53 -420h-4q-13 68 -24.5 113t-29 89.5t-39.5 71t-54.5 48t-76 30.5t-100.5 9h-96l-289 -1153q-16 -69 -16 -107q0 -47 21 -75.5t67 -49.5v-4h-428v4q81 30 120 80t64 152l287 1153h-92q-66 0 -121 -15t-99 -40t-93 -74t-89 -99t-100 -133h-4
l149 420q23 -14 95 -14zM580 -250q0 -95 -81 -165t-218 -74l6 26q190 22 213 164q-36 -25 -80 -25q-37 0 -62.5 24t-27.5 56q0 54 36.5 89.5t92.5 35.5q57 0 89 -35.5t32 -95.5z" />
    <glyph glyph-name="uni021B" unicode="&#x21b;" horiz-adv-x="587" 
d="M426 942l-184 -737q-4 -32 -4 -41q0 -45 26 -69.5t68 -24.5q43 0 92 25.5t92 74.5l4 -4q-118 -186 -295 -186q-78 0 -122 42.5t-44 114.5q0 27 7 62l186 743h-125l2 12q141 39 227.5 133t159.5 261h14l-92 -353h250l-22 -53h-240zM258 -250q0 -95 -81 -165t-218 -74l6 26
q190 22 213 164q-36 -25 -80 -25q-37 0 -62.5 24t-27.5 56q0 54 36.5 89.5t92.5 35.5q57 0 89 -35.5t32 -95.5z" />
    <glyph glyph-name="uni0237" unicode="&#x237;" horiz-adv-x="446" 
d="M440 995l-233 -925q-75 -303 -167.5 -427t-240.5 -124q-99 0 -161 44t-62 120q0 68 47 109.5t119 41.5q59 0 88 -29q-53 -13 -81 -52.5t-28 -96.5q0 -46 22.5 -73t63.5 -27q65 0 103 77t88 277l219 878q12 44 12 74q0 79 -84 129v4h295z" />
    <glyph glyph-name="uni02BB" unicode="&#x2bb;" horiz-adv-x="1024" 
d="M584 1292q0 94 81.5 165t217.5 75l-6 -29q-190 -22 -213 -162q38 23 79 23q38 0 64.5 -23.5t28.5 -56.5q0 -53 -37 -88t-92 -35q-57 0 -90 35t-33 96z" />
    <glyph glyph-name="circumflex" unicode="&#x2c6;" horiz-adv-x="1024" 
d="M891 1122q-55 33 -105 84.5t-77 100.5q-54 -46 -143 -98t-171 -87h-14q110 88 210 195.5t169 218.5h8q11 -220 137 -414h-14z" />
    <glyph glyph-name="caron" unicode="&#x2c7;" horiz-adv-x="1024" 
d="M526 1538q57 -34 107.5 -85.5t77.5 -100.5q51 45 139 96.5t172 89.5h14q-244 -201 -379 -416h-8q-8 211 -135 416h12z" />
    <glyph glyph-name="breve" unicode="&#x2d8;" horiz-adv-x="1024" 
d="M993 1491q-38 -160 -123.5 -252t-189.5 -92q-105 0 -149.5 92t-8.5 252h17q-16 -106 36 -157.5t136 -51.5q52 0 102 19.5t96.5 68.5t69.5 121h14z" />
    <glyph glyph-name="dotaccent" unicode="&#x2d9;" horiz-adv-x="1024" 
d="M727 1450q52 0 83.5 -31.5t31.5 -79.5q0 -54 -36.5 -91.5t-90.5 -37.5q-52 0 -83.5 31.5t-31.5 79.5q0 55 36 92t91 37z" />
    <glyph glyph-name="ring" unicode="&#x2da;" horiz-adv-x="1024" 
d="M528 1317q0 71 59 126.5t134 55.5q71 0 118.5 -47.5t47.5 -120.5q0 -72 -59 -128t-134 -56q-71 0 -118.5 48.5t-47.5 121.5zM840 1331q0 54 -34 88.5t-87 34.5q-57 0 -100.5 -41.5t-43.5 -95.5q0 -55 34 -90t87 -35q57 0 100.5 42.5t43.5 96.5z" />
    <glyph glyph-name="ogonek" unicode="&#x2db;" horiz-adv-x="1024" 
d="M150 -350q0 60 31.5 116.5t91 106t118.5 87t141 81.5l5 -14q-258 -176 -258 -336q0 -41 22.5 -63.5t65.5 -22.5q91 0 180 114l6 -4q-105 -198 -264 -198q-61 0 -100 37t-39 96z" />
    <glyph glyph-name="tilde" unicode="&#x2dc;" horiz-adv-x="1024" 
d="M1004 1452q-47 -131 -108.5 -201.5t-127.5 -70.5q-27 0 -53.5 14.5t-48.5 35t-43.5 41.5t-46 35.5t-48.5 14.5q-92 0 -176 -150h-16q47 132 108 202.5t127 70.5q27 0 53.5 -14.5t48.5 -35t43.5 -40.5t46 -34.5t48.5 -14.5q94 0 176 147h17z" />
    <glyph glyph-name="hungarumlaut" unicode="&#x2dd;" horiz-adv-x="1024" 
d="M838 1505h188q-64 -107 -151.5 -196.5t-212.5 -175.5h-7q121 151 183 372zM590 1505h188q-64 -107 -151.5 -196.5t-212.5 -175.5h-6q119 149 182 372z" />
    <glyph glyph-name="Wgrave" unicode="&#x1e80;" horiz-adv-x="1685" 
d="M1128 1829q-7 -77 8.5 -146t55.5 -161h-6q-209 136 -250 307h192zM983 -20l-20 1040l-570 -1040h-10l-51 1228q-3 100 -19 141.5t-69 80.5v4h391v-4q-77 -27 -104 -65t-29 -116v-39l35 -852l424 762l-3 88q-1 97 -18 139.5t-70 82.5v4h385v-4q-76 -27 -102 -64t-31 -117
v-41l13 -870l481 829q57 96 57 160q0 68 -69 103v4h325v-4q-76 -40 -126 -92.5t-109 -153.5l-699 -1204h-12z" />
    <glyph glyph-name="wgrave" unicode="&#x1e81;" horiz-adv-x="1368" 
d="M915 1505q-25 -204 33 -372h-6q-89 89 -138.5 178.5t-62.5 193.5h174zM936 995l-164 -592q-29 -110 -29 -170q0 -82 36.5 -123.5t103.5 -41.5q95 0 179 94t130.5 233t46.5 277q0 92 -33.5 140t-95.5 48q-70 0 -106 -61v26q0 84 41.5 137.5t111.5 53.5q87 0 131.5 -69
t44.5 -189q0 -127 -40.5 -265t-107 -251.5t-162 -187.5t-194.5 -74q-107 0 -175.5 70t-71.5 179q-35 -106 -114.5 -177.5t-170.5 -71.5q-110 0 -172 74t-62 186q0 44 15 95.5t33 92t59 105t64.5 99t80 113t78.5 109.5l-61 -4q-117 -10 -166 -30t-84 -85v15q0 106 43 177.5
t115 71.5q33 0 92.5 -28.5t95.5 -34.5l41 72h41q-146 -270 -211.5 -423.5t-65.5 -277.5q0 -102 40.5 -155.5t109.5 -53.5q141 0 211 244l125 446q12 43 12 76q0 75 -84 127v4h289z" />
    <glyph glyph-name="Wacute" unicode="&#x1e82;" horiz-adv-x="1685" 
d="M1153 1829h217q-126 -180 -389 -307h-8q70 79 110.5 149.5t69.5 157.5zM983 -20l-20 1040l-570 -1040h-10l-51 1228q-3 100 -19 141.5t-69 80.5v4h391v-4q-77 -27 -104 -65t-29 -116v-39l35 -852l424 762l-3 88q-1 97 -18 139.5t-70 82.5v4h385v-4q-76 -27 -102 -64
t-31 -117v-41l13 -870l481 829q57 96 57 160q0 68 -69 103v4h325v-4q-76 -40 -126 -92.5t-109 -153.5l-699 -1204h-12z" />
    <glyph glyph-name="wacute" unicode="&#x1e83;" horiz-adv-x="1368" 
d="M913 1505h199q-65 -105 -155 -194.5t-218 -177.5h-8q121 151 182 372zM936 995l-164 -592q-29 -110 -29 -170q0 -82 36.5 -123.5t103.5 -41.5q95 0 179 94t130.5 233t46.5 277q0 92 -33.5 140t-95.5 48q-70 0 -106 -61v26q0 84 41.5 137.5t111.5 53.5q87 0 131.5 -69
t44.5 -189q0 -127 -40.5 -265t-107 -251.5t-162 -187.5t-194.5 -74q-107 0 -175.5 70t-71.5 179q-35 -106 -114.5 -177.5t-170.5 -71.5q-110 0 -172 74t-62 186q0 44 15 95.5t33 92t59 105t64.5 99t80 113t78.5 109.5l-61 -4q-117 -10 -166 -30t-84 -85v15q0 106 43 177.5
t115 71.5q33 0 92.5 -28.5t95.5 -34.5l41 72h41q-146 -270 -211.5 -423.5t-65.5 -277.5q0 -102 40.5 -155.5t109.5 -53.5q141 0 211 244l125 446q12 43 12 76q0 75 -84 127v4h289z" />
    <glyph glyph-name="Wdieresis" unicode="&#x1e84;" horiz-adv-x="1685" 
d="M1280 1778q49 0 80 -30t31 -75q0 -51 -36 -87t-87 -36q-47 0 -78 30t-31 73q0 52 35.5 88.5t85.5 36.5zM965 1778q49 0 78.5 -30t29.5 -75q0 -51 -35.5 -87t-87.5 -36q-46 0 -76 30t-30 73q0 53 35 89t86 36zM983 -20l-20 1040l-570 -1040h-10l-51 1228q-3 100 -19 141.5
t-69 80.5v4h391v-4q-77 -27 -104 -65t-29 -116v-39l35 -852l424 762l-3 88q-1 97 -18 139.5t-70 82.5v4h385v-4q-76 -27 -102 -64t-31 -117v-41l13 -870l481 829q57 96 57 160q0 68 -69 103v4h325v-4q-76 -40 -126 -92.5t-109 -153.5l-699 -1204h-12z" />
    <glyph glyph-name="wdieresis" unicode="&#x1e85;" horiz-adv-x="1368" 
d="M1059 1417q49 0 78.5 -29.5t29.5 -74.5q0 -51 -35.5 -87t-87.5 -36q-47 0 -76.5 29.5t-29.5 72.5q0 53 35 89t86 36zM741 1417q49 0 80 -29.5t31 -74.5q0 -51 -36 -87t-87 -36q-47 0 -77.5 29.5t-30.5 72.5q0 52 35 88.5t85 36.5zM936 995l-164 -592q-29 -110 -29 -170
q0 -82 36.5 -123.5t103.5 -41.5q95 0 179 94t130.5 233t46.5 277q0 92 -33.5 140t-95.5 48q-70 0 -106 -61v26q0 84 41.5 137.5t111.5 53.5q87 0 131.5 -69t44.5 -189q0 -127 -40.5 -265t-107 -251.5t-162 -187.5t-194.5 -74q-107 0 -175.5 70t-71.5 179
q-35 -106 -114.5 -177.5t-170.5 -71.5q-110 0 -172 74t-62 186q0 44 15 95.5t33 92t59 105t64.5 99t80 113t78.5 109.5l-61 -4q-117 -10 -166 -30t-84 -85v15q0 106 43 177.5t115 71.5q33 0 92.5 -28.5t95.5 -34.5l41 72h41q-146 -270 -211.5 -423.5t-65.5 -277.5
q0 -102 40.5 -155.5t109.5 -53.5q141 0 211 244l125 446q12 43 12 76q0 75 -84 127v4h289z" />
    <glyph glyph-name="Ygrave" unicode="&#x1ef2;" horiz-adv-x="1159" 
d="M891 1829q-7 -78 8.5 -147t54.5 -160h-6q-209 136 -250 307h193zM1393 1434v-4q-66 -37 -108 -78.5t-107 -124.5l-490 -629l-90 -362q-18 -64 -18 -107q0 -47 21 -75.5t67 -49.5v-4h-420v4q81 30 120 80t64 152l90 362l-176 629q-27 86 -47.5 125.5t-65.5 77.5v4h365v-4
q-48 -23 -72 -54.5t-24 -79.5q0 -30 8 -61l160 -576l430 553q53 71 53 125q0 58 -66 93v4h306z" />
    <glyph glyph-name="ygrave" unicode="&#x1ef3;" horiz-adv-x="968" 
d="M700 1505q-25 -204 33 -372h-6q-89 89 -138.5 178.5t-62.5 193.5h174zM967 995l-234 -929q-33 -135 -77 -233t-106 -170t-145 -108t-188 -36q-134 0 -219.5 59t-85.5 156q0 68 43.5 109.5t107.5 41.5q52 0 99 -35q-40 -5 -67 -39.5t-27 -97.5q0 -72 41.5 -114.5
t111.5 -42.5q55 0 100.5 24t79 64.5t64 109.5t53 142.5t49.5 181.5l45 184q-35 -63 -69 -109.5t-77 -88t-94.5 -63t-109.5 -21.5q-90 0 -142 57.5t-52 150.5q0 42 12 91l129 509q10 48 10 76q0 76 -82 127v4h293l-182 -719q-12 -44 -12 -79q0 -113 102 -113q45 0 91 23
t90 67.5t82.5 119.5t62.5 171l131 530h172z" />
    <glyph glyph-name="uni2009" unicode="&#x2009;" horiz-adv-x="81" 
 />
    <glyph glyph-name="endash" unicode="&#x2013;" horiz-adv-x="884" 
d="M76 537l12 55h752l-13 -55h-751z" />
    <glyph glyph-name="emdash" unicode="&#x2014;" horiz-adv-x="1390" 
d="M76 537l12 55h1260l-13 -55h-1259z" />
    <glyph glyph-name="quoteleft" unicode="&#x2018;" horiz-adv-x="382" 
d="M301 1217q33 20 72 20q48 0 75 -28.5t27 -71.5q0 -58 -39.5 -94.5t-97.5 -36.5q-61 0 -98 42.5t-37 108.5q0 96 56 173.5t146.5 120t196.5 46.5l-6 -29q-129 -13 -210.5 -84.5t-84.5 -166.5z" />
    <glyph glyph-name="quoteright" unicode="&#x2019;" horiz-adv-x="382" 
d="M451 1268q-35 -21 -72 -21q-48 0 -75.5 29t-27.5 72q0 57 40 94t98 37q61 0 98 -43t37 -109q0 -96 -56 -173.5t-146.5 -120t-196.5 -46.5l6 29q128 13 210 85t85 167z" />
    <glyph glyph-name="quotesinglbase" unicode="&#x201a;" horiz-adv-x="382" 
d="M137 10q-33 -20 -71 -20q-48 0 -75.5 28.5t-27.5 71.5q0 58 39.5 94.5t97.5 36.5q61 0 98.5 -43t37.5 -108q0 -96 -56.5 -173.5t-147 -120t-196.5 -46.5l6 28q128 13 210 85t85 167z" />
    <glyph glyph-name="quotedblleft" unicode="&#x201c;" horiz-adv-x="727" 
d="M645 1217q33 20 72 20q48 0 75 -28.5t27 -71.5q0 -58 -39.5 -94.5t-97.5 -36.5q-61 0 -98 42.5t-37 108.5q0 96 56 173.5t146.5 120t196.5 46.5l-6 -29q-129 -13 -210.5 -84.5t-84.5 -166.5zM301 1217q33 20 72 20q48 0 75 -28.5t27 -71.5q0 -58 -39.5 -94.5t-97.5 -36.5
q-61 0 -98 42.5t-37 108.5q0 96 56 173.5t146.5 120t196.5 46.5l-6 -29q-129 -13 -210.5 -84.5t-84.5 -166.5z" />
    <glyph glyph-name="quotedblright" unicode="&#x201d;" horiz-adv-x="727" 
d="M379 1247q-47 0 -75 29.5t-28 71.5q0 58 40.5 94.5t99.5 36.5q60 0 96.5 -43t36.5 -109q0 -96 -55.5 -173t-145.5 -119t-196 -46l4 29q130 13 211 83.5t86 166.5q-37 -21 -74 -21zM723 1247q-47 0 -74.5 29.5t-27.5 71.5q0 58 40 94.5t99 36.5q60 0 96.5 -43t36.5 -109
q0 -96 -55.5 -173t-145.5 -119t-196 -46l4 29q130 13 211 83.5t86 166.5q-37 -21 -74 -21z" />
    <glyph glyph-name="quotedblbase" unicode="&#x201e;" horiz-adv-x="727" 
d="M483 10q-36 -20 -73 -20q-48 0 -75.5 29t-27.5 71q0 58 40 94.5t99 36.5q61 0 97.5 -42.5t36.5 -108.5q0 -96 -55.5 -173.5t-146 -120t-196.5 -46.5l4 28q129 13 210.5 84.5t86.5 167.5zM139 10q-36 -20 -73 -20q-48 0 -75.5 29t-27.5 71q0 58 40 94.5t99 36.5
q61 0 97.5 -42.5t36.5 -108.5q0 -96 -56 -173.5t-146.5 -120t-197.5 -46.5l6 28q129 13 210.5 84.5t86.5 167.5z" />
    <glyph glyph-name="dagger" unicode="&#x2020;" horiz-adv-x="696" 
d="M588 1143q-199 -519 -238 -662h-12q15 64 37.5 229.5t37.5 299.5l15 133q3 25 -9 41t-36 16q-44 -86 -109 -86q-25 0 -41 14.5t-16 40.5q0 34 23.5 57.5t54.5 30.5q-3 -24 5.5 -31t25.5 -7q11 0 34.5 7t38.5 7q29 0 61.5 -19.5t39.5 -46.5q40 188 6 318q47 51 98 51
q45 0 74 -51q-99 -129 -156 -318q23 28 66.5 47t73.5 19q15 0 35 -7t32 -7q36 0 47 38q43 -10 43 -59q0 -36 -25.5 -60t-56.5 -24q-35 0 -54 23t-21 63q-53 0 -74 -57z" />
    <glyph glyph-name="daggerdbl" unicode="&#x2021;" horiz-adv-x="735" 
d="M498 985h-19q17 88 6.5 156.5t-32 110.5t-41.5 42q-25 -44 -50.5 -65t-60.5 -21q-27 0 -42 16t-15 40q0 35 25 59.5t61 32.5q-3 -24 6 -31.5t29 -7.5q13 0 40 6t44 6q30 0 57.5 -16.5t36.5 -42.5q26 134 -17 235q18 26 46.5 43t58.5 17t50 -17t26 -43q-95 -103 -134 -235
q21 26 59 42.5t70 16.5q16 0 39 -6t37 -6q40 0 56 39q20 -4 32.5 -20t14.5 -38q0 -39 -26 -64.5t-62 -25.5q-69 0 -72 86q-35 0 -111.5 -96t-111.5 -213zM469 944h16q-16 -88 -5.5 -156.5t32 -110.5t41.5 -42q26 44 52 65t61 21q26 0 41.5 -15.5t15.5 -39.5q0 -35 -26 -60
t-62 -33q3 24 -6 31.5t-27 7.5q-13 0 -40.5 -6t-43.5 -6q-31 0 -58.5 16t-37.5 43q-25 -142 18 -235q-45 -59 -106 -59q-29 0 -48.5 16.5t-25.5 42.5q95 106 133 235q-22 -26 -60.5 -42.5t-68.5 -16.5q-16 0 -39.5 6t-36.5 6q-42 0 -55 -39q-22 4 -34.5 20t-12.5 38
q0 39 25 64.5t61 25.5q71 0 74 -86q35 0 111 95.5t112 213.5z" />
    <glyph glyph-name="bullet" unicode="&#x2022;" horiz-adv-x="610" 
d="M86 553q0 95 68 163t163 68q96 0 165 -68t69 -163t-69.5 -164.5t-164.5 -69.5t-163 69t-68 165z" />
    <glyph glyph-name="ellipsis" unicode="&#x2026;" horiz-adv-x="1179" 
d="M250 117q0 -55 -39.5 -94t-93.5 -39q-55 0 -94 39t-39 94q0 57 38.5 96t94.5 39q55 0 94 -39t39 -96zM627 117q0 -55 -39.5 -94t-93.5 -39q-56 0 -95 39t-39 94q0 57 39 96t95 39q54 0 93.5 -39t39.5 -96zM1008 117q0 -55 -40 -94t-94 -39q-56 0 -94.5 39t-38.5 94
q0 57 38.5 96t94.5 39q55 0 94.5 -39.5t39.5 -95.5z" />
    <glyph glyph-name="perthousand" unicode="&#x2030;" horiz-adv-x="1773" 
d="M88 0h-78l1118 1370q-48 -35 -116 -59.5t-133 -24.5q-102 0 -185 49q38 -72 29 -168q-12 -124 -101.5 -216.5t-205.5 -92.5q-101 0 -161 86.5t-48 202.5q12 124 101.5 215.5t205.5 91.5q52 0 98.5 -20t77.5 -43.5t81.5 -43.5t109.5 -20q92 0 169.5 35.5t172.5 110.5
l20 -19zM412 893q44 0 84 47.5t64.5 118t31.5 145.5q6 61 5 108.5t-21 77t-58 29.5q-44 0 -84 -47t-64.5 -117.5t-31.5 -146.5q-29 -215 74 -215zM770 -10q-93 0 -153 73.5t-60 178.5q0 135 94 239.5t217 104.5q93 0 153 -73t60 -177q0 -135 -94 -240.5t-217 -105.5z
M1370 -10q-93 0 -153 73.5t-60 178.5q0 135 94 239.5t217 104.5q93 0 153 -73t60 -177q0 -135 -94 -240.5t-217 -105.5zM766 25q47 0 91.5 55t71.5 145t27 185q0 69 -18.5 105t-65.5 36t-91 -55t-71 -144t-28 -184q0 -69 18.5 -106t65.5 -37zM1366 25q47 0 91.5 55t71.5 145
t27 185q0 69 -18 105t-65 36t-91 -55t-71.5 -144t-28.5 -184q0 -69 18.5 -106t65.5 -37z" />
    <glyph glyph-name="guilsinglleft" unicode="&#x2039;" horiz-adv-x="503" 
d="M37 498v4q308 161 510 366h12q-142 -225 -305 -381q93 -167 121 -356h-10q-105 208 -328 367z" />
    <glyph glyph-name="guilsinglright" unicode="&#x203a;" horiz-adv-x="501" 
d="M465 502v-4q-311 -163 -510 -367h-12q137 220 305 381q-92 167 -121 356h10q53 -104 139.5 -198.5t188.5 -167.5z" />
    <glyph glyph-name="fraction" unicode="&#x2044;" horiz-adv-x="710" 
d="M-164 -252l1049 1786h59l-1048 -1786h-60z" />
    <glyph glyph-name="Euro" unicode="&#x20ac;" horiz-adv-x="1118" 
d="M1049 412q-64 -215 -186 -323.5t-281 -108.5q-166 0 -271.5 126t-105.5 355q0 65 10 147h-147l10 37h143q6 44 31 139h-141l10 37h143q57 176 157 318.5t235.5 229.5t279.5 87q136 0 216.5 -63t80.5 -168q0 -94 -61 -152.5t-146 -58.5q-47 0 -84.5 23.5t-44.5 58.5
q18 -6 31 -6q64 0 110.5 47t46.5 129q0 68 -36.5 108.5t-114.5 40.5q-107 0 -207 -85.5t-171 -217t-116 -291.5h385l-24 -37h-371q-27 -125 -29 -139h316l-25 -37h-295q-10 -85 -10 -149q0 -180 68.5 -279.5t185.5 -99.5q251 0 395 334z" />
    <glyph glyph-name="uni2117" unicode="&#x2117;" horiz-adv-x="1452" 
d="M684 -20q-120 0 -224.5 44.5t-179.5 123.5t-118 192.5t-43 245.5q0 141 40.5 274t113.5 239t167 187t207.5 124.5t229.5 43.5q246 0 406.5 -169.5t160.5 -436.5q0 -175 -63.5 -337t-168 -277.5t-243.5 -184.5t-285 -69zM162 588q0 -248 148.5 -406.5t375.5 -158.5
q138 0 269.5 66t229 176t157 263t59.5 318q0 249 -148.5 408t-375.5 159q-138 0 -269.5 -66t-229 -176t-157 -263.5t-59.5 -319.5zM674 651l-49 -202q-16 -56 -6.5 -88t57.5 -54v-4h-295v4q43 19 64.5 52t37.5 96l133 534q17 59 12 95t-40 55v2h327q120 0 186 -50.5
t66 -146.5q0 -91 -53 -159t-136 -101t-181 -33h-123zM682 684h88q113 0 181.5 79t68.5 202q0 145 -148 145h-84z" />
    <glyph glyph-name="trademark" unicode="&#x2122;" horiz-adv-x="1484" 
d="M365 1434h409q35 0 53 6l-16 -189h-4q-5 12 -19 45t-20.5 44t-21 29.5t-33 25t-43.5 6.5h-47l-123 -490q-9 -45 -2 -60.5t39 -35.5v-4h-246l2 4q42 20 58.5 37t27.5 59l123 490h-51q-18 0 -34.5 -3.5t-33 -13t-28 -17t-29 -25t-26 -26.5t-29.5 -32.5t-29 -32.5h-4l75 189
q18 -6 52 -6zM1141 1008l266 426h188v-4q-40 -21 -53.5 -37.5t-23.5 -59.5l-107 -424q-9 -46 -3.5 -59t34.5 -35l-2 -4h-228v4q28 16 39 24t21 24.5t18 45.5l111 445l-348 -553h-4l-68 553l-111 -445q-9 -46 -3.5 -59t34.5 -35l-2 -4h-147v4q39 22 52.5 37.5t24.5 56.5
l105 424q10 46 4.5 60.5t-33.5 36.5v4h185z" />
    <glyph glyph-name="uni2153" unicode="&#x2153;" horiz-adv-x="788" 
d="M430 928l105 418q9 36 -9 50t-82 25l2 13h238l-127 -506q-9 -37 7 -51.5t77 -24.5l-2 -12h-338l2 12q69 11 93.5 25t33.5 51zM805 733l-8 -33h-707l8 33h707zM389 602q78 0 133.5 -34.5t55.5 -94.5q0 -66 -58 -107t-141 -49q65 -8 108 -43t43 -88q0 -94 -79 -144
t-187 -50q-39 0 -78.5 11t-72.5 42.5t-33 77.5q0 49 30.5 78.5t77.5 29.5q30 0 53 -13t29 -38h-2q-7 10 -24 10q-28 0 -45 -23t-17 -54q0 -42 21.5 -67.5t60.5 -25.5q62 0 100.5 58.5t38.5 130.5q0 51 -27.5 74t-82.5 26v17q76 1 118 53.5t42 120.5q0 73 -64 73
q-42 0 -69 -27t-27 -67q0 -43 35 -47q13 0 22 6l2 2q-25 -41 -82 -41q-34 0 -54.5 19t-20.5 51q0 63 57.5 98t136.5 35z" />
    <glyph glyph-name="uni2154" unicode="&#x2154;" horiz-adv-x="788" 
d="M694 1323q0 39 -21 62.5t-59 23.5q-57 0 -91 -30.5t-34 -84.5q0 -61 52 -61q25 0 43 12h2q-39 -65 -107 -65q-38 0 -62 25t-24 63q0 80 68 127t153 47q86 0 141.5 -36.5t55.5 -105.5q0 -28 -8.5 -54t-19.5 -46t-37 -44.5t-44 -40t-59 -42t-64 -40t-77 -44.5t-80 -47h137
q76 0 111.5 13.5t79.5 62.5h10l-70 -178h-426v6q42 34 100 80.5t86.5 69t69 56.5t58.5 51.5t43 43.5t34.5 43t21 40.5t14.5 45t3 47.5zM805 733l-8 -33h-707l8 33h707zM188 231q30 0 53 -13t29 -38h-2q-7 10 -24 10q-28 0 -45 -23t-17 -54q0 -42 21.5 -67.5t60.5 -25.5
q62 0 100.5 58.5t38.5 130.5q0 51 -27.5 74t-82.5 26v17q76 1 118 53.5t42 120.5q0 73 -64 73q-42 0 -69 -27t-27 -67q0 -43 35 -47q13 0 22 6l2 2q-25 -41 -82 -41q-34 0 -54.5 19t-20.5 51q0 63 57.5 98t136.5 35q78 0 133.5 -34.5t55.5 -94.5q0 -66 -58 -107t-141 -49
q65 -8 108 -43t43 -88q0 -94 -79 -144t-187 -50q-39 0 -78.5 11t-72.5 42.5t-33 77.5q0 49 30.5 78.5t77.5 29.5z" />
    <glyph glyph-name="uni215B" unicode="&#x215b;" horiz-adv-x="788" 
d="M430 928l105 418q9 36 -9 50t-82 25l2 13h238l-127 -506q-9 -37 7 -51.5t77 -24.5l-2 -12h-338l2 12q69 11 93.5 25t33.5 51zM805 733l-8 -33h-707l8 33h707zM418 340q64 -31 94.5 -64.5t30.5 -80.5q0 -93 -73.5 -148t-170.5 -55q-91 0 -152 38.5t-61 106.5
q0 63 50 104.5t118 49.5q-76 46 -76 119q0 84 62.5 138t154.5 54q66 0 120 -32t54 -91q0 -58 -45.5 -95t-105.5 -44zM393 573q-44 0 -76 -29t-32 -75q0 -58 59 -90l64 -33q35 17 57 56.5t22 82.5q0 39 -24.5 63.5t-69.5 24.5zM354 236l-92 49q-37 -20 -62.5 -59.5
t-25.5 -86.5q0 -52 34.5 -84t88.5 -32q50 0 89.5 31t39.5 81q0 58 -72 101z" />
    <glyph glyph-name="uni215C" unicode="&#x215c;" horiz-adv-x="788" 
d="M487 1030q-28 0 -44.5 -23.5t-16.5 -54.5q0 -42 22 -67t62 -25q61 0 99 58.5t38 130.5q0 51 -27 74t-83 26v16q78 1 119.5 53.5t41.5 120.5q0 74 -65 74q-42 0 -69 -27t-27 -67q0 -44 34 -47q14 0 23 6l2 2q-25 -41 -80 -41q-34 0 -56 19t-22 51q0 62 58.5 97.5
t136.5 35.5t133 -34.5t55 -94.5q0 -67 -57.5 -107.5t-140.5 -48.5q65 -8 108 -43t43 -88q0 -94 -79 -144.5t-185 -50.5q-39 0 -79 11t-73.5 43t-33.5 78q0 48 31 78t77 30q30 0 53 -13t29 -38h-2q-7 10 -25 10zM805 733l-8 -33h-707l8 33h707zM569 479q0 -58 -45.5 -95
t-105.5 -44q64 -31 94.5 -64.5t30.5 -80.5q0 -93 -73.5 -148t-170.5 -55q-91 0 -152 38.5t-61 106.5q0 63 50 104.5t118 49.5q-76 46 -76 119q0 84 62.5 138t154.5 54q66 0 120 -32t54 -91zM487 485q0 39 -24.5 63.5t-69.5 24.5q-44 0 -76 -29t-32 -75q0 -58 59 -90l64 -33
q35 17 57 56.5t22 82.5zM426 135q0 58 -72 101l-92 49q-37 -20 -62.5 -59.5t-25.5 -86.5q0 -52 34.5 -84t88.5 -32q50 0 89.5 31t39.5 81z" />
    <glyph glyph-name="uni215D" unicode="&#x215d;" horiz-adv-x="788" 
d="M729 1065q0 -103 -80 -167t-190 -64q-64 0 -124.5 33t-60.5 96q0 46 31.5 75t77.5 29q30 0 53 -12.5t29 -36.5q-10 10 -25 10q-29 0 -46 -24.5t-17 -55.5q0 -40 21 -64t61 -24q65 0 103 63t38 138q0 55 -24.5 88.5t-75.5 34.5q-69 0 -125 -56l98 314q97 -17 176 -17
q57 0 88 6t58 29h2q-15 -70 -55 -108.5t-119 -38.5q-85 0 -156 26l-53 -161q57 43 147 41q76 -2 122 -43t46 -111zM805 733l-8 -33h-707l8 33h707zM569 479q0 -58 -45.5 -95t-105.5 -44q64 -31 94.5 -64.5t30.5 -80.5q0 -93 -73.5 -148t-170.5 -55q-91 0 -152 38.5
t-61 106.5q0 63 50 104.5t118 49.5q-76 46 -76 119q0 84 62.5 138t154.5 54q66 0 120 -32t54 -91zM487 485q0 39 -24.5 63.5t-69.5 24.5q-44 0 -76 -29t-32 -75q0 -58 59 -90l64 -33q35 17 57 56.5t22 82.5zM426 135q0 58 -72 101l-92 49q-37 -20 -62.5 -59.5t-25.5 -86.5
q0 -52 34.5 -84t88.5 -32q50 0 89.5 31t39.5 81z" />
    <glyph glyph-name="uni215E" unicode="&#x215e;" horiz-adv-x="788" 
d="M348 1235h-10l68 199h421l-2 -2l-145 -162q-147 -166 -186 -422l-146 -14q44 126 117.5 229t185.5 213l41 41h-215q-44 0 -68.5 -16t-60.5 -66zM805 733l-8 -33h-707l8 33h707zM569 479q0 -58 -45.5 -95t-105.5 -44q64 -31 94.5 -64.5t30.5 -80.5q0 -93 -73.5 -148
t-170.5 -55q-91 0 -152 38.5t-61 106.5q0 63 50 104.5t118 49.5q-76 46 -76 119q0 84 62.5 138t154.5 54q66 0 120 -32t54 -91zM487 485q0 39 -24.5 63.5t-69.5 24.5q-44 0 -76 -29t-32 -75q0 -58 59 -90l64 -33q35 17 57 56.5t22 82.5zM426 135q0 58 -72 101l-92 49
q-37 -20 -62.5 -59.5t-25.5 -86.5q0 -52 34.5 -84t88.5 -32q50 0 89.5 31t39.5 81z" />
    <glyph glyph-name="minus" unicode="&#x2212;" horiz-adv-x="899" 
d="M123 633l12 53h721l-12 -53h-721z" />
    <glyph glyph-name="approxequal" unicode="&#x2248;" horiz-adv-x="909" 
d="M135 678l17 67q122 97 210 97q42 0 84.5 -16.5t71.5 -36t69.5 -36t80.5 -16.5q98 0 231 107l-16 -66q-120 -98 -219 -98q-41 0 -82.5 16t-71 36t-70 36t-80.5 16q-96 0 -225 -106zM88 479l16 68q120 96 213 96q42 0 84.5 -16t71.5 -35t69 -35t79 -16q105 0 233 106
l-16 -67q-121 -97 -220 -97q-42 0 -83.5 16t-70.5 35.5t-69 35.5t-80 16q-94 0 -227 -107z" />
    <glyph glyph-name="notequal" unicode="&#x2260;" horiz-adv-x="909" 
d="M821 518h-444l-195 -184h-67l194 184h-211l13 51h254l194 185h-401l12 51h444l193 182h67l-192 -182h211l-12 -51h-254l-195 -185h402z" />
    <glyph glyph-name="lessequal" unicode="&#x2264;" horiz-adv-x="636" 
d="M98 700l8 31l582 232l-14 -64l-479 -188l387 -187l-15 -55zM2 322l14 51h527l-15 -51h-526z" />
    <glyph glyph-name="greaterequal" unicode="&#x2265;" horiz-adv-x="636" 
d="M649 731l-8 -31l-584 -231l17 63l479 187l-387 188l14 56zM557 373l-12 -51h-527l15 51h524z" />
    <glyph glyph-name="uni00200326" horiz-adv-x="1024" 
d="M453 -250q0 -95 -81 -165t-218 -74l6 26q190 22 213 164q-36 -25 -80 -25q-37 0 -62.5 24t-27.5 56q0 54 36.5 89.5t92.5 35.5q57 0 89 -35.5t32 -95.5z" />
    <glyph glyph-name="uni00200323" horiz-adv-x="1024" 
d="M324 -141q52 0 86 -33.5t34 -83.5q0 -53 -36.5 -90t-88.5 -37t-86 34.5t-34 82.5q0 54 36 90.5t89 36.5z" />
    <glyph glyph-name="i.dot" horiz-adv-x="481" 
d="M436 1450q52 0 83.5 -31.5t31.5 -79.5q0 -54 -36.5 -91.5t-90.5 -37.5q-52 0 -83.5 31.5t-31.5 79.5q0 55 36 92t91 37zM438 995l-207 -827q-4 -24 -4 -35q0 -33 19.5 -52.5t52.5 -19.5q40 0 94 31l2 -4q-87 -108 -196 -108q-65 0 -104.5 37t-39.5 102q0 30 8 61l152 608
q12 44 12 74q0 77 -84 129v4h295z" />
    <glyph glyph-name="hyphen.cap" horiz-adv-x="534" 
d="M115 690l14 60h401l-14 -60h-401z" />
    <glyph glyph-name="endash.cap" horiz-adv-x="884" 
d="M113 692l12 53h754l-13 -53h-753z" />
    <glyph glyph-name="emdash.cap" horiz-adv-x="1390" 
d="M115 692l12 53h1259l-12 -53h-1259z" />
    <glyph glyph-name="parenleft.cap" horiz-adv-x="598" 
d="M104 389q0 188 58 371t158 334t226 273.5t269 207.5h27q-115 -93 -219.5 -233.5t-185.5 -306t-129 -357t-48 -373.5q0 -345 135 -516h-26q-123 101 -194 254.5t-71 345.5z" />
    <glyph glyph-name="parenright.cap" horiz-adv-x="598" 
d="M586 975q0 -188 -58 -371t-158 -334t-226 -273.5t-269 -207.5h-27q115 93 219.5 233.5t185.5 306t129 357t48 373.5q0 345 -135 516h27q122 -101 193 -254.5t71 -345.5z" />
    <glyph glyph-name="bracketleft.cap" horiz-adv-x="561" 
d="M-18 -211l446 1786h377v-8l-252 -60l-412 -1648l221 -62v-8h-380z" />
    <glyph glyph-name="bracketright.cap" horiz-adv-x="561" 
d="M668 1575l-447 -1786h-377v8l252 60l412 1648l-221 62v8h381z" />
    <glyph glyph-name="braceleft.cap" horiz-adv-x="653" 
d="M70 676l2 12q100 3 179 73.5t116 223.5q11 42 20 135t23 148q34 133 145 220t256 87q47 0 86 -8l-2 -8q-115 0 -206.5 -79t-125.5 -218q-10 -37 -20.5 -140t-22.5 -149q-15 -60 -45.5 -109.5t-66 -80.5t-76.5 -54t-74 -33.5t-61 -13.5q29 -3 59 -16t60 -36t49.5 -64
t19.5 -93q0 -48 -19.5 -111.5t-43 -116.5t-43 -120.5t-19.5 -122.5q0 -94 53.5 -145.5t145.5 -51.5l-2 -8q-39 -8 -90 -8q-122 0 -190 61.5t-68 163.5q0 56 19.5 122.5t42.5 118.5t42.5 119.5t19.5 125.5q0 169 -163 176z" />
    <glyph glyph-name="braceright.cap" horiz-adv-x="653" 
d="M674 688l-2 -12q-100 -3 -179 -73.5t-116 -223.5q-11 -42 -20 -135t-23 -148q-34 -133 -145.5 -220t-256.5 -87q-47 0 -86 8l2 8q115 0 206.5 79t125.5 218q10 37 20.5 140t22.5 149q18 74 59.5 131.5t91.5 89.5t93 49t80 21q-29 3 -59 16t-60.5 36t-50 64t-19.5 93
q0 60 31 143.5t62.5 171.5t31.5 158q0 93 -53 144t-145 51l2 8q39 8 90 8q122 0 190 -61.5t68 -163.5q0 -56 -19.5 -122.5t-43 -118.5t-43 -119.5t-19.5 -125.5q0 -169 164 -176z" />
    <glyph glyph-name="guilsinglleft.cap" horiz-adv-x="503" 
d="M88 702v5q308 161 510 366h12q-142 -225 -305 -381q93 -167 121 -356h-10q-104 206 -328 366z" />
    <glyph glyph-name="guilsinglright.cap" horiz-adv-x="501" 
d="M516 707v-5q-313 -164 -510 -366h-12q137 220 305 381q-92 167 -121 356h10q53 -104 139.5 -198.5t188.5 -167.5z" />
    <glyph glyph-name="guillemotleft.cap" horiz-adv-x="808" 
d="M393 702v5q306 160 512 366h10q-132 -214 -303 -381q91 -171 121 -356h-12q-52 105 -138 199t-190 167zM88 707q308 161 510 366h12q-142 -225 -305 -381q93 -167 121 -356h-10q-104 206 -328 366v5z" />
    <glyph glyph-name="guillemotright.cap" horiz-adv-x="808" 
d="M516 707v-5q-313 -164 -510 -366h-12q137 220 305 381q-92 167 -121 356h10q53 -104 139.5 -198.5t188.5 -167.5zM823 707v-5q-312 -163 -512 -366h-10q128 210 303 381q-90 170 -121 356h13q104 -209 327 -366z" />
    <glyph glyph-name="slash.cap" horiz-adv-x="702" 
d="M-170 -211l1049 1786h57l-1045 -1786h-61z" />
    <glyph glyph-name="backslash.cap" horiz-adv-x="702" 
d="M356 1575l156 -1786h-51l-158 1786h53z" />
    <glyph glyph-name="bar.cap" horiz-adv-x="382" 
d="M-14 -211l446 1786h53l-446 -1786h-53z" />
    <glyph glyph-name="at.cap" horiz-adv-x="1601" 
d="M1305 1112l-189 -598q-20 -59 -20 -102q0 -84 88 -84q41 0 88.5 29.5t93.5 88t83 135.5t60 181t23 215q0 245 -137.5 381.5t-366.5 136.5q-121 0 -241 -52t-219.5 -146t-176.5 -215.5t-120.5 -270t-43.5 -299.5q0 -286 156.5 -450t417.5 -164q172 0 308 46.5t271 157.5
l6 -10q-240 -252 -602 -252q-203 0 -357.5 78t-241.5 230.5t-87 359.5q0 200 77 391t203.5 332t299 227t354.5 86q268 0 430 -149.5t162 -423.5q0 -130 -30 -246t-78.5 -197.5t-109.5 -141.5t-123 -89t-118 -29q-89 0 -135.5 53.5t-46.5 155.5q-107 -209 -268 -209
q-100 0 -161.5 70t-61.5 192q0 107 39 214t101 188t145 131.5t167 50.5q82 0 131 -48.5t55 -117.5q29 47 82 97t93 67zM1014 639l47 158q26 79 26 139q0 65 -31 98t-81 33q-63 0 -125 -52.5t-107 -132.5t-73 -176t-29 -182q0 -86 32.5 -137t92.5 -51q81 0 143.5 80.5
t104.5 222.5z" />
    <glyph glyph-name="exclamdown.cap" horiz-adv-x="483" 
d="M313 1319q0 55 38.5 94t94.5 39t95 -39t39 -94q0 -57 -39 -96t-95 -39t-94.5 39t-38.5 96zM-4 2l375 1018h10l-141 -1018h-244z" />
    <glyph glyph-name="questiondown.cap" horiz-adv-x="892" 
d="M692 1184q-56 0 -94.5 39t-38.5 96q0 55 38.5 94t94.5 39q54 0 92.5 -39t38.5 -94q0 -57 -38.5 -96t-92.5 -39zM412 23q107 0 172 68t65 181q0 51 -24.5 82t-63.5 31q-44 0 -76 -23h-2q60 117 168 117q66 0 110 -49.5t44 -120.5q0 -77 -34.5 -140.5t-91 -103.5
t-125.5 -61.5t-142 -21.5q-172 0 -273.5 99t-101.5 247q0 198 142 330.5t370 170.5l49 197h45l-92 -362q-78 -11 -144 -38.5t-120.5 -73t-85.5 -116t-31 -160.5q0 -124 65 -188.5t177 -64.5z" />
    <glyph glyph-name="periodcentered.cap" horiz-adv-x="405" 
d="M387 702q0 -55 -39.5 -94t-93.5 -39q-56 0 -94.5 38.5t-38.5 94.5q0 57 38.5 96.5t94.5 39.5q54 0 93.5 -39.5t39.5 -96.5z" />
    <glyph glyph-name="bullet.cap" horiz-adv-x="610" 
d="M123 707q0 96 68.5 164.5t164.5 68.5q95 0 163.5 -69t68.5 -164t-68.5 -163.5t-163.5 -68.5q-96 0 -164.5 68.5t-68.5 163.5z" />
    <glyph glyph-name="E.1" horiz-adv-x="1114" 
d="M1018 383l-148 -383h-929v4q79 29 116 84t64 164l233 930q21 89 21 127q0 83 -78 121v4h293l-41 -164q249 184 442 184q85 0 144 -45.5t59 -130.5q0 -103 -94 -197h-6q14 32 14 80q0 82 -59 129t-170 47q-172 0 -338 -102l-121 -481h155q125 0 190.5 42.5t154.5 184.5h4
l-117 -471h-4q-6 48 -14 80t-23 54.5t-29.5 34.5t-43.5 18.5t-55.5 8t-74.5 1.5h-155l-164 -658h229q119 0 213 38.5t168 108t160 187.5h4z" />
    <glyph glyph-name="Egrave.1" 
d="M844 1829q-7 -78 8.5 -147t54.5 -160h-6q-209 136 -250 307h193zM1018 383l-148 -383h-929v4q79 29 116 84t64 164l233 930q21 89 21 127q0 83 -78 121v4h293l-41 -164q249 184 442 184q85 0 144 -45.5t59 -130.5q0 -103 -94 -197h-6q14 32 14 80q0 82 -59 129t-170 47
q-172 0 -338 -102l-121 -481h155q125 0 190.5 42.5t154.5 184.5h4l-117 -471h-4q-6 48 -14 80t-23 54.5t-29.5 34.5t-43.5 18.5t-55.5 8t-74.5 1.5h-155l-164 -658h229q119 0 213 38.5t168 108t160 187.5h4z" />
    <glyph glyph-name="Eacute.1" 
d="M866 1829h217q-126 -180 -389 -307h-8q70 79 110.5 149.5t69.5 157.5zM1018 383l-148 -383h-929v4q79 29 116 84t64 164l233 930q21 89 21 127q0 83 -78 121v4h293l-41 -164q249 184 442 184q85 0 144 -45.5t59 -130.5q0 -103 -94 -197h-6q14 32 14 80q0 82 -59 129
t-170 47q-172 0 -338 -102l-121 -481h155q125 0 190.5 42.5t154.5 184.5h4l-117 -471h-4q-6 48 -14 80t-23 54.5t-29.5 34.5t-43.5 18.5t-55.5 8t-74.5 1.5h-155l-164 -658h229q119 0 213 38.5t168 108t160 187.5h4z" />
    <glyph glyph-name="Ecircumflex.1" 
d="M1049 1507q-66 24 -124 61.5t-87 76.5q-105 -78 -306 -138h-14q244 169 363 351h10q25 -189 174 -351h-16zM1018 383l-148 -383h-929v4q79 29 116 84t64 164l233 930q21 89 21 127q0 83 -78 121v4h293l-41 -164q249 184 442 184q85 0 144 -45.5t59 -130.5
q0 -103 -94 -197h-6q14 32 14 80q0 82 -59 129t-170 47q-172 0 -338 -102l-121 -481h155q125 0 190.5 42.5t154.5 184.5h4l-117 -471h-4q-6 48 -14 80t-23 54.5t-29.5 34.5t-43.5 18.5t-55.5 8t-74.5 1.5h-155l-164 -658h229q119 0 213 38.5t168 108t160 187.5h4z" />
    <glyph glyph-name="Edieresis.1" 
d="M995 1778q49 0 80 -30t31 -75q0 -51 -36 -87t-87 -36q-47 0 -78 30t-31 73q0 52 35.5 88.5t85.5 36.5zM680 1778q49 0 78.5 -30t29.5 -75q0 -51 -35 -87t-87 -36q-47 0 -77 30t-30 73q0 53 35 89t86 36zM1018 383l-148 -383h-929v4q79 29 116 84t64 164l233 930
q21 89 21 127q0 83 -78 121v4h293l-41 -164q249 184 442 184q85 0 144 -45.5t59 -130.5q0 -103 -94 -197h-6q14 32 14 80q0 82 -59 129t-170 47q-172 0 -338 -102l-121 -481h155q125 0 190.5 42.5t154.5 184.5h4l-117 -471h-4q-6 48 -14 80t-23 54.5t-29.5 34.5t-43.5 18.5
t-55.5 8t-74.5 1.5h-155l-164 -658h229q119 0 213 38.5t168 108t160 187.5h4z" />
    <glyph glyph-name="Emacron.1" 
d="M1059 1571h-498l17 71h499zM1018 383l-148 -383h-929v4q79 29 116 84t64 164l233 930q21 89 21 127q0 83 -78 121v4h293l-41 -164q249 184 442 184q85 0 144 -45.5t59 -130.5q0 -103 -94 -197h-6q14 32 14 80q0 82 -59 129t-170 47q-172 0 -338 -102l-121 -481h155
q125 0 190.5 42.5t154.5 184.5h4l-117 -471h-4q-6 48 -14 80t-23 54.5t-29.5 34.5t-43.5 18.5t-55.5 8t-74.5 1.5h-155l-164 -658h229q119 0 213 38.5t168 108t160 187.5h4z" />
    <glyph glyph-name="Ebreve.1" 
d="M1120 1827q-85 -299 -317 -299q-109 0 -159.5 74.5t-25.5 224.5h15q-9 -80 46.5 -124t147.5 -44q93 0 171.5 44t107.5 124h14zM1018 383l-148 -383h-929v4q79 29 116 84t64 164l233 930q21 89 21 127q0 83 -78 121v4h293l-41 -164q249 184 442 184q85 0 144 -45.5
t59 -130.5q0 -103 -94 -197h-6q14 32 14 80q0 82 -59 129t-170 47q-172 0 -338 -102l-121 -481h155q125 0 190.5 42.5t154.5 184.5h4l-117 -471h-4q-6 48 -14 80t-23 54.5t-29.5 34.5t-43.5 18.5t-55.5 8t-74.5 1.5h-155l-164 -658h229q119 0 213 38.5t168 108t160 187.5h4z
" />
    <glyph glyph-name="Edotaccent.1" 
d="M844 1794q52 0 83 -31.5t31 -79.5q0 -53 -36 -91t-91 -38q-51 0 -82.5 32t-31.5 79q0 54 36.5 91.5t90.5 37.5zM1018 383l-148 -383h-929v4q79 29 116 84t64 164l233 930q21 89 21 127q0 83 -78 121v4h293l-41 -164q249 184 442 184q85 0 144 -45.5t59 -130.5
q0 -103 -94 -197h-6q14 32 14 80q0 82 -59 129t-170 47q-172 0 -338 -102l-121 -481h155q125 0 190.5 42.5t154.5 184.5h4l-117 -471h-4q-6 48 -14 80t-23 54.5t-29.5 34.5t-43.5 18.5t-55.5 8t-74.5 1.5h-155l-164 -658h229q119 0 213 38.5t168 108t160 187.5h4z" />
    <glyph glyph-name="Eogonek.1" 
d="M721 -285q-105 -198 -264 -198q-61 0 -100.5 37t-39.5 96q0 52 24.5 102t70.5 94t97 80t118 74h-686v4q79 29 116 84t64 164l233 930q21 89 21 127q0 83 -78 121v4h293l-41 -164q249 184 442 184q85 0 144 -45.5t59 -130.5q0 -103 -94 -197h-6q14 32 14 80q0 82 -59 129
t-170 47q-172 0 -338 -102l-121 -481h155q125 0 190.5 42.5t154.5 184.5h4l-117 -471h-4q-6 48 -14 80t-23 54.5t-29.5 34.5t-43.5 18.5t-55.5 8t-74.5 1.5h-155l-164 -658h229q119 0 213 38.5t168 108t160 187.5h4l-148 -383h-202q-222 -161 -222 -309q0 -41 23 -63.5
t66 -22.5q91 0 180 114z" />
    <glyph glyph-name="Ecaron.1" 
d="M629 1858q66 -24 124 -61.5t87 -76.5q106 79 305 138h14q-242 -168 -362 -351h-11q-25 189 -174 351h17zM1018 383l-148 -383h-929v4q79 29 116 84t64 164l233 930q21 89 21 127q0 83 -78 121v4h293l-41 -164q249 184 442 184q85 0 144 -45.5t59 -130.5q0 -103 -94 -197
h-6q14 32 14 80q0 82 -59 129t-170 47q-172 0 -338 -102l-121 -481h155q125 0 190.5 42.5t154.5 184.5h4l-117 -471h-4q-6 48 -14 80t-23 54.5t-29.5 34.5t-43.5 18.5t-55.5 8t-74.5 1.5h-155l-164 -658h229q119 0 213 38.5t168 108t160 187.5h4z" />
    <glyph glyph-name="F.1" horiz-adv-x="1038" 
d="M391 4v-4h-450v4q79 29 116 84t64 164l233 930q21 89 21 127q0 83 -78 121v4h293l-41 -164q245 184 434 184q84 0 143.5 -46t59.5 -130q0 -105 -96 -197h-5q15 43 15 80q0 82 -59.5 129t-172.5 47q-171 0 -327 -102l-125 -496h149q125 0 190 43t154 185h4l-116 -471h-4
q-6 48 -14 80t-23 54.5t-29.5 34.5t-44 18t-55.5 7.5t-74 1.5h-150l-112 -452q-19 -78 -19 -103q0 -46 27 -76.5t92 -56.5z" />
    <glyph glyph-name="zero.op" horiz-adv-x="1069" 
d="M700 1303q115 0 198 -62t122 -162t39 -225q0 -116 -28 -238.5t-82.5 -235.5t-128.5 -203t-173.5 -143.5t-208.5 -53.5q-114 0 -196 62.5t-121 162.5t-39 225q0 115 27.5 237.5t82 235.5t127.5 202.5t172.5 143.5t208.5 54zM698 1260q-133 0 -229 -162t-166 -453
q-49 -203 -49 -346q0 -276 184 -276q251 0 398 616q51 212 51 346q0 275 -189 275z" />
    <glyph glyph-name="one.op" horiz-adv-x="653" 
d="M487 0h-567v8q138 45 167 61q46 25 64 76q5 12 9 27l231 930q6 30 6 47q0 36 -28.5 56t-120.5 57q-19 8 -29 12l2 8h389l-276 -1110q-6 -27 -6 -47q0 -25 16.5 -43t35 -27t76.5 -33q21 -9 33 -14z" />
    <glyph glyph-name="two.op" horiz-adv-x="925" 
d="M596 1264q-123 0 -191.5 -80t-68.5 -207q0 -62 31.5 -99.5t89.5 -37.5q46 0 84 20h2q-67 -110 -193 -110q-76 0 -125 52t-49 130q0 158 121 264.5t299 106.5q155 0 250.5 -75t95.5 -204q0 -64 -16.5 -120.5t-69 -125.5t-98.5 -119.5t-161 -145.5t-196.5 -159t-259.5 -200
h271q81 0 128.5 5.5t94.5 25.5t85.5 56.5t88.5 100.5h6l-123 -342h-792v4q213 173 361.5 306t248.5 240.5t156 199.5t79 169.5t23 163.5q0 85 -43.5 133t-128.5 48z" />
    <glyph glyph-name="three.op" horiz-adv-x="925" 
d="M334 18q100 0 174 58.5t108.5 149t34.5 198.5q0 249 -256 258l2 18q90 1 161 34t115 88t66.5 124.5t22.5 147.5t-39.5 126t-120.5 48q-86 0 -144.5 -55.5t-58.5 -143.5q0 -44 20 -69t58 -25q31 0 58 12h4q-34 -51 -70.5 -73.5t-83.5 -22.5q-57 0 -94 35t-37 98
q0 121 102 200t252 79q144 0 237 -70t93 -184q0 -140 -116.5 -238t-284.5 -119q133 -14 215 -87t82 -189q0 -132 -68.5 -232.5t-181.5 -152t-250 -51.5q-61 0 -121 16.5t-111 48t-82.5 84.5t-31.5 119q0 91 55 150t145 59q58 0 97 -30.5t43 -80.5h-4q-23 19 -60 19
q-54 0 -89.5 -42.5t-35.5 -109.5q0 -90 51.5 -142.5t143.5 -52.5z" />
    <glyph glyph-name="four.op" horiz-adv-x="1054" 
d="M561 418l162 643l-606 -643h444zM547 362h-545l2 5l860 915h82l-215 -864h62q81 0 120.5 29t98.5 126h4l-92 -368h-4q-11 98 -36 127.5t-106 29.5h-61l-25 -100q-22 -83 -22 -135q0 -89 73 -123v-4h-403v4q77 29 115 88t67 170z" />
    <glyph glyph-name="five.op" horiz-adv-x="927" 
d="M864 506q0 -145 -72 -266t-193 -190.5t-263 -69.5q-59 0 -117 16.5t-108.5 48t-81.5 84t-31 117.5q0 93 54 152t141 59q59 0 97 -30.5t42 -82.5h-4q-15 18 -58 18q-54 0 -88.5 -42t-34.5 -111q0 -88 51 -138.5t140 -50.5q83 0 150 44t107 115.5t61.5 154.5t21.5 168
q0 248 -197 248q-72 0 -146.5 -40.5t-129.5 -95.5l217 682q174 -32 323 -32q108 0 163.5 14t111.5 72h6q-65 -275 -328 -275q-133 0 -286 43l-127 -401q116 98 272 98q139 0 223 -86t84 -223z" />
    <glyph glyph-name="six.op" horiz-adv-x="1040" 
d="M842 1106q54 0 92.5 45t38.5 123q0 67 -38.5 104t-111.5 37q-100 0 -196.5 -79.5t-166.5 -200.5t-118 -255.5t-66 -254.5q62 122 158 193t223 71q138 0 226 -92.5t88 -245.5q0 -150 -66 -280.5t-186.5 -210.5t-265.5 -80q-88 0 -158 37.5t-115 102.5t-68.5 150.5
t-23.5 184.5q0 169 59.5 347.5t157.5 322.5t236.5 236.5t283.5 92.5q129 0 205 -62.5t76 -166.5q0 -97 -55 -154t-133 -57q-58 0 -96.5 29.5t-47.5 82.5h4q20 -20 64 -20zM453 23q76 0 142.5 52t109.5 134t67.5 180.5t24.5 194.5q0 114 -47 182t-144 68q-100 0 -182 -85.5
t-125 -211t-43 -254.5q0 -117 49 -188.5t148 -71.5z" />
    <glyph glyph-name="seven.op" horiz-adv-x="899" 
d="M268 1303q37 -21 125 -21h682v-4l-241 -279q-216 -253 -341.5 -516t-216.5 -620l-206 -21q57 174 134 332.5t174 304.5t195 269.5t228 269.5l96 106h-410q-123 0 -191.5 -36t-148.5 -150h-4z" />
    <glyph glyph-name="eight.op" horiz-adv-x="972" 
d="M979 1038q0 -92 -49.5 -165.5t-123.5 -115t-163 -57.5q121 -66 182.5 -141t61.5 -172q0 -121 -70.5 -216.5t-175 -143t-217.5 -47.5q-107 0 -197 33.5t-149.5 106.5t-59.5 173q0 77 33 142t88 109t120.5 72.5t137.5 40.5q-155 112 -155 265q0 109 58.5 197.5t152 136
t200.5 47.5q82 0 154.5 -29t122 -91t49.5 -145zM840 1071q0 87 -49.5 141t-139.5 54q-105 0 -179.5 -80t-74.5 -201q0 -133 127 -211l105 -61q90 43 150.5 140t60.5 218zM582 549l-170 100q-100 -42 -167 -143t-67 -232q0 -120 69 -188t181 -68q74 0 142 34.5t113.5 104.5
t45.5 160q0 143 -147 232z" />
    <glyph glyph-name="nine.op" horiz-adv-x="1038" 
d="M655 1257q-76 0 -142.5 -52t-109.5 -134t-67.5 -180.5t-24.5 -194.5q0 -114 47 -182t144 -68q100 0 182 85.5t125 211t43 254.5q0 117 -49 188.5t-148 71.5zM266 174q-54 0 -92.5 -45t-38.5 -123q0 -67 38.5 -104t111.5 -37q100 0 196.5 79.5t166 200.5t117.5 255.5
t66 254.5q-63 -122 -158 -193t-222 -71q-138 0 -226 92.5t-88 245.5q0 150 66 280.5t186.5 210.5t265.5 80q88 0 158 -37.5t115 -102.5t68.5 -150.5t23.5 -184.5q0 -169 -59.5 -347.5t-157.5 -322.5t-236.5 -236.5t-283.5 -92.5q-129 0 -205 62.5t-76 166.5q0 97 55 154
t133 57q58 0 96.5 -29.5t47.5 -82.5h-4q-20 20 -64 20z" />
    <glyph glyph-name="percent.op" horiz-adv-x="1243" 
d="M154 0h-78l1016 1221q-48 -35 -116.5 -59.5t-133.5 -24.5q-108 0 -185 49q38 -75 29 -170q-12 -124 -101.5 -215.5t-205.5 -91.5q-101 0 -161 85t-48 201q12 124 101.5 217t205.5 93q43 0 80.5 -13.5t66.5 -32.5t59 -37.5t71 -32t90 -13.5q92 0 169 36t173 111l20 -18z
M375 743q44 0 84 47t64.5 118t31.5 147q6 61 5 108.5t-21 77t-58 29.5q-44 0 -84 -48t-64.5 -118.5t-31.5 -145.5q-29 -215 74 -215zM840 -10q-94 0 -154.5 73.5t-60.5 178.5q0 135 94 239.5t217 104.5q93 0 154 -73.5t61 -176.5q0 -135 -94 -240.5t-217 -105.5zM834 25
q47 0 91.5 55t71.5 145t27 185q0 141 -82 141q-47 0 -91.5 -55t-71.5 -144.5t-27 -183.5q-3 -143 82 -143z" />
    <glyph glyph-name="perthousand.op" horiz-adv-x="1839" 
d="M154 0h-78l1016 1221q-48 -35 -116.5 -59.5t-133.5 -24.5q-108 0 -185 49q38 -75 29 -170q-12 -124 -101.5 -215.5t-205.5 -91.5q-101 0 -161 85t-48 201q12 124 101.5 217t205.5 93q43 0 80.5 -13.5t66.5 -32.5t59 -37.5t71 -32t90 -13.5q92 0 169 36t173 111l20 -18z
M375 743q44 0 84 47t64.5 118t31.5 147q6 61 5 108.5t-21 77t-58 29.5q-44 0 -84 -48t-64.5 -118.5t-31.5 -145.5q-29 -215 74 -215zM838 -10q-93 0 -153 73.5t-60 178.5q0 135 94 239.5t217 104.5q93 0 153 -73t60 -177q0 -135 -94 -240.5t-217 -105.5zM1434 -10
q-93 0 -153 73.5t-60 178.5q0 135 94 239.5t217 104.5q93 0 153 -73t60 -177q0 -135 -94 -240.5t-217 -105.5zM834 25q47 0 91.5 55t71.5 145t27 185q0 69 -18.5 105t-65.5 36t-91 -55t-71 -144t-28 -184q0 -69 18.5 -106t65.5 -37zM1430 25q47 0 91.5 55t71.5 145t27 185
q0 69 -18.5 105t-65.5 36t-91 -55t-71 -144t-28 -184q0 -69 18.5 -106t65.5 -37z" />
    <glyph glyph-name="dollar.op" horiz-adv-x="927" 
d="M631 1262q-21 0 -31 -2l-121 -490q40 -25 94 -51l132 534q-34 9 -74 9zM338 977q0 -110 115 -189l116 467q-103 -20 -167 -98t-64 -180zM369 18q20 0 30 2l133 539q-40 25 -94 51l-143 -583q35 -9 74 -9zM702 336q0 70 -37 119t-106 90l-129 -522q123 20 197.5 107.5
t74.5 205.5zM369 -20q-43 0 -84 6l-56 -219h-30l55 223q-126 24 -201.5 93t-75.5 155q0 80 49.5 128t120.5 48q69 0 103 -49q-55 0 -92 -40.5t-37 -107.5q0 -63 39.5 -110.5t105.5 -71.5l146 590q-50 27 -84.5 50.5t-68.5 57.5t-51.5 78.5t-17.5 99.5q0 154 110.5 263
t279.5 126l47 189h30l-47 -186h21q35 0 86 -7l47 193h31l-50 -199q108 -23 173 -82.5t65 -132.5q0 -69 -41.5 -111t-105.5 -42q-34 0 -61 13.5t-38 31.5q45 0 81 36.5t36 94.5q0 51 -31 89.5t-88 57.5l-135 -540q47 -26 75 -42.5t65.5 -45.5t57.5 -56.5t35 -67t15 -85.5
q0 -117 -60.5 -211.5t-157 -148.5t-210.5 -66l-53 -215h-31l53 213h-20z" />
    <glyph glyph-name="sterling.op" horiz-adv-x="1079" 
d="M717 -45q-42 0 -84 9.5t-70.5 19.5t-69 35t-57 36.5t-59.5 45t-53 40.5q-118 -161 -263 -161q-61 0 -100 35.5t-39 93.5q0 73 52.5 116t129.5 43q73 0 158 -37q26 75 43 152q29 105 49 279h-168l9 36h165q9 90 33 203q41 179 170 290.5t314 111.5q121 0 196.5 -60
t75.5 -147q0 -97 -56 -149t-130 -52q-49 0 -85 21.5t-44 48.5q72 -9 124 37t52 135q0 59 -39 95t-99 36q-109 0 -173 -84.5t-105 -253.5l-57 -232h254l-9 -36h-254l-22 -93q-57 -231 -150 -379q178 -81 306 -81q106 0 163.5 49.5t57.5 134.5q0 35 -15 57q45 -16 74 -54
t29 -93q0 -112 -72 -180t-182 -68zM59 18q111 0 187 175q-69 40 -142 40q-62 0 -102.5 -33t-40.5 -91q0 -41 27.5 -66t70.5 -25z" />
    </font>
</defs>
</svg>
